<?xml version="1.0" encoding="UTF-8"?>
<svg id="Camada_1" data-name="Camada 1" xmlns="http://www.w3.org/2000/svg" viewBox="0 0 109.38 119.77">
  <defs>
    <style>
      .cls-1 {
        fill: #fcc505;
        stroke-width: 0px;
      }
    </style>
  </defs>
  <circle class="cls-1" cx="55.13" cy="55.13" r="8.2"/>
  <rect class="cls-1" x="51.63" y="3.5" width="7" height="14.38"/>
  <rect class="cls-1" x="3.5" y="51.63" width="14.38" height="7"/>
  <rect class="cls-1" x="20.21" y="16.51" width="7" height="14.38" transform="translate(-9.82 23.71) rotate(-45)"/>
  <rect class="cls-1" x="49.63" y="38.37" width="37.5" height="7" transform="translate(-9.57 60.62) rotate(-45)"/>
  <path class="cls-1" d="m18.62,96.58l-2.48-2.48C5.73,83.69,0,69.85,0,55.13,0,24.73,24.73,0,55.13,0c26.72,0,49.54,19.06,54.26,45.33l-6.89,1.24c-4.12-22.92-24.04-39.56-47.37-39.56C28.59,7,7,28.59,7,55.13c0,11.68,4.13,22.73,11.71,31.47l7.61-7.61,4.95,4.95-12.64,12.65Z"/>
  <polygon class="cls-1" points="28.18 119.77 23.24 114.82 57.07 80.99 73.6 97.53 102.67 68.46 107.62 73.41 73.87 107.17 69.7 103.52 57.07 90.89 28.18 119.77"/>
  <polygon class="cls-1" points="108.69 90.69 101.69 90.69 101.69 74.47 85.47 74.47 85.47 67.47 108.69 67.47 108.69 90.69"/>
</svg>