<?xml version="1.0" encoding="UTF-8"?>
<svg id="Camada_1" data-name="Camada 1" xmlns="http://www.w3.org/2000/svg" viewBox="0 0 101.95 115">
  <defs>
    <style>
      .cls-1 {
        fill: #fcc505;
        stroke-width: 0px;
      }
    </style>
  </defs>
  <g>
    <path class="cls-1" d="m50.98,73.71c-9.86,0-17.89-8.03-17.89-17.89v-9.69c0-9.86,8.03-17.89,17.89-17.89s17.89,8.03,17.89,17.89v9.69c0,9.86-8.03,17.89-17.89,17.89Zm0-38.47c-6,0-10.89,4.88-10.89,10.89v9.69c0,6,4.88,10.89,10.89,10.89s10.89-4.88,10.89-10.89v-9.69c0-6-4.88-10.89-10.89-10.89Z"/>
    <path class="cls-1" d="m83.5,115h-7v-17.31c0-5.37-6.02-9.91-13.16-9.91h-24.74c-7.13,0-13.16,4.54-13.16,9.91v17.31h-7v-17.31c0-9.33,9.04-16.91,20.16-16.91h24.74c11.11,0,20.16,7.59,20.16,16.91v17.31Z"/>
  </g>
  <path class="cls-1" d="m14.72,81.55l-5.47-4.37,4.2-5.26c-1.55-2.76-2.78-5.69-3.67-8.73l-9.78-1.09v-22.26l9.78-1.1c.83-2.82,1.94-5.53,3.32-8.1l-6.27-7.85,15.73-15.75,7.78,6.2c2.9-1.59,5.95-2.83,9.12-3.71l1.07-9.56h22.24l1.12,9.97c2.82.88,5.53,2.05,8.09,3.49l7.41-5.92,15.75,15.73-6.12,7.65c1.32,2.5,2.38,5.11,3.18,7.83l9.76,1.1v22.26l-9.76,1.09c-.86,2.94-2.04,5.78-3.52,8.46l4.03,5.05-5.47,4.37-7.09-8.88,1.33-2.11c2.12-3.36,3.65-7.02,4.54-10.89l.56-2.42,8.39-.93v-9.74l-8.39-.95-.56-2.42c-.84-3.66-2.25-7.14-4.19-10.34l-1.27-2.09,5.21-6.51-6.89-6.88-6.39,5.1-2.12-1.36c-3.23-2.08-6.77-3.62-10.54-4.56l-2.36-.59-.95-8.5h-9.72l-.93,8.28-2.47.52c-4.08.86-7.94,2.43-11.5,4.66l-2.1,1.32-6.71-5.35-6.88,6.89,5.39,6.75-1.29,2.1c-2.01,3.25-3.47,6.81-4.34,10.58l-.56,2.41-8.4.95v9.74l8.4.93.56,2.42c.92,3.97,2.49,7.71,4.69,11.13l1.35,2.11-7.28,9.12Z"/>
</svg>