<svg width="94" height="111" viewBox="0 0 94 111" class="areaImage" xmlns="http://www.w3.org/2000/svg">
<g clip-path="url(#clip0_178_234)">
<path d="M94 96.8331H0V21.4956H28.9796V27.842H6.36735V90.4458H87.6326V27.842H65.0204V21.4956H94V96.8331Z" />
<path d="M90.8162 76.4839H3.18359V82.8712H90.8162V76.4839Z" />
<path d="M61.4286 104.613H32.6123V111H61.4286V104.613Z" />
<path d="M42.2858 92.4521H35.9185V107.847H42.2858V92.4521Z" fill="#FFC600"/>
<path d="M58.0817 92.4521H51.7144V107.847H58.0817V92.4521Z" fill="#FFC600"/>
<path d="M46.9796 58.1C33.9592 58.1 23.3469 47.4545 23.3469 34.3933C23.3469 21.332 33.9592 10.6865 46.9796 10.6865C60 10.6865 70.6122 21.332 70.6122 34.3933C70.6122 47.4545 60.0408 58.1 46.9796 58.1ZM46.9796 17.0738C37.4286 17.0738 29.6735 24.8533 29.6735 34.4342C29.6735 44.0152 37.4286 51.7946 46.9796 51.7946C56.5306 51.7946 64.2857 44.0152 64.2857 34.4342C64.2857 24.8533 56.5306 17.0738 46.9796 17.0738Z" fill="#FFC600"/>
<path d="M25.6734 31.1997H12.6938V37.587H25.6734V31.1997Z" fill="#FFC600"/>
<path d="M81.2652 31.1997H68.2856V37.587H81.2652V31.1997Z" fill="#FFC600"/>
<path d="M50.204 0H43.8367V13.0203H50.204V0Z" fill="#FFC600"/>
<path d="M50.204 55.7661H43.8367V68.7864H50.204V55.7661Z" fill="#FFC600"/>
<path d="M47.0612 40.9441H46.9388C42.1225 40.9441 38.2041 37.0134 38.2041 32.182V28.2513C38.2041 23.4199 42.1225 19.4893 46.9388 19.4893H47.0612C51.8776 19.4893 55.7959 23.4199 55.7959 28.2513V32.182C55.7959 37.0134 51.8776 40.9441 47.0612 40.9441ZM46.9388 25.8356C45.6327 25.8356 44.5306 26.9002 44.5306 28.2513V32.182C44.5306 33.4922 45.5919 34.5977 46.9388 34.5977H47.0612C48.3674 34.5977 49.4694 33.5332 49.4694 32.182V28.2513C49.4694 26.9411 48.4082 25.8356 47.0612 25.8356H46.9388Z" fill="#FFC600"/>
<path d="M61.551 50.9756H55.1837V47.6181C55.1837 46.6355 53.7551 45.53 51.8367 45.53H42.1633C40.2449 45.53 38.8163 46.6355 38.8163 47.6181V50.9756H32.449V47.6181C32.449 42.9505 36.8163 39.1836 42.1633 39.1836H51.8367C57.1837 39.1836 61.551 42.9914 61.551 47.6181V50.9756Z" fill="#FFC600"/>
</g>
<defs>
<clipPath id="clip0_178_234">
<rect width="94" height="111" fill="white"/>
</clipPath>
</defs>
</svg>
