<?xml version="1.0" encoding="UTF-8"?>
<svg id="Camada_1" data-name="Camada 1" xmlns="http://www.w3.org/2000/svg" viewBox="0 0 111.64 111.64">
  <defs>
    <style>
      .cls-1 {
        fill: #fcc505;
        stroke-width: 0px;
      }
    </style>
  </defs>
  <path class="cls-1" d="m53.09,111.64C23.82,111.64,0,87.83,0,58.55S23.82,5.47,53.09,5.47c4.88,0,9.71.66,14.37,1.97l-1.89,6.74c-4.04-1.13-8.24-1.71-12.48-1.71C27.68,12.47,7,33.14,7,58.55s20.68,46.09,46.09,46.09,46.09-20.67,46.09-46.09c0-7.95-2.06-15.79-5.94-22.66l6.09-3.45c4.48,7.92,6.85,16.95,6.85,26.11,0,29.27-23.82,53.09-53.09,53.09Z"/>
  <path class="cls-1" d="m53.09,87.51c-15.97,0-28.96-12.99-28.96-28.95s12.99-28.96,28.96-28.96c2.79,0,5.55.4,8.21,1.18l-1.98,6.71c-2.01-.59-4.11-.9-6.23-.9-12.11,0-21.96,9.85-21.96,21.96s9.85,21.95,21.96,21.95,21.95-9.85,21.95-21.95c0-5.26-1.89-10.35-5.32-14.33l5.3-4.57c4.53,5.25,7.02,11.96,7.02,18.9,0,15.97-12.99,28.95-28.95,28.95Z"/>
  <path class="cls-1" d="m55.56,61.03l-4.95-4.95,16.96-16.96v-16.66L90.03,0v21.61h21.61l-22.46,22.46h-16.66l-16.96,16.96Zm19.01-23.96h11.71l8.46-8.46h-11.71v-11.71l-8.46,8.46v11.71Z"/>
</svg>