<?xml version="1.0" encoding="UTF-8"?>
<svg id="Camada_1" data-name="Camada 1" xmlns="http://www.w3.org/2000/svg" viewBox="0 0 132 116.51">
  <defs>
    <style>
      .cls-1 {
        fill: #fcc505;
        stroke-width: 0px;
      }
    </style>
  </defs>
  <g>
    <polygon class="cls-1" points="122.84 101.38 9.15 101.38 9.15 35.41 35.87 35.41 35.87 42.41 16.15 42.41 16.15 94.38 115.84 94.38 115.84 42.41 96.41 42.41 96.41 35.41 122.84 35.41 122.84 101.38"/>
    <rect class="cls-1" x="18.85" y="94.38" width="94.3" height="7"/>
    <path class="cls-1" d="m118.25,116.51H13.74c-7.58,0-13.74-6.17-13.74-13.74v-8.38h132v8.38c0,7.58-6.17,13.74-13.74,13.74ZM7,101.38v1.38c0,3.72,3.03,6.74,6.74,6.74h104.51c3.72,0,6.74-3.03,6.74-6.74v-1.38H7Z"/>
  </g>
  <g>
    <path class="cls-1" d="m75.59,77.81h-18.18l-.83-7.34c-1.86-.55-3.66-1.27-5.39-2.14l-6.09,4.87-12.87-12.85,4.71-5.91c-.96-1.79-1.75-3.66-2.35-5.6l-7.5-.83v-18.19l7.5-.84c.55-1.77,1.26-3.48,2.1-5.12l-4.81-6.02,12.85-12.87,5.97,4.76c1.88-.99,3.85-1.79,5.89-2.39l.82-7.33h18.18l.86,7.65c1.77.59,3.48,1.33,5.12,2.21l5.68-4.54,12.87,12.86-4.7,5.88c.8,1.58,1.47,3.22,2,4.91l7.49.84v18.19l-7.49.83c-.58,1.86-1.33,3.67-2.25,5.39l4.59,5.75-12.86,12.86-5.82-4.65c-1.5.77-3.05,1.43-4.63,1.96l-.86,7.66Zm-11.92-7h5.67l.69-6.18,2.36-.59c2.53-.63,4.95-1.65,7.2-3.04l2.1-1.3,4.7,3.75,4-4-3.73-4.67,1.33-2.11c1.53-2.42,2.63-5.06,3.27-7.85l.56-2.42,6.09-.68v-5.67l-6.1-.69-.56-2.42c-.61-2.63-1.62-5.14-3.02-7.45l-1.27-2.09,3.78-4.72-4.01-4-4.64,3.71-2.11-1.36c-2.33-1.5-4.88-2.61-7.59-3.29l-2.36-.59-.69-6.16h-5.66l-.67,6.02-2.47.52c-2.94.62-5.72,1.75-8.28,3.36l-2.1,1.32-4.88-3.89-4.01,4.01,3.92,4.9-1.29,2.1c-1.45,2.34-2.5,4.91-3.13,7.62l-.56,2.41-6.1.69v5.67l6.1.68.56,2.42c.66,2.86,1.8,5.55,3.38,8.02l1.35,2.11-3.87,4.85,4.01,4.01,4.93-3.94,2.09,1.25c2.45,1.47,5.1,2.52,7.89,3.12l2.46.53.68,6.02Zm2.33-16.23c-8.65,0-15.68-7.03-15.68-15.68s7.03-15.67,15.68-15.67,15.67,7.03,15.67,15.67-7.03,15.68-15.67,15.68Zm0-24.35c-4.79,0-8.68,3.89-8.68,8.67s3.89,8.68,8.68,8.68,8.67-3.89,8.67-8.68-3.89-8.67-8.67-8.67Z"/>
    <path class="cls-1" d="m66,54.58c-8.65,0-15.68-7.03-15.68-15.68s7.03-15.67,15.68-15.67,15.67,7.03,15.67,15.67-7.03,15.68-15.67,15.68Zm0-24.35c-4.79,0-8.68,3.89-8.68,8.67s3.89,8.68,8.68,8.68,8.67-3.89,8.67-8.68-3.89-8.67-8.67-8.67Z"/>
  </g>
</svg>