<svg width="97" height="86" viewBox="0 0 97 86" fill="none" xmlns="http://www.w3.org/2000/svg">
<g clip-path="url(#clip0_178_295)">
<path d="M97.0378 29.6099H91.1384V47.3002H97.0378V29.6099Z" fill="#AEAEAE"/>
<path d="M24.8457 86.0002H0.0756836V80.1537H22.3876L45.7205 56.4283L55.6285 66.3108L90.609 31.4204L94.7689 35.5695L55.6285 74.6467L45.7583 64.7643L24.8457 86.0002Z" fill="#AEAEAE"/>
<path d="M94.0882 29.6099H77.9783V35.4941H94.0882V29.6099Z" fill="#AEAEAE"/>
<path d="M19.5513 86.0002H0V28.252H27.1524V80.4932H21.253V34.1362H5.89942V80.1537H19.5513V86.0002Z" fill="#AEAEAE"/>
<path d="M27.1523 81.9262H21.2529V14.2578H48.3675V60.5771H42.5059V20.142H27.1523V81.9262Z" fill="#AEAEAE"/>
<path d="M48.3677 60.5772H42.5061V0H69.6207V59.6719H63.7591V5.88421H48.3677V60.5772Z" fill="#AEAEAE"/>
</g>
<defs>
<clipPath id="clip0_178_295">
<rect width="97" height="86" fill="white"/>
</clipPath>
</defs>
</svg>
