<?xml version="1.0" encoding="UTF-8"?>
<svg id="Camada_1" data-name="Camada 1" xmlns="http://www.w3.org/2000/svg" viewBox="0 0 108.87 110.51">
  <defs>
    <style>
      .cls-1 {
        fill: #fcc505;
        stroke-width: 0px;
      }
    </style>
  </defs>
  <path class="cls-1" d="m45.39,109.49c-6.48,0-12.53-3.3-16.09-8.61-.84.11-1.7.17-2.57.17-10.66,0-19.34-8.68-19.34-19.35,0-.85.06-1.7.17-2.53-4.71-3.63-7.56-9.3-7.56-15.35,0-2.99.68-5.91,1.99-8.56-1.31-2.65-1.99-5.57-1.99-8.56,0-6.04,2.84-11.72,7.56-15.34-.11-.84-.17-1.68-.17-2.54,0-10.67,8.68-19.35,19.34-19.35.87,0,1.72.06,2.57.17,3.56-5.3,9.61-8.61,16.09-8.61,10.66,0,19.34,8.68,19.34,19.35,0,.15,0,.29,0,.44v69.32c0,10.67-8.67,19.35-19.33,19.35Zm-12.44-16.75l1.28,2.69c2.07,4.35,6.35,7.06,11.16,7.06,6.8,0,12.34-5.54,12.34-12.35V20.55s0-.11,0-.11c0-6.89-5.54-12.42-12.34-12.42-4.81,0-9.09,2.7-11.16,7.06l-1.28,2.69-2.86-.83c-1.07-.31-2.2-.47-3.36-.47-6.8,0-12.34,5.54-12.34,12.35,0,1.1.14,2.18.43,3.22l.71,2.61-2.34,1.35c-3.81,2.19-6.18,6.29-6.18,10.71,0,2.38.68,4.68,1.95,6.67l1.22,1.89-1.22,1.89c-1.28,1.99-1.95,4.29-1.95,6.67,0,4.41,2.37,8.51,6.18,10.71l2.34,1.35-.71,2.61c-.28,1.04-.43,2.12-.43,3.22,0,6.81,5.54,12.35,12.34,12.35,1.16,0,2.29-.16,3.36-.47l2.86-.84Z"/>
  <g>
    <path class="cls-1" d="m87.15,25.8c-7.11,0-12.9-5.79-12.9-12.9S80.03,0,87.15,0s12.9,5.79,12.9,12.9-5.79,12.9-12.9,12.9Zm0-18.8c-3.25,0-5.9,2.65-5.9,5.9s2.65,5.9,5.9,5.9,5.9-2.65,5.9-5.9-2.65-5.9-5.9-5.9Z"/>
    <path class="cls-1" d="m95.97,68.09c-7.11,0-12.9-5.79-12.9-12.9s5.79-12.9,12.9-12.9,12.9,5.79,12.9,12.9-5.79,12.9-12.9,12.9Zm0-18.8c-3.25,0-5.9,2.65-5.9,5.9s2.65,5.9,5.9,5.9,5.9-2.65,5.9-5.9-2.65-5.9-5.9-5.9Z"/>
    <path class="cls-1" d="m87.15,110.51c-7.11,0-12.9-5.79-12.9-12.9s5.79-12.9,12.9-12.9,12.9,5.79,12.9,12.9-5.79,12.9-12.9,12.9Zm0-18.8c-3.25,0-5.9,2.65-5.9,5.9s2.65,5.9,5.9,5.9,5.9-2.65,5.9-5.9-2.65-5.9-5.9-5.9Z"/>
    <path class="cls-1" d="m79.06,41.47h-34.26c-6.39,0-11.58-5.2-11.58-11.58v-5.02h7v5.02c0,2.53,2.06,4.58,4.58,4.58h34.26c2.53,0,4.59-2.06,4.59-4.58v-7.58h7v7.58c0,6.39-5.2,11.58-11.59,11.58Z"/>
    <path class="cls-1" d="m90.65,88.22h-7v-7.59c0-2.53-2.06-4.58-4.59-4.58h-34.26c-2.53,0-4.58,2.06-4.58,4.58v5.02h-7v-5.02c0-6.39,5.2-11.58,11.58-11.58h34.26c6.39,0,11.59,5.2,11.59,11.58v7.59Z"/>
    <rect class="cls-1" x="28.93" y="51.76" width="57.64" height="7"/>
  </g>
</svg>