<?xml version="1.0" encoding="UTF-8"?>
<svg id="Camada_1" data-name="Camada 1" xmlns="http://www.w3.org/2000/svg" xmlns:xlink="http://www.w3.org/1999/xlink" viewBox="0 0 3177.19 3178.43">
  <defs>
    <style>
      .cls-1 {
        fill: #ffc000;
      }

      .cls-1, .cls-2, .cls-3, .cls-4, .cls-5, .cls-6, .cls-7, .cls-8, .cls-9, .cls-10, .cls-11, .cls-12, .cls-13, .cls-14, .cls-15, .cls-16 {
        stroke-width: 0px;
      }

      .cls-2 {
        fill: url(#Gradiente_sem_nome_5-2);
      }

      .cls-3 {
        fill: url(#Gradiente_sem_nome_5-4);
      }

      .cls-17 {
        letter-spacing: -.13em;
      }

      .cls-18 {
        letter-spacing: -.04em;
      }

      .cls-4 {
        fill: #fcc505;
      }

      .cls-19 {
        stroke: #aaa;
        stroke-dasharray: 0 0 29.91 29.91;
        stroke-miterlimit: 10;
        stroke-width: 15px;
      }

      .cls-19, .cls-5 {
        fill: none;
      }

      .cls-20 {
        letter-spacing: 0em;
      }

      .cls-6 {
        fill: url(#Gradiente_sem_nome_5-3);
      }

      .cls-21 {
        letter-spacing: -.04em;
      }

      .cls-22 {
        letter-spacing: -.13em;
      }

      .cls-7 {
        fill: #fff;
      }

      .cls-23 {
        fill: #241f21;
        font-family: Capitana-Extrabold, Capitana;
        font-size: 40px;
        font-weight: 700;
      }

      .cls-8 {
        fill: url(#Gradiente_sem_nome_5-5);
      }

      .cls-9 {
        fill: url(#Gradiente_sem_nome_5-8);
      }

      .cls-10 {
        fill: url(#Gradiente_sem_nome_5-7);
      }

      .cls-11 {
        fill: #242223;
      }

      .cls-12 {
        fill: url(#Gradiente_sem_nome_5-9);
      }

      .cls-13 {
        fill: #ffe699;
      }

      .cls-14 {
        fill: url(#Gradiente_sem_nome_5);
      }

      .cls-15 {
        fill: #afabaa;
      }

      .cls-16 {
        fill: url(#Gradiente_sem_nome_5-6);
      }
    </style>
    <linearGradient id="Gradiente_sem_nome_5" data-name="Gradiente sem nome 5" x1="495.31" y1="1438.81" x2="495.31" y2="1861.62" gradientUnits="userSpaceOnUse">
      <stop offset="0" stop-color="#262626"/>
      <stop offset="1" stop-color="#0d0d0d"/>
    </linearGradient>
    <linearGradient id="Gradiente_sem_nome_5-2" data-name="Gradiente sem nome 5" x1="1694.8" y1="239.44" x2="1694.8" y2="662.25" xlink:href="#Gradiente_sem_nome_5"/>
    <linearGradient id="Gradiente_sem_nome_5-3" data-name="Gradiente sem nome 5" x1="978.67" y1="474.44" x2="978.67" y2="897.25" xlink:href="#Gradiente_sem_nome_5"/>
    <linearGradient id="Gradiente_sem_nome_5-4" data-name="Gradiente sem nome 5" x1="1694.8" y1="2638.42" x2="1694.8" y2="3061.23" xlink:href="#Gradiente_sem_nome_5"/>
    <linearGradient id="Gradiente_sem_nome_5-5" data-name="Gradiente sem nome 5" x1="1341.17" y1="2057.32" x2="1341.17" y2="2480.13" xlink:href="#Gradiente_sem_nome_5"/>
    <linearGradient id="Gradiente_sem_nome_5-6" data-name="Gradiente sem nome 5" x1="2048.42" y1="2057.32" x2="2048.42" y2="2480.13" xlink:href="#Gradiente_sem_nome_5"/>
    <linearGradient id="Gradiente_sem_nome_5-7" data-name="Gradiente sem nome 5" x1="1114.1" y1="1318.93" x2="1114.1" y2="1741.74" xlink:href="#Gradiente_sem_nome_5"/>
    <linearGradient id="Gradiente_sem_nome_5-8" data-name="Gradiente sem nome 5" x1="2275.49" y1="1318.93" x2="2275.49" y2="1741.74" xlink:href="#Gradiente_sem_nome_5"/>
    <linearGradient id="Gradiente_sem_nome_5-9" data-name="Gradiente sem nome 5" x1="2436.93" y1="1781.57" x2="2436.93" y2="2204.38" xlink:href="#Gradiente_sem_nome_5"/>
  </defs>
  <g>
    <g>
      <path class="cls-7" d="m1502.29,1661.81v-36.95h6.83v36.95h-6.83Z"/>
      <path class="cls-7" d="m1526.87,1662.43c-2.5,0-4.79-.58-6.88-1.75-2.09-1.16-3.75-2.78-4.98-4.85-1.23-2.07-1.85-4.42-1.85-7.06s.62-5.04,1.85-7.11c1.23-2.07,2.89-3.69,4.98-4.85,2.09-1.16,4.38-1.75,6.88-1.75s4.96.62,7.08,1.87c2.12,1.25,3.76,2.93,4.93,5.06,1.16,2.12,1.66,4.46,1.49,7.03h-22.32v-1.03h17.45l-1.8.56c0-1.54-.28-2.88-.85-4.03-.56-1.15-1.36-2.04-2.39-2.67-1.03-.63-2.22-.95-3.59-.95s-2.57.33-3.59.98c-1.03.65-1.82,1.56-2.39,2.72-.56,1.16-.85,2.55-.85,4.16s.28,2.95.85,4.13c.56,1.18,1.36,2.09,2.39,2.72,1.03.63,2.24.95,3.64.95s2.75-.34,3.82-1.03c1.08-.68,1.91-1.66,2.49-2.93h6.83c-.99,3.15-2.61,5.57-4.85,7.26-2.24,1.69-5.02,2.54-8.34,2.54Z"/>
      <path class="cls-7" d="m1552.07,1661.81l-11.24-26.12h7.24l7.85,19.71h-1.74l7.8-19.71h7.08l-11.24,26.12h-5.75Z"/>
      <path class="cls-7" d="m1580.09,1661.81l-11.24-26.12h7.24l7.85,19.71h-1.74l7.8-19.71h7.08l-11.24,26.12h-5.75Z"/>
      <path class="cls-7" d="m1610.78,1662.43c-2.26,0-4.41-.57-6.44-1.72-2.04-1.15-3.67-2.76-4.9-4.85-1.23-2.09-1.85-4.45-1.85-7.08s.62-5.05,1.85-7.13c1.23-2.09,2.87-3.7,4.9-4.85,2.04-1.15,4.18-1.72,6.44-1.72,1.4,0,2.69.2,3.87.59,1.18.39,2.23.93,3.16,1.62.92.68,1.71,1.51,2.36,2.46l-.77,1.03v-5.08h6.42v26.12h-6.42v-5.08l.77,1.03c-1.03,1.44-2.33,2.57-3.9,3.41-1.57.84-3.4,1.26-5.49,1.26Zm1.13-6.21c1.37,0,2.62-.32,3.75-.98,1.13-.65,2.02-1.54,2.67-2.67.65-1.13.98-2.39.98-3.8s-.33-2.72-.98-3.85c-.65-1.13-1.54-2.02-2.67-2.67-1.13-.65-2.38-.98-3.75-.98s-2.62.33-3.75.98c-1.13.65-2.02,1.54-2.67,2.67-.65,1.13-.98,2.41-.98,3.85s.32,2.67.98,3.8c.65,1.13,1.54,2.02,2.67,2.67,1.13.65,2.38.98,3.75.98Z"/>
      <path class="cls-7" d="m1513.43,1709.55c-2.29,0-4.43-.57-6.42-1.72-1.98-1.15-3.56-2.72-4.72-4.72-1.16-2-1.75-4.22-1.75-6.65s.58-4.64,1.75-6.65c1.16-2,2.74-3.57,4.72-4.72,1.98-1.15,4.12-1.72,6.42-1.72,1.37,0,2.69.22,3.95.67,1.27.45,2.4,1.06,3.41,1.85,1.01.79,1.84,1.69,2.49,2.72l-.62.87v-17.4h3.85v36.95h-3.85v-5.59l.62.87c-.99,1.57-2.36,2.84-4.11,3.8-1.75.96-3.66,1.44-5.75,1.44Zm.31-3.59c1.68,0,3.22-.42,4.62-1.26,1.4-.84,2.51-1.98,3.34-3.41.82-1.44,1.23-3.05,1.23-4.82s-.41-3.39-1.23-4.82c-.82-1.44-1.93-2.57-3.34-3.41-1.4-.84-2.94-1.26-4.62-1.26s-3.22.42-4.62,1.26c-1.4.84-2.51,1.98-3.34,3.41s-1.23,3.05-1.23,4.82.41,3.39,1.23,4.82,1.93,2.57,3.34,3.41c1.4.84,2.94,1.26,4.62,1.26Z"/>
      <path class="cls-7" d="m1544.79,1709.55c-2.36,0-4.51-.57-6.44-1.72-1.93-1.15-3.45-2.71-4.54-4.7-1.1-1.98-1.64-4.21-1.64-6.67s.55-4.69,1.64-6.67c1.09-1.98,2.61-3.55,4.54-4.7,1.93-1.15,4.08-1.72,6.44-1.72s4.68.6,6.65,1.8c1.97,1.2,3.46,2.81,4.49,4.85,1.03,2.04,1.42,4.27,1.18,6.7h-22.27v-1.03h20.07l-1.59.56c0-1.95-.37-3.63-1.1-5.03-.74-1.4-1.74-2.46-3.03-3.18-1.28-.72-2.75-1.08-4.39-1.08-1.74,0-3.27.39-4.57,1.18-1.3.79-2.3,1.9-3,3.34-.7,1.44-1.05,3.1-1.05,4.98s.35,3.54,1.05,4.98c.7,1.44,1.7,2.55,3,3.34,1.3.79,2.82,1.18,4.57,1.18,1.95,0,3.61-.47,4.98-1.41,1.37-.94,2.39-2.35,3.08-4.23h4c-.89,3.01-2.38,5.3-4.46,6.88-2.09,1.57-4.62,2.36-7.6,2.36Z"/>
      <path class="cls-7" d="m1571.16,1709.55c-1.92,0-3.62-.36-5.11-1.08-1.49-.72-2.67-1.75-3.54-3.1s-1.34-2.95-1.41-4.8h3.85c.14,1.78.74,3.12,1.8,4.03,1.06.91,2.53,1.36,4.41,1.36,1.57,0,2.87-.32,3.9-.98,1.03-.65,1.54-1.57,1.54-2.77,0-.92-.27-1.67-.82-2.23-.55-.56-1.22-.98-2.03-1.26-.8-.27-1.94-.58-3.41-.92-1.85-.41-3.32-.83-4.41-1.26-1.1-.43-2.04-1.12-2.82-2.08-.79-.96-1.18-2.26-1.18-3.9,0-1.37.4-2.6,1.21-3.7.8-1.09,1.89-1.95,3.26-2.57,1.37-.62,2.87-.92,4.52-.92s3.21.34,4.59,1.03c1.39.68,2.51,1.69,3.36,3,.85,1.32,1.33,2.88,1.44,4.7h-3.85c-.17-1.71-.76-2.99-1.77-3.85-1.01-.85-2.32-1.28-3.93-1.28-1.37,0-2.51.32-3.44.95-.92.63-1.39,1.51-1.39,2.64,0,.82.26,1.49.8,2,.53.51,1.18.91,1.95,1.18.77.27,1.86.58,3.26.92,1.85.41,3.34.85,4.49,1.31,1.15.46,2.13,1.19,2.95,2.18.82.99,1.23,2.34,1.23,4.05,0,1.47-.42,2.76-1.26,3.87-.84,1.11-1.98,1.97-3.41,2.57-1.44.6-3.03.9-4.77.9Z"/>
      <path class="cls-7" d="m1597.44,1709.55c-2.36,0-4.51-.57-6.44-1.72-1.93-1.15-3.45-2.71-4.54-4.7-1.1-1.98-1.64-4.21-1.64-6.67s.55-4.69,1.64-6.67c1.09-1.98,2.61-3.55,4.54-4.7,1.93-1.15,4.08-1.72,6.44-1.72s4.68.6,6.65,1.8c1.97,1.2,3.46,2.81,4.49,4.85,1.03,2.04,1.42,4.27,1.18,6.7h-22.27v-1.03h20.07l-1.59.56c0-1.95-.37-3.63-1.1-5.03-.74-1.4-1.74-2.46-3.03-3.18-1.28-.72-2.75-1.08-4.39-1.08-1.74,0-3.27.39-4.57,1.18-1.3.79-2.3,1.9-3,3.34-.7,1.44-1.05,3.1-1.05,4.98s.35,3.54,1.05,4.98c.7,1.44,1.7,2.55,3,3.34,1.3.79,2.82,1.18,4.57,1.18,1.95,0,3.61-.47,4.98-1.41,1.37-.94,2.39-2.35,3.08-4.23h4c-.89,3.01-2.38,5.3-4.46,6.88-2.09,1.57-4.62,2.36-7.6,2.36Z"/>
      <path class="cls-7" d="m1615.2,1709.03v-25.15h3.85v5.08l-.72-.72c1.03-1.61,2.28-2.82,3.77-3.64,1.49-.82,3.12-1.23,4.9-1.23,2.02,0,3.81.49,5.36,1.46,1.56.97,2.76,2.3,3.62,3.98.85,1.68,1.28,3.54,1.28,5.59v14.63h-3.85v-14.63c0-1.47-.27-2.76-.82-3.87-.55-1.11-1.34-1.98-2.39-2.62-1.04-.63-2.28-.95-3.72-.95s-2.62.32-3.75.95c-1.13.63-2.03,1.51-2.69,2.64s-1,2.41-1,3.85v14.63h-3.85Z"/>
      <path class="cls-7" d="m1651.38,1709.03l-11.29-25.15h4.16l9.19,20.84h-1.44l9.19-20.84h4.05l-11.29,25.15h-2.57Z"/>
      <path class="cls-7" d="m1680.17,1709.55c-2.4,0-4.59-.57-6.59-1.72-2-1.15-3.59-2.72-4.77-4.72-1.18-2-1.77-4.22-1.77-6.65s.59-4.64,1.77-6.65c1.18-2,2.77-3.57,4.77-4.72,2-1.15,4.2-1.72,6.59-1.72s4.59.57,6.59,1.72c2,1.15,3.59,2.72,4.77,4.72,1.18,2,1.77,4.22,1.77,6.65s-.59,4.64-1.77,6.65c-1.18,2-2.77,3.58-4.77,4.72-2,1.15-4.2,1.72-6.59,1.72Zm0-3.59c1.68,0,3.21-.42,4.59-1.26,1.39-.84,2.49-1.98,3.31-3.41s1.23-3.05,1.23-4.82-.41-3.39-1.23-4.82-1.92-2.57-3.31-3.41c-1.39-.84-2.92-1.26-4.59-1.26s-3.21.42-4.59,1.26c-1.39.84-2.49,1.98-3.31,3.41s-1.23,3.05-1.23,4.82.41,3.39,1.23,4.82,1.92,2.57,3.31,3.41c1.39.84,2.92,1.26,4.59,1.26Z"/>
      <path class="cls-7" d="m1698.95,1709.03v-36.95h3.85v36.95h-3.85Z"/>
      <path class="cls-7" d="m1718.45,1709.03l-11.29-25.15h4.16l9.19,20.84h-1.44l9.19-20.84h4.05l-11.29,25.15h-2.57Z"/>
      <path class="cls-7" d="m1736.16,1678.5v-1.54h4.36v1.54h-4.36Zm.26,30.54v-25.15h3.85v25.15h-3.85Z"/>
      <path class="cls-7" d="m1747.45,1709.03v-25.15h3.85v5.08l-.67-.62c.85-1.64,1.97-2.88,3.34-3.72,1.37-.84,2.87-1.26,4.52-1.26,1.98,0,3.78.59,5.39,1.77,1.61,1.18,2.7,2.69,3.28,4.54h-1.03c.82-2.02,2.03-3.57,3.62-4.67,1.59-1.09,3.4-1.64,5.41-1.64,1.85,0,3.49.47,4.93,1.41,1.44.94,2.56,2.22,3.36,3.85.8,1.63,1.21,3.46,1.21,5.52v14.88h-3.85v-14.88c0-1.37-.25-2.6-.74-3.7-.5-1.1-1.21-1.95-2.13-2.57-.92-.62-2.02-.92-3.28-.92-1.2,0-2.3.32-3.31.95-1.01.63-1.82,1.5-2.44,2.59-.62,1.1-.92,2.31-.92,3.64v14.88h-3.85v-14.88c0-1.37-.25-2.6-.74-3.7-.5-1.1-1.21-1.95-2.13-2.57-.92-.62-2.02-.92-3.28-.92-1.2,0-2.3.32-3.31.95-1.01.63-1.82,1.5-2.44,2.59-.62,1.1-.92,2.31-.92,3.64v14.88h-3.85Z"/>
      <path class="cls-7" d="m1802.41,1709.55c-2.36,0-4.51-.57-6.44-1.72-1.93-1.15-3.45-2.71-4.54-4.7-1.1-1.98-1.64-4.21-1.64-6.67s.55-4.69,1.64-6.67c1.09-1.98,2.61-3.55,4.54-4.7,1.93-1.15,4.08-1.72,6.44-1.72s4.68.6,6.65,1.8c1.97,1.2,3.46,2.81,4.49,4.85,1.03,2.04,1.42,4.27,1.18,6.7h-22.27v-1.03h20.07l-1.59.56c0-1.95-.37-3.63-1.1-5.03-.74-1.4-1.74-2.46-3.03-3.18-1.28-.72-2.75-1.08-4.39-1.08-1.74,0-3.27.39-4.57,1.18-1.3.79-2.3,1.9-3,3.34-.7,1.44-1.05,3.1-1.05,4.98s.35,3.54,1.05,4.98c.7,1.44,1.7,2.55,3,3.34,1.3.79,2.82,1.18,4.57,1.18,1.95,0,3.61-.47,4.98-1.41,1.37-.94,2.39-2.35,3.08-4.23h4c-.89,3.01-2.38,5.3-4.46,6.88-2.09,1.57-4.62,2.36-7.6,2.36Z"/>
      <path class="cls-7" d="m1820.17,1709.03v-25.15h3.85v5.08l-.72-.72c1.03-1.61,2.28-2.82,3.77-3.64,1.49-.82,3.12-1.23,4.9-1.23,2.02,0,3.81.49,5.36,1.46,1.56.97,2.76,2.3,3.62,3.98.85,1.68,1.28,3.54,1.28,5.59v14.63h-3.85v-14.63c0-1.47-.27-2.76-.82-3.87-.55-1.11-1.34-1.98-2.39-2.62-1.04-.63-2.28-.95-3.72-.95s-2.62.32-3.75.95c-1.13.63-2.03,1.51-2.69,2.64s-1,2.41-1,3.85v14.63h-3.85Z"/>
      <path class="cls-7" d="m1845.83,1684.91v-1.03h14.37v1.03h-14.37Zm11.8,24.12c-1.51,0-2.84-.32-4-.95-1.16-.63-2.07-1.51-2.72-2.64-.65-1.13-.98-2.41-.98-3.85v-24.38h3.85v24.12c0,1.27.37,2.27,1.1,3,.74.74,1.74,1.1,3,1.1h2.31v3.59h-2.57Z"/>
      <path class="cls-7" d="m1875.91,1709.55c-2.4,0-4.59-.57-6.59-1.72-2-1.15-3.59-2.72-4.77-4.72-1.18-2-1.77-4.22-1.77-6.65s.59-4.64,1.77-6.65c1.18-2,2.77-3.57,4.77-4.72,2-1.15,4.2-1.72,6.59-1.72s4.59.57,6.59,1.72c2,1.15,3.59,2.72,4.77,4.72,1.18,2,1.77,4.22,1.77,6.65s-.59,4.64-1.77,6.65c-1.18,2-2.77,3.58-4.77,4.72-2,1.15-4.2,1.72-6.59,1.72Zm0-3.59c1.68,0,3.21-.42,4.59-1.26,1.39-.84,2.49-1.98,3.31-3.41s1.23-3.05,1.23-4.82-.41-3.39-1.23-4.82-1.92-2.57-3.31-3.41c-1.39-.84-2.92-1.26-4.59-1.26s-3.21.42-4.59,1.26c-1.39.84-2.49,1.98-3.31,3.41s-1.23,3.05-1.23,4.82.41,3.39,1.23,4.82,1.92,2.57,3.31,3.41c1.39.84,2.92,1.26,4.59,1.26Z"/>
    </g>
    <polygon class="cls-4" points="1674.92 1630.33 1646.82 1618.84 1646.82 1617.15 1674.92 1605.65 1674.92 1600.3 1642.31 1613.41 1642.31 1622.58 1674.92 1635.69 1674.92 1630.33"/>
    <polygon class="cls-4" points="1709.53 1605.65 1737.63 1617.15 1737.63 1618.84 1709.53 1630.34 1709.53 1635.69 1742.15 1622.58 1742.15 1613.41 1709.53 1600.3 1709.53 1605.65"/>
    <rect class="cls-4" x="1666.89" y="1613.88" width="51.79" height="5.63" transform="translate(-353.34 2753.63) rotate(-72.74)"/>
  </g>
  <circle class="cls-19" cx="1694.8" cy="1650.34" r="1199.49"/>
  <circle class="cls-14" cx="495.31" cy="1650.22" r="211.4"/>
  <circle class="cls-2" cx="1694.8" cy="450.85" r="211.4"/>
  <circle class="cls-6" cx="978.67" cy="685.84" r="211.4"/>
  <circle class="cls-3" cx="1694.8" cy="2849.83" r="211.4"/>
  <g>
    <path class="cls-11" d="m1114.1,1650.22c0-132.46,44.35-254.55,119.01-352.26l-215.73-171.52c-112.16,144.81-178.92,326.55-178.92,523.89,0,466.52,373.05,845.89,837.12,856.11v-275.85c-311.81-10.14-561.48-266.09-561.48-580.37Z"/>
    <path class="cls-11" d="m1694.8,1069.52c174.44,0,330.9,76.92,437.35,198.69l215.87-171.63c-157.08-185.11-391.42-302.59-653.21-302.59s-496.14,117.48-653.21,302.59l215.87,171.63c106.44-121.77,262.91-198.69,437.35-198.69Z"/>
    <path class="cls-11" d="m2372.21,1126.44l-215.73,171.52c74.66,97.7,119.01,219.8,119.01,352.26,0,314.28-249.67,570.23-561.48,580.37v275.85c464.06-10.22,837.12-389.59,837.12-856.11,0-197.34-66.76-379.08-178.92-523.89Z"/>
    <path class="cls-1" d="m1458.53,1650.33c0-51.45,16.46-99.06,44.38-137.86l-269.8-214.51c-74.66,97.7-119.01,219.8-119.01,352.26,0,314.28,249.67,570.23,561.48,580.37v-344.78c-121.5-9.78-217.05-111.47-217.05-235.48Z"/>
    <path class="cls-15" d="m1694.8,1414.07c65.2,0,124.22,26.41,166.97,69.11l270.38-214.97c-106.44-121.77-262.91-198.69-437.35-198.69s-330.9,76.92-437.35,198.69l270.38,214.97c42.75-42.7,101.78-69.11,166.97-69.11Z"/>
    <path class="cls-13" d="m2275.49,1650.22c0-132.46-44.35-254.55-119.01-352.26l-269.8,214.51c27.93,38.8,44.38,86.41,44.38,137.86,0,124.01-95.55,225.7-217.05,235.48v344.78c311.81-10.14,561.48-266.09,561.48-580.37Z"/>
  </g>
  <circle class="cls-8" cx="1341.17" cy="2268.72" r="211.4"/>
  <circle class="cls-16" cx="2048.42" cy="2268.72" r="211.4"/>
  <circle class="cls-10" cx="1114.1" cy="1530.34" r="211.4"/>
  <circle class="cls-9" cx="2275.49" cy="1530.34" r="211.4"/>
  <circle class="cls-12" cx="2436.93" cy="1992.98" r="211.4"/>
  <g>
    <path class="cls-7" d="m1545.07,2843.52c-3.58,0-6.88-.88-9.91-2.64-3.03-1.76-5.43-4.18-7.22-7.26-1.79-3.08-2.68-6.49-2.68-10.22s.89-7.14,2.68-10.22c1.79-3.08,4.2-5.5,7.22-7.26,3.03-1.76,6.33-2.64,9.91-2.64,2.89,0,5.61.57,8.13,1.7,2.53,1.13,4.71,2.79,6.55,4.97,1.84,2.18,3.18,4.83,4.03,7.93h-6.16c-1.05-2.89-2.71-5.13-4.97-6.71-2.26-1.58-4.79-2.37-7.58-2.37-2.47,0-4.76.65-6.87,1.93-2.11,1.29-3.76,3.04-4.97,5.25-1.21,2.21-1.82,4.68-1.82,7.42s.6,5.21,1.82,7.42c1.21,2.21,2.87,3.96,4.97,5.25,2.1,1.29,4.39,1.93,6.87,1.93,2.79,0,5.32-.79,7.58-2.37,2.26-1.58,3.92-3.82,4.97-6.71h6.16c-.84,3.11-2.18,5.75-4.03,7.93-1.84,2.18-4.03,3.84-6.55,4.97-2.53,1.13-5.24,1.7-8.13,1.7Z"/>
    <path class="cls-7" d="m1587.54,2843.52c-3.68,0-7.07-.88-10.14-2.64-3.08-1.76-5.53-4.18-7.34-7.26-1.82-3.08-2.72-6.49-2.72-10.22s.91-7.14,2.72-10.22c1.82-3.08,4.26-5.5,7.34-7.26,3.08-1.76,6.46-2.64,10.14-2.64s7.07.88,10.14,2.64c3.08,1.76,5.53,4.18,7.34,7.26,1.82,3.08,2.72,6.49,2.72,10.22s-.91,7.14-2.72,10.22c-1.82,3.08-4.26,5.5-7.34,7.26-3.08,1.76-6.46,2.64-10.14,2.64Zm0-5.53c2.58,0,4.93-.64,7.07-1.93,2.13-1.29,3.83-3.04,5.09-5.25,1.26-2.21,1.89-4.68,1.89-7.42s-.63-5.21-1.89-7.42c-1.26-2.21-2.96-3.96-5.09-5.25-2.13-1.29-4.49-1.93-7.07-1.93s-4.93.65-7.07,1.93c-2.13,1.29-3.83,3.04-5.09,5.25-1.26,2.21-1.89,4.68-1.89,7.42s.63,5.21,1.89,7.42c1.26,2.21,2.96,3.96,5.09,5.25,2.13,1.29,4.49,1.93,7.07,1.93Z"/>
    <path class="cls-7" d="m1614.46,2842.73v-38.68h5.92v7.82l-1.03-.95c1.31-2.53,3.03-4.43,5.13-5.72,2.1-1.29,4.42-1.93,6.95-1.93,3.05,0,5.81.91,8.29,2.72,2.47,1.82,4.16,4.14,5.05,6.99h-1.58c1.26-3.1,3.12-5.5,5.57-7.18,2.45-1.68,5.22-2.53,8.33-2.53,2.84,0,5.37.72,7.58,2.17,2.21,1.45,3.93,3.42,5.17,5.92,1.24,2.5,1.86,5.33,1.86,8.49v22.89h-5.92v-22.89c0-2.1-.38-4-1.14-5.68-.76-1.68-1.86-3-3.28-3.95-1.42-.95-3.11-1.42-5.05-1.42-1.84,0-3.54.49-5.09,1.46-1.55.97-2.8,2.3-3.75,3.99-.95,1.68-1.42,3.55-1.42,5.61v22.89h-5.92v-22.89c0-2.1-.38-4-1.14-5.68-.76-1.68-1.86-3-3.28-3.95-1.42-.95-3.11-1.42-5.05-1.42-1.84,0-3.54.49-5.09,1.46-1.55.97-2.8,2.3-3.75,3.99-.95,1.68-1.42,3.55-1.42,5.61v22.89h-5.92Z"/>
    <path class="cls-7" d="m1680.38,2795.76v-2.37h6.71v2.37h-6.71Zm.39,46.97v-38.68h5.92v38.68h-5.92Z"/>
    <path class="cls-7" d="m1691.03,2805.63v-1.58h22.1v1.58h-22.1Zm18.16,37.1c-2.32,0-4.37-.49-6.16-1.46-1.79-.97-3.18-2.33-4.18-4.07-1-1.74-1.5-3.71-1.5-5.92v-37.5h5.92v37.1c0,1.95.56,3.49,1.7,4.62,1.13,1.13,2.67,1.7,4.62,1.7h3.55v5.53h-3.95Z"/>
    <path class="cls-7" d="m1734.93,2843.52c-3.63,0-6.93-.88-9.91-2.64-2.97-1.76-5.3-4.17-6.99-7.22-1.68-3.05-2.53-6.47-2.53-10.26s.84-7.21,2.53-10.26c1.68-3.05,4.01-5.46,6.99-7.22,2.97-1.76,6.28-2.64,9.91-2.64s7.2.92,10.22,2.76c3.03,1.84,5.33,4.33,6.91,7.46,1.58,3.13,2.18,6.57,1.82,10.3h-34.26v-1.58h30.87l-2.45.87c0-3-.57-5.58-1.7-7.74-1.13-2.16-2.68-3.79-4.66-4.89-1.97-1.11-4.22-1.66-6.75-1.66-2.68,0-5.03.61-7.03,1.82-2,1.21-3.54,2.92-4.62,5.13-1.08,2.21-1.62,4.76-1.62,7.66s.54,5.45,1.62,7.66c1.08,2.21,2.62,3.92,4.62,5.13,2,1.21,4.34,1.82,7.03,1.82,3,0,5.55-.72,7.66-2.17,2.1-1.45,3.68-3.62,4.74-6.51h6.16c-1.37,4.63-3.66,8.16-6.87,10.58-3.21,2.42-7.11,3.63-11.68,3.63Zm-11.53-45.79v-2.45l10.42-4.66h2.05l10.42,4.66v2.45l-11.45-5.13-11.45,5.13Z"/>
    <path class="cls-7" d="m1798.63,2843.52c-3.53,0-6.82-.88-9.87-2.64-3.05-1.76-5.47-4.18-7.26-7.26-1.79-3.08-2.68-6.49-2.68-10.22s.89-7.14,2.68-10.22c1.79-3.08,4.21-5.5,7.26-7.26,3.05-1.76,6.34-2.64,9.87-2.64,2.1,0,4.13.34,6.08,1.03,1.95.68,3.7,1.63,5.25,2.84,1.55,1.21,2.83,2.61,3.83,4.18l-.95,1.34v-26.76h5.92v56.84h-5.92v-8.6l.95,1.34c-1.53,2.42-3.63,4.37-6.32,5.84-2.68,1.47-5.63,2.21-8.84,2.21Zm.47-5.53c2.58,0,4.95-.64,7.11-1.93,2.16-1.29,3.87-3.04,5.13-5.25s1.89-4.68,1.89-7.42-.63-5.21-1.89-7.42c-1.26-2.21-2.97-3.96-5.13-5.25-2.16-1.29-4.53-1.93-7.11-1.93s-4.95.65-7.1,1.93c-2.16,1.29-3.87,3.04-5.13,5.25-1.26,2.21-1.89,4.68-1.89,7.42s.63,5.21,1.89,7.42c1.26,2.21,2.97,3.96,5.13,5.25,2.16,1.29,4.53,1.93,7.1,1.93Z"/>
    <path class="cls-7" d="m1845.29,2843.52c-3.63,0-6.93-.88-9.91-2.64-2.97-1.76-5.3-4.17-6.99-7.22-1.68-3.05-2.53-6.47-2.53-10.26s.84-7.21,2.53-10.26c1.68-3.05,4.01-5.46,6.99-7.22,2.97-1.76,6.28-2.64,9.91-2.64s7.2.92,10.22,2.76c3.03,1.84,5.33,4.33,6.91,7.46,1.58,3.13,2.18,6.57,1.82,10.3h-34.26v-1.58h30.87l-2.45.87c0-3-.57-5.58-1.7-7.74-1.13-2.16-2.68-3.79-4.66-4.89-1.97-1.11-4.22-1.66-6.75-1.66-2.68,0-5.03.61-7.03,1.82-2,1.21-3.54,2.92-4.62,5.13-1.08,2.21-1.62,4.76-1.62,7.66s.54,5.45,1.62,7.66c1.08,2.21,2.62,3.92,4.62,5.13,2,1.21,4.34,1.82,7.03,1.82,3,0,5.55-.72,7.66-2.17,2.1-1.45,3.68-3.62,4.74-6.51h6.16c-1.37,4.63-3.66,8.16-6.87,10.58-3.21,2.42-7.11,3.63-11.68,3.63Z"/>
    <path class="cls-4" d="m1527.46,2864.87v-2.37h8.76v2.37h-8.76Zm.32,47.68v-39.39h8.21v39.39h-8.21Z"/>
    <path class="cls-4" d="m1544.99,2912.56v-39.39h7.89v7.5l-1.18-1.18c1.63-2.37,3.58-4.16,5.84-5.37,2.26-1.21,4.79-1.82,7.58-1.82,3.1,0,5.88.75,8.33,2.25,2.45,1.5,4.34,3.54,5.68,6.12,1.34,2.58,2.01,5.47,2.01,8.68v23.21h-8.21v-22.26c0-2.1-.38-3.93-1.14-5.49-.76-1.55-1.86-2.78-3.28-3.67-1.42-.89-3.13-1.34-5.13-1.34-1.89,0-3.62.45-5.17,1.34-1.55.9-2.78,2.13-3.67,3.71-.9,1.58-1.34,3.39-1.34,5.45v22.26h-8.21Z"/>
    <path class="cls-4" d="m1608.06,2913.43c-3.74,0-7.21-.88-10.42-2.64-3.21-1.76-5.78-4.21-7.7-7.34-1.92-3.13-2.88-6.67-2.88-10.62s.96-7.41,2.88-10.54c1.92-3.13,4.49-5.58,7.7-7.34,3.21-1.76,6.68-2.64,10.42-2.64s7.21.88,10.42,2.64c3.21,1.76,5.78,4.21,7.7,7.34,1.92,3.13,2.88,6.64,2.88,10.54s-.96,7.49-2.88,10.62c-1.92,3.13-4.49,5.58-7.7,7.34-3.21,1.76-6.68,2.64-10.42,2.64Zm0-7.5c2.32,0,4.43-.58,6.36-1.74,1.92-1.16,3.45-2.72,4.58-4.7,1.13-1.97,1.7-4.2,1.7-6.67s-.57-4.63-1.7-6.63c-1.13-2-2.66-3.56-4.58-4.7-1.92-1.13-4.04-1.7-6.36-1.7s-4.5.57-6.39,1.7c-1.89,1.13-3.41,2.7-4.54,4.7-1.13,2-1.7,4.21-1.7,6.63s.56,4.7,1.7,6.67c1.13,1.97,2.64,3.54,4.54,4.7,1.89,1.16,4.03,1.74,6.39,1.74Z"/>
    <path class="cls-4" d="m1647.3,2912.56l-17.29-39.39h8.76l13.1,31.1h-2.45l13.1-31.1h8.53l-17.29,39.39h-6.47Z"/>
    <path class="cls-4" d="m1692.14,2913.43c-3.53,0-6.83-.88-9.91-2.64-3.08-1.76-5.54-4.22-7.38-7.38-1.84-3.16-2.76-6.68-2.76-10.58s.92-7.41,2.76-10.54c1.84-3.13,4.3-5.58,7.38-7.34,3.08-1.76,6.38-2.64,9.91-2.64,2.1,0,4.09.32,5.96.95,1.87.63,3.55,1.51,5.05,2.64,1.5,1.13,2.75,2.46,3.75,3.99l-1.11,1.42v-8.13h7.97v39.39h-7.97v-8.21l1.11,1.5c-1.53,2.32-3.57,4.16-6.12,5.53-2.55,1.37-5.43,2.05-8.64,2.05Zm1.03-7.5c2.37,0,4.53-.58,6.47-1.74,1.95-1.16,3.49-2.72,4.62-4.7,1.13-1.97,1.7-4.2,1.7-6.67s-.57-4.63-1.7-6.63c-1.13-2-2.67-3.56-4.62-4.7-1.95-1.13-4.11-1.7-6.47-1.7s-4.45.57-6.39,1.7c-1.95,1.13-3.49,2.7-4.62,4.7-1.13,2-1.7,4.21-1.7,6.63s.56,4.7,1.7,6.67c1.13,1.97,2.67,3.54,4.62,4.7,1.95,1.16,4.08,1.74,6.39,1.74Z"/>
    <path class="cls-4" d="m1740.69,2913.43c-3.63,0-7.04-.88-10.22-2.64-3.18-1.76-5.72-4.21-7.62-7.34-1.89-3.13-2.84-6.67-2.84-10.62s.95-7.41,2.84-10.54c1.89-3.13,4.43-5.58,7.62-7.34,3.18-1.76,6.59-2.64,10.22-2.64,3.1,0,6.01.61,8.72,1.82,2.71,1.21,5.04,2.97,6.99,5.29,1.95,2.32,3.32,5.13,4.11,8.45h-8.45c-.9-2.53-2.37-4.5-4.42-5.92-2.05-1.42-4.37-2.13-6.95-2.13-2.26,0-4.34.57-6.24,1.7-1.89,1.13-3.38,2.7-4.46,4.7-1.08,2-1.62,4.21-1.62,6.63s.54,4.7,1.62,6.67c1.08,1.97,2.57,3.54,4.46,4.7,1.89,1.16,3.97,1.74,6.24,1.74,2.58,0,4.89-.71,6.95-2.13,2.05-1.42,3.53-3.39,4.42-5.92h8.45c-.79,3.26-2.16,6.07-4.11,8.41-1.95,2.34-4.28,4.12-6.99,5.33-2.71,1.21-5.62,1.82-8.72,1.82Zm-4.66,15.55v-2.29h4.03c1.42,0,2.51-.33,3.28-.99.76-.66,1.14-1.59,1.14-2.8s-.38-2.07-1.14-2.72c-.76-.66-1.86-.99-3.28-.99h-3.32v-1.26l4.18-8.13,1.82,1.5-3.71,6.95-.55-1.34h1.5c2.05,0,3.7.56,4.93,1.7,1.24,1.13,1.86,2.57,1.86,4.3s-.62,3.25-1.86,4.38c-1.24,1.13-2.88,1.7-4.93,1.7h-3.95Z"/>
    <path class="cls-4" d="m1783.87,2913.43c-3.53,0-6.83-.88-9.91-2.64-3.08-1.76-5.54-4.22-7.38-7.38-1.84-3.16-2.76-6.68-2.76-10.58s.92-7.41,2.76-10.54c1.84-3.13,4.3-5.58,7.38-7.34,3.08-1.76,6.38-2.64,9.91-2.64,2.1,0,4.09.32,5.96.95,1.87.63,3.55,1.51,5.05,2.64,1.5,1.13,2.75,2.46,3.75,3.99l-1.11,1.42v-8.13h7.97v39.39h-7.97v-8.21l1.11,1.5c-1.53,2.32-3.57,4.16-6.12,5.53-2.55,1.37-5.43,2.05-8.64,2.05Zm1.03-7.5c2.37,0,4.53-.58,6.47-1.74,1.95-1.16,3.49-2.72,4.62-4.7,1.13-1.97,1.7-4.2,1.7-6.67s-.57-4.63-1.7-6.63c-1.13-2-2.67-3.56-4.62-4.7-1.95-1.13-4.11-1.7-6.47-1.7s-4.45.57-6.39,1.7c-1.95,1.13-3.49,2.7-4.62,4.7-1.13,2-1.7,4.21-1.7,6.63s.56,4.7,1.7,6.67c1.13,1.97,2.67,3.54,4.62,4.7,1.95,1.16,4.08,1.74,6.39,1.74Zm-9.55-40.42c0-1.84.54-3.32,1.62-4.42,1.08-1.11,2.46-1.66,4.14-1.66,1.11,0,2.05.19,2.84.55.79.37,1.68.95,2.68,1.74.89.63,1.67,1.12,2.33,1.46.66.34,1.35.51,2.09.51,1.11,0,1.97-.36,2.61-1.07.63-.71.95-1.62.95-2.72v-.47h2.29v.47c0,1.79-.55,3.25-1.66,4.38-1.11,1.13-2.5,1.7-4.18,1.7-1.05,0-1.99-.2-2.8-.59-.82-.39-1.72-.99-2.72-1.78-.9-.63-1.66-1.12-2.29-1.46-.63-.34-1.34-.51-2.13-.51-1.05,0-1.89.34-2.53,1.03-.63.68-.95,1.63-.95,2.84v.47h-2.29v-.47Z"/>
    <path class="cls-4" d="m1832.73,2913.43c-3.74,0-7.21-.88-10.42-2.64-3.21-1.76-5.78-4.21-7.7-7.34-1.92-3.13-2.88-6.67-2.88-10.62s.96-7.41,2.88-10.54c1.92-3.13,4.49-5.58,7.7-7.34,3.21-1.76,6.68-2.64,10.42-2.64s7.21.88,10.42,2.64c3.21,1.76,5.78,4.21,7.7,7.34,1.92,3.13,2.88,6.64,2.88,10.54s-.96,7.49-2.88,10.62c-1.92,3.13-4.49,5.58-7.7,7.34-3.21,1.76-6.68,2.64-10.42,2.64Zm0-7.5c2.32,0,4.43-.58,6.36-1.74,1.92-1.16,3.45-2.72,4.58-4.7,1.13-1.97,1.7-4.2,1.7-6.67s-.57-4.63-1.7-6.63c-1.13-2-2.66-3.56-4.58-4.7-1.92-1.13-4.04-1.7-6.36-1.7s-4.5.57-6.39,1.7c-1.89,1.13-3.41,2.7-4.54,4.7-1.13,2-1.7,4.21-1.7,6.63s.56,4.7,1.7,6.67c1.13,1.97,2.64,3.54,4.54,4.7,1.89,1.16,4.03,1.74,6.39,1.74Z"/>
  </g>
  <g>
    <polygon class="cls-4" points="491.08 1631.13 474.21 1672.38 471.72 1672.38 454.85 1631.13 446.99 1631.13 466.23 1679 479.7 1679 498.94 1631.13 491.08 1631.13"/>
    <polygon class="cls-7" points="465.11 1631.13 448.24 1672.38 445.75 1672.38 428.88 1631.13 421.02 1631.13 440.26 1679 453.73 1679 472.97 1631.13 465.11 1631.13"/>
    <g>
      <path class="cls-7" d="m317.29,1678.47v-46.8h9.38v8.91l-1.41-1.41c1.94-2.81,4.25-4.94,6.94-6.38,2.69-1.44,5.69-2.16,9-2.16,3.69,0,6.99.89,9.9,2.67,2.91,1.78,5.16,4.21,6.75,7.27,1.59,3.06,2.39,6.5,2.39,10.32v27.58h-9.75v-26.45c0-2.5-.45-4.67-1.36-6.52-.91-1.84-2.2-3.3-3.89-4.36-1.69-1.06-3.72-1.59-6.1-1.59-2.25,0-4.3.53-6.14,1.59-1.85,1.06-3.3,2.53-4.36,4.41-1.06,1.88-1.59,4.03-1.59,6.47v26.45h-9.75Z"/>
      <path class="cls-7" d="m391.39,1679.5c-4.44,0-8.5-1.05-12.19-3.14-3.69-2.09-6.6-5-8.72-8.72-2.13-3.72-3.19-7.93-3.19-12.62s1.06-8.88,3.19-12.57c2.13-3.69,5.03-6.58,8.72-8.68,3.69-2.09,7.75-3.14,12.19-3.14s8.72,1.11,12.47,3.33c3.75,2.22,6.63,5.22,8.63,9,2,3.78,2.81,7.96,2.44,12.52h-40.8v-1.88h34.33l-3.1,1.13c0-3.19-.59-5.96-1.78-8.3-1.19-2.34-2.83-4.13-4.92-5.35-2.1-1.22-4.52-1.83-7.27-1.83s-5.38.64-7.5,1.92c-2.13,1.28-3.77,3.13-4.92,5.53-1.16,2.41-1.74,5.17-1.74,8.3s.58,5.97,1.74,8.35c1.16,2.38,2.8,4.22,4.92,5.53,2.13,1.31,4.63,1.97,7.5,1.97,3.13,0,5.8-.73,8.02-2.2,2.22-1.47,3.92-3.67,5.11-6.61h9.85c-1.69,5.63-4.52,9.94-8.49,12.94-3.97,3-8.8,4.5-14.49,4.5Z"/>
      <path class="cls-7" d="m533.85,1679.5c-3.81,0-7.24-.81-10.27-2.44-3.03-1.63-5.46-3.81-7.27-6.57l1.22-1.78v9.75h-9.38v-67.53h9.75v30.2l-1.41-1.78c1.81-2.69,4.22-4.81,7.22-6.38,3-1.56,6.38-2.34,10.13-2.34,4.13,0,8.03,1.05,11.72,3.14,3.69,2.1,6.63,5,8.82,8.72,2.19,3.72,3.28,7.89,3.28,12.52s-1.09,8.82-3.28,12.57c-2.19,3.75-5.13,6.68-8.82,8.77-3.69,2.1-7.6,3.14-11.72,3.14Zm-1.22-8.91c2.75,0,5.28-.69,7.6-2.06,2.31-1.37,4.14-3.24,5.49-5.58,1.34-2.34,2.02-4.99,2.02-7.93s-.67-5.5-2.02-7.88c-1.35-2.38-3.17-4.24-5.49-5.58-2.31-1.34-4.85-2.02-7.6-2.02s-5.39.67-7.74,2.02c-2.34,1.35-4.19,3.21-5.53,5.58-1.35,2.38-2.02,5-2.02,7.88s.67,5.58,2.02,7.93c1.34,2.34,3.19,4.21,5.53,5.58,2.34,1.38,4.92,2.06,7.74,2.06Z"/>
      <path class="cls-7" d="m564.71,1621.82v-2.81h10.41v2.81h-10.41Zm.38,56.65v-46.8h9.75v46.8h-9.75Z"/>
      <path class="cls-7" d="m606.45,1679.5c-4.44,0-8.5-1.05-12.19-3.14-3.69-2.09-6.6-5-8.72-8.72-2.13-3.72-3.19-7.93-3.19-12.62s1.06-8.88,3.19-12.57c2.13-3.69,5.03-6.58,8.72-8.68,3.69-2.09,7.75-3.14,12.19-3.14s8.72,1.11,12.47,3.33c3.75,2.22,6.63,5.22,8.63,9,2,3.78,2.81,7.96,2.44,12.52h-40.8v-1.88h34.33l-3.1,1.13c0-3.19-.6-5.96-1.78-8.3-1.19-2.34-2.83-4.13-4.92-5.35-2.1-1.22-4.52-1.83-7.27-1.83s-5.38.64-7.5,1.92c-2.13,1.28-3.77,3.13-4.92,5.53-1.16,2.41-1.74,5.17-1.74,8.3s.58,5.97,1.74,8.35c1.16,2.38,2.8,4.22,4.92,5.53,2.13,1.31,4.63,1.97,7.5,1.97,3.13,0,5.8-.73,8.02-2.2,2.22-1.47,3.92-3.67,5.11-6.61h9.85c-1.69,5.63-4.52,9.94-8.49,12.94-3.97,3-8.8,4.5-14.49,4.5Z"/>
      <path class="cls-7" d="m654.85,1679.5c-3.82,0-7.18-.69-10.08-2.06s-5.22-3.33-6.94-5.86c-1.72-2.53-2.64-5.49-2.77-8.86h9.47c.25,2.81,1.25,4.96,3,6.42,1.75,1.47,4.19,2.2,7.32,2.2,2.56,0,4.66-.52,6.28-1.55,1.63-1.03,2.44-2.49,2.44-4.36,0-1.44-.47-2.61-1.41-3.52-.94-.91-2.1-1.59-3.47-2.06-1.38-.47-3.32-.98-5.82-1.55-3.5-.75-6.32-1.55-8.44-2.39-2.13-.84-3.97-2.2-5.53-4.08-1.56-1.88-2.34-4.44-2.34-7.69,0-2.56.78-4.88,2.34-6.94,1.56-2.06,3.69-3.67,6.38-4.83,2.69-1.16,5.69-1.74,9-1.74s6.24.64,8.96,1.92c2.72,1.28,4.91,3.14,6.57,5.58,1.66,2.44,2.58,5.32,2.77,8.63h-9.38c-.25-2.63-1.19-4.61-2.81-5.96-1.63-1.34-3.75-2.02-6.38-2.02-2.25,0-4.1.55-5.53,1.66-1.44,1.11-2.16,2.62-2.16,4.54,0,1.5.44,2.71,1.31,3.63.87.93,2,1.66,3.38,2.19,1.37.54,3.25,1.12,5.63,1.76,3.5.71,6.36,1.47,8.58,2.3,2.22.82,4.13,2.13,5.72,3.93,1.59,1.8,2.39,4.25,2.39,7.37,0,2.71-.8,5.06-2.39,7.06-1.59,2-3.8,3.55-6.61,4.63-2.81,1.09-5.97,1.63-9.47,1.63Z"/>
    </g>
  </g>
  <g>
    <g>
      <polygon class="cls-4" points="2158.44 2249.81 2152.51 2264.3 2151.64 2264.3 2145.71 2249.81 2142.95 2249.81 2149.71 2266.62 2154.44 2266.62 2161.2 2249.81 2158.44 2249.81"/>
      <polygon class="cls-4" points="2145.71 2343.72 2151.64 2329.24 2152.51 2329.24 2158.44 2343.72 2161.2 2343.72 2154.44 2326.91 2149.71 2326.91 2142.95 2343.72 2145.71 2343.72"/>
      <polygon class="cls-4" points="2199.35 2302.82 2184.86 2296.89 2184.86 2296.02 2199.35 2290.09 2199.35 2287.33 2182.53 2294.09 2182.53 2298.82 2199.35 2305.58 2199.35 2302.82"/>
      <g>
        <path class="cls-4" d="m2125.8,2270.11c4.46-4.45,10.03-7.78,16.26-9.52l-1.2-2.99c-5.62,1.62-10.73,4.44-15.06,8.14v4.37Z"/>
        <path class="cls-4" d="m2187.94,2286.44l2.99-1.2c-3.85-13.3-14.34-23.8-27.64-27.64l-1.2,2.99c12.5,3.49,22.36,13.35,25.85,25.85Z"/>
        <path class="cls-4" d="m2162.09,2332.32l1.2,2.99c13.3-3.85,23.8-14.34,27.64-27.64l-2.99-1.2c-3.49,12.5-13.35,22.36-25.85,25.85Z"/>
        <path class="cls-4" d="m2123.42,2320.19h-4.07c5.23,7.19,12.76,12.6,21.51,15.13l1.2-2.99c-7.4-2.07-13.87-6.38-18.64-12.14Z"/>
      </g>
    </g>
    <path class="cls-7" d="m1901.22,2250.99v-57.28h6.73v57.28h-6.73Z"/>
    <path class="cls-7" d="m1951.57,2231.21c0,.62-.02,1.25-.07,1.9-.04.64-.09,1.21-.13,1.7h-28.44c.13,1.51.49,2.93,1.07,4.26.58,1.33,1.37,2.49,2.36,3.46,1,.98,2.24,1.75,3.73,2.33,1.49.58,3.21.87,5.16.87,2.53,0,4.83-.4,6.89-1.2s4.27-1.89,6.63-3.26v6.66c-.4.31-1.02.7-1.87,1.17-.84.47-1.85.9-3.03,1.3-1.18.4-2.5.74-3.96,1.03-1.47.29-3.04.43-4.73.43-2.98,0-5.65-.49-8.03-1.46-2.38-.98-4.39-2.32-6.03-4.03-1.64-1.71-2.9-3.7-3.76-5.96-.87-2.26-1.3-4.68-1.3-7.26s.43-5.07,1.3-7.36c.87-2.29,2.09-4.27,3.66-5.96,1.58-1.69,3.49-3.03,5.73-4.03,2.24-1,4.74-1.5,7.49-1.5,2.17,0,4.31.38,6.39,1.13,2.09.76,3.94,1.84,5.56,3.26,1.62,1.42,2.92,3.19,3.9,5.29.98,2.11,1.47,4.52,1.47,7.23Zm-7.06-1.86c-.04-1.07-.31-2.13-.8-3.2-.49-1.07-1.18-2.02-2.06-2.86-.89-.84-1.96-1.53-3.23-2.06-1.26-.53-2.7-.8-4.3-.8-2.84,0-5.19.83-7.06,2.5-1.86,1.66-3.11,3.81-3.73,6.43h21.18Z"/>
    <path class="cls-7" d="m1953.17,2215.16h7.66l10.52,22.91,10.52-22.91h7.53l-18.18,37.1-18.05-37.1Z"/>
    <path class="cls-7" d="m1991.06,2215.16h7.66l10.52,22.91,10.52-22.91h7.53l-18.18,37.1-18.05-37.1Z"/>
    <path class="cls-7" d="m2047.07,2251.86c-2.53,0-4.91-.48-7.13-1.43-2.22-.95-4.14-2.28-5.76-3.96-1.62-1.69-2.91-3.67-3.86-5.96-.96-2.29-1.43-4.76-1.43-7.43s.48-5.14,1.43-7.43c.95-2.29,2.24-4.27,3.86-5.96,1.62-1.69,3.54-3.01,5.76-3.96,2.22-.95,4.6-1.43,7.13-1.43s4.92.62,7.16,1.87c2.24,1.24,4.01,2.78,5.29,4.59v-5.59h6.39v35.83h-6.39v-5.59c-.62.89-1.39,1.73-2.3,2.53-.91.8-1.91,1.49-3,2.06-1.09.58-2.23,1.03-3.43,1.37-1.2.33-2.44.5-3.73.5Zm.47-6.13c1.69,0,3.24-.34,4.66-1.03,1.42-.69,2.65-1.61,3.7-2.76,1.04-1.15,1.86-2.5,2.46-4.03.6-1.53.9-3.14.9-4.83s-.3-3.3-.9-4.83c-.6-1.53-1.42-2.87-2.46-4.03-1.04-1.15-2.28-2.07-3.7-2.76-1.42-.69-2.98-1.03-4.66-1.03s-3.24.33-4.66,1c-1.42.67-2.65,1.58-3.7,2.73-1.04,1.15-1.86,2.5-2.46,4.03s-.9,3.16-.9,4.9.3,3.36.9,4.9,1.42,2.88,2.46,4.03c1.04,1.16,2.28,2.06,3.7,2.73,1.42.67,2.97,1,4.66,1Z"/>
    <path class="cls-7" d="m1904.49,2274.03c-.84,0-1.69-.16-2.53-.47-.84-.31-1.6-.77-2.26-1.37s-1.2-1.31-1.6-2.13c-.4-.82-.6-1.74-.6-2.76s.2-1.88.6-2.7c.4-.82.93-1.52,1.6-2.1.67-.58,1.42-1.02,2.26-1.33.84-.31,1.69-.47,2.53-.47s1.68.16,2.5.47c.82.31,1.57.76,2.23,1.33.67.58,1.2,1.28,1.6,2.1.4.82.6,1.72.6,2.7s-.2,1.94-.6,2.76c-.4.82-.93,1.53-1.6,2.13-.67.6-1.41,1.06-2.23,1.37-.82.31-1.65.47-2.5.47Zm-5.66,41.09v-36.1h11.26v36.1h-11.26Z"/>
    <path class="cls-7" d="m1918.07,2315.13v-36.1h10.66v4.13c.35-.49.81-1.02,1.37-1.6.55-.58,1.25-1.12,2.1-1.63.84-.51,1.82-.93,2.93-1.27,1.11-.33,2.4-.5,3.86-.5,1.29,0,2.47.17,3.56.5,1.09.33,2.04.77,2.86,1.3.82.53,1.54,1.13,2.16,1.8.62.67,1.11,1.31,1.47,1.93.49-.62,1.08-1.25,1.76-1.9.69-.64,1.5-1.23,2.43-1.76.93-.53,2.01-.98,3.23-1.33,1.22-.35,2.61-.53,4.16-.53,1.73,0,3.38.27,4.96.8,1.58.53,2.96,1.39,4.16,2.56,1.2,1.18,2.15,2.71,2.86,4.6.71,1.89,1.07,4.16,1.07,6.83v22.18h-11.26v-21.45c0-1.73-.48-3.05-1.43-3.96-.96-.91-2.19-1.37-3.7-1.37s-2.79.56-3.96,1.67c-1.18,1.11-1.76,2.84-1.76,5.19v19.91h-11.26v-21.45c0-1.73-.47-3.05-1.4-3.96-.93-.91-2.04-1.37-3.33-1.37-.67,0-1.37.16-2.1.47-.73.31-1.41.79-2.03,1.43-.62.64-1.13,1.47-1.53,2.46-.4,1-.6,2.19-.6,3.56v18.85h-11.26Z"/>
    <path class="cls-7" d="m1981.14,2329.84v-50.81h10.46v4.33c1.15-1.55,2.71-2.81,4.66-3.76,1.95-.95,4.04-1.43,6.26-1.43,2.4,0,4.65.47,6.76,1.4,2.11.93,3.95,2.23,5.53,3.9,1.58,1.67,2.82,3.66,3.73,5.99.91,2.33,1.37,4.87,1.37,7.63s-.46,5.29-1.37,7.63c-.91,2.33-2.15,4.33-3.73,5.99-1.58,1.67-3.42,2.96-5.53,3.9-2.11.93-4.36,1.4-6.76,1.4-2.13,0-4.12-.42-5.96-1.26-1.84-.84-3.39-1.98-4.63-3.4.27,3.33.4,7.1.4,11.32v7.19h-11.19Zm19.25-23.78c1.15,0,2.22-.23,3.2-.7.98-.47,1.82-1.11,2.53-1.93.71-.82,1.25-1.77,1.63-2.86.38-1.09.57-2.25.57-3.5s-.19-2.41-.57-3.5c-.38-1.09-.92-2.03-1.63-2.83-.71-.8-1.56-1.43-2.53-1.9-.98-.47-2.04-.7-3.2-.7s-2.22.23-3.2.7c-.98.47-1.81,1.1-2.5,1.9-.69.8-1.23,1.74-1.63,2.83-.4,1.09-.6,2.25-.6,3.5s.2,2.41.6,3.5c.4,1.09.94,2.04,1.63,2.86.69.82,1.52,1.47,2.5,1.93.98.47,2.04.7,3.2.7Z"/>
    <path class="cls-7" d="m2041.15,2315.99c-2.4,0-4.64-.47-6.73-1.4-2.09-.93-3.92-2.23-5.49-3.9-1.58-1.66-2.82-3.66-3.73-5.99-.91-2.33-1.37-4.87-1.37-7.63s.45-5.29,1.37-7.63c.91-2.33,2.15-4.33,3.73-5.99,1.58-1.66,3.41-2.96,5.49-3.9,2.09-.93,4.33-1.4,6.73-1.4,2.26,0,4.36.48,6.29,1.43,1.93.96,3.47,2.21,4.63,3.76v-4.33h10.46v36.1h-10.46v-4.26c-1.16,1.55-2.7,2.8-4.63,3.73s-4.03,1.4-6.29,1.4Zm2.13-9.92c1.15,0,2.22-.23,3.2-.7.98-.47,1.82-1.11,2.53-1.93.71-.82,1.27-1.77,1.67-2.86.4-1.09.6-2.25.6-3.5s-.2-2.41-.6-3.5c-.4-1.09-.96-2.03-1.67-2.83-.71-.8-1.55-1.43-2.53-1.9-.98-.47-2.04-.7-3.2-.7s-2.22.23-3.2.7c-.98.47-1.81,1.1-2.5,1.9-.69.8-1.23,1.74-1.63,2.83-.4,1.09-.6,2.25-.6,3.5s.2,2.41.6,3.5c.4,1.09.94,2.04,1.63,2.86.69.82,1.52,1.47,2.5,1.93.98.47,2.04.7,3.2.7Z"/>
    <path class="cls-7" d="m2089.63,2316.19c-3.15,0-6.03-.5-8.62-1.5-2.6-1-4.82-2.35-6.66-4.06-1.84-1.71-3.27-3.73-4.3-6.06-1.02-2.33-1.53-4.83-1.53-7.49s.51-5.15,1.53-7.46c1.02-2.31,2.45-4.33,4.3-6.06,1.84-1.73,4.06-3.1,6.66-4.1,2.6-1,5.47-1.5,8.62-1.5,2.04,0,3.94.22,5.69.67,1.75.44,3.21.91,4.36,1.4v10.52c-1.42-.84-3.02-1.46-4.8-1.86-1.78-.4-3.57-.6-5.39-.6-1.47,0-2.78.23-3.93.7-1.16.47-2.14,1.1-2.96,1.9-.82.8-1.44,1.74-1.86,2.83-.42,1.09-.63,2.28-.63,3.56s.21,2.49.63,3.6c.42,1.11,1.04,2.06,1.86,2.86.82.8,1.81,1.43,2.96,1.9,1.15.47,2.46.7,3.93.7,1.86,0,3.67-.22,5.43-.67,1.75-.44,3.34-1.11,4.76-2v10.59c-1.16.49-2.6.97-4.33,1.43-1.73.47-3.64.7-5.73.7Z"/>
    <path class="cls-7" d="m2122.53,2315.92c-1.86,0-3.57-.3-5.13-.9-1.55-.6-2.9-1.47-4.03-2.6s-2.02-2.5-2.66-4.1c-.64-1.6-.97-3.4-.97-5.39v-14.65h-6.79v-9.26h6.79v-8.72h11.26v8.72h8.99v9.26h-8.99v13.25c0,1.2.31,2.15.93,2.86.62.71,1.58,1.07,2.86,1.07.93,0,1.84-.07,2.73-.2.89-.13,1.71-.29,2.46-.47v10.12c-.93.22-1.98.44-3.13.67-1.16.22-2.6.33-4.33.33Z"/>
    <path class="cls-7" d="m2152.9,2316.12c-2.71,0-5.26-.48-7.66-1.43s-4.5-2.29-6.29-4c-1.8-1.71-3.22-3.73-4.26-6.06-1.04-2.33-1.57-4.85-1.57-7.56s.52-5.28,1.57-7.59c1.04-2.31,2.46-4.32,4.26-6.03,1.8-1.71,3.9-3.04,6.29-4,2.4-.95,4.95-1.43,7.66-1.43s5.19.48,7.59,1.43c2.4.96,4.5,2.29,6.29,4,1.8,1.71,3.22,3.72,4.26,6.03,1.04,2.31,1.57,4.84,1.57,7.59s-.52,5.23-1.57,7.56c-1.04,2.33-2.46,4.35-4.26,6.06-1.8,1.71-3.9,3.04-6.29,4s-4.93,1.43-7.59,1.43Zm0-9.99c1.15,0,2.23-.23,3.23-.7s1.86-1.1,2.6-1.9c.73-.8,1.31-1.75,1.73-2.86.42-1.11.63-2.31.63-3.6s-.21-2.49-.63-3.6c-.42-1.11-1-2.06-1.73-2.86-.73-.8-1.6-1.42-2.6-1.86-1-.44-2.08-.67-3.23-.67s-2.3.22-3.3.67c-1,.44-1.86,1.07-2.6,1.86s-1.31,1.75-1.73,2.86c-.42,1.11-.63,2.31-.63,3.6s.21,2.49.63,3.6c.42,1.11,1,2.06,1.73,2.86s1.6,1.43,2.6,1.9c1,.47,2.1.7,3.3.7Z"/>
  </g>
  <g>
    <g>
      <path class="cls-7" d="m971.9,767.94c.32.72.67,1.45.98,2.17.06-.03.14-.06.2-.09v-243.6c-11.51,12.72-22.81,25.18-34.32,37.88h14.31c3.53,49.73,7.08,99.35,10.61,148.96-.35-.49-.58-1.01-.75-1.56-4.45-14.2-8.91-28.39-13.36-42.59-6.53-20.85-13.1-41.72-19.6-62.57-.2-.67-.29-1.42-.29-2.14-.03-9.34,0-18.71,0-28.05v-2c-.61.64-.9.93-1.19,1.24-8.21,9.11-16.39,18.22-24.69,27.21-1.27,1.39-1.47,2.37-.72,4.11,12.23,28.45,24.4,56.93,36.55,85.41,10.76,25.18,21.51,50.4,32.27,75.61Z"/>
      <path class="cls-7" d="m1054.11,603.77c-8.59-9.43-17.17-18.91-25.73-28.36-.23-.26-.52-.46-.98-.87v1.82c0,9.34.03,18.71,0,28.05,0,.84-.12,1.73-.38,2.54-2.05,6.68-4.16,13.33-6.25,19.98-7.89,25.18-15.79,50.37-23.68,75.52-1.07,3.41-2.17,6.85-3.24,10.26-.12-.03-.23-.06-.38-.06,3.53-49.44,7.03-98.89,10.55-148.39h14.31c-11.39-12.52-22.58-24.84-33.92-37.36v242.21c.38-.35.58-.75.72-1.13,4.54-10.64,9.08-21.25,13.62-31.89,10-23.42,20.04-46.84,30.04-70.29,8.53-19.98,17.06-39.96,25.62-59.91.4-.87.35-1.42-.32-2.14Z"/>
    </g>
    <g>
      <path class="cls-7" d="m918.19,811.59c3.49-1.38,5.66-4.46,5.63-7.98-.03-3.58-2.17-6.6-5.72-7.89-4.1-1.5-8.36-.56-12.58-.79v28.15h4.25v-10.41c1.38-.41,2.23,0,3.05,1,2.38,2.9,4.87,5.75,7.3,8.59.29.32.62.85.94.85,1.67.09,3.31.03,5.28.03-3.37-3.81-6.51-7.36-9.71-10.97.65-.23,1.08-.41,1.55-.59Zm-8.44-2.7v-10.2c2.29-.06,4.57-.41,6.74.56,1.96.85,3.02,2.7,2.9,4.81-.15,2.08-1.5,3.9-3.69,4.37-1.88.38-3.84.32-5.95.47Z"/>
      <path class="cls-7" d="m984.66,823.2c1.32,0,2.35-.06,3.37.03s1.61-.23,1.96-1.23c.35-1,.76-2.02,1.35-2.9.29-.47,1-.97,1.5-.97,3.75-.09,7.54-.09,11.29,0,.5,0,1.17.53,1.47,1,.62,1.03,1,2.23,1.58,3.28.18.35.67.73,1.03.76,1.26.09,2.52.03,4.1.03-4.66-9.73-9.18-19.21-13.84-28.97-4.66,9.79-9.21,19.29-13.81,28.97Zm8.97-9.18c1.58-3.49,3.14-6.89,4.84-10.67,1.7,3.72,3.25,7.13,4.87,10.67h-9.71Z"/>
      <path class="cls-7" d="m1048.2,808.86c-1.23-.82-2.73-1.32-4.1-1.88-1.17-.5-2.4-.82-3.55-1.35-2.29-1.03-3.14-2.55-2.67-4.6.35-1.61,1.96-2.64,4.22-2.73,2.52-.09,4.81.65,7.04,1.76.44.23.91.41,1.58.7,0-1.5.06-2.7-.03-3.9-.03-.35-.44-.85-.79-1-2.93-1.23-5.98-1.82-9.15-1.41-5.04.62-8.06,4.34-7.21,9.09.5,2.9,2.4,4.75,5.01,5.86,1.96.85,4.02,1.5,6.01,2.29,1.58.65,2.7,1.73,2.76,3.61.12,2.81-1.99,4.66-5.22,4.54-2.64-.12-5.04-1.06-7.27-2.43-.44-.26-.88-.53-1.61-.97,0,1.52-.03,2.7.03,3.87.03.38.23.91.53,1.06,4.34,2.38,8.86,3.49,13.58,1.23,5.54-2.73,6.01-10.35.85-13.75Z"/>
      <path class="cls-7" d="m958.33,794.9c-.91-.06-1.38.26-1.73,1.14-1.7,4.16-3.49,8.27-5.25,12.4-.73,1.73-1.5,3.46-2.38,5.48-.38-.85-.65-1.38-.91-1.96-2.29-5.28-4.57-10.58-6.89-15.86-.21-.47-.67-1.08-1.08-1.14-1.29-.15-2.61-.06-4.19-.06,4.34,9.71,8.59,19.18,12.93,28.97,4.4-9.79,8.68-19.26,13.05-28.97-1.35,0-2.46.06-3.55,0Z"/>
      <path class="cls-7" d="m984.87,794.9c-.85-.06-1.32.23-1.64,1.06-.73,1.88-1.55,3.69-2.35,5.54-1.76,4.08-3.49,8.15-5.34,12.43-.29-.62-.53-1.06-.7-1.5-2.38-5.45-4.72-10.94-7.1-16.39-.18-.44-.62-1.06-.97-1.08-1.32-.12-2.7-.06-4.31-.06,4.34,9.71,8.59,19.18,12.96,28.94,4.43-9.82,8.68-19.29,13.05-28.97-1.38.03-2.49.09-3.61.03Z"/>
      <path class="cls-7" d="m1019.14,795.02h-4.16v28.09h15.63v-3.78h-11.49c.03-8.24.03-16.27.03-24.31Z"/>
      <path class="cls-7" d="m929.13,823.11h4.08v-28.09h-4.08v28.09Z"/>
    </g>
  </g>
  <g>
    <path class="cls-4" d="m2287.4,2027.83c-2.9,0-5.57-.52-8.02-1.57-2.45-1.05-4.52-2.61-6.22-4.68-1.7-2.07-2.9-4.61-3.6-7.61h5.62c.55,1.9,1.4,3.49,2.55,4.76,1.15,1.27,2.55,2.24,4.2,2.89,1.65.65,3.47.97,5.47.97,2.6,0,4.86-.54,6.78-1.61,1.92-1.08,3.4-2.57,4.42-4.5,1.02-1.92,1.54-4.14,1.54-6.63v-7.42l.97,1.27c-1.6,2.35-3.6,4.21-6,5.58-2.4,1.37-5.1,2.06-8.09,2.06-3.4,0-6.5-.77-9.29-2.32-2.8-1.55-5.02-3.72-6.67-6.52-1.65-2.8-2.47-5.97-2.47-9.52s.82-6.72,2.47-9.52c1.65-2.8,3.87-4.97,6.67-6.52,2.8-1.55,5.9-2.32,9.29-2.32,3,0,5.7.69,8.09,2.06,2.4,1.37,4.4,3.24,6,5.58l-.97,1.27v-8.17h5.62v34.48c0,3.45-.78,6.55-2.32,9.29-1.55,2.75-3.71,4.88-6.48,6.41-2.77,1.52-5.96,2.29-9.56,2.29Zm.08-21.74c2.45,0,4.67-.57,6.67-1.72,2-1.15,3.56-2.72,4.69-4.72,1.12-2,1.69-4.22,1.69-6.67s-.56-4.67-1.69-6.67c-1.12-2-2.69-3.57-4.69-4.72-2-1.15-4.22-1.72-6.67-1.72s-4.67.57-6.67,1.72c-2,1.15-3.56,2.72-4.69,4.72-1.12,2-1.69,4.22-1.69,6.67s.56,4.67,1.69,6.67c1.12,2,2.69,3.57,4.69,4.72,2,1.15,4.22,1.72,6.67,1.72Z"/>
    <path class="cls-4" d="m2330.35,2012.84c-3.15,0-5.93-.69-8.36-2.06-2.42-1.37-4.3-3.29-5.62-5.73-1.33-2.45-1.99-5.22-1.99-8.32v-21.36h5.62v21.36c0,2.1.42,3.97,1.27,5.62.85,1.65,2.06,2.94,3.64,3.86,1.57.92,3.38,1.39,5.43,1.39,3.1,0,5.6-1.01,7.5-3.04,1.9-2.02,2.85-4.63,2.85-7.83v-21.36h5.62v21.36c0,3.1-.66,5.87-1.99,8.32-1.32,2.45-3.2,4.36-5.62,5.73-2.42,1.37-5.21,2.06-8.36,2.06Z"/>
    <path class="cls-4" d="m2371.13,2012.84c-3.35,0-6.47-.84-9.37-2.51-2.9-1.67-5.2-3.97-6.9-6.9-1.7-2.92-2.55-6.16-2.55-9.71s.85-6.78,2.55-9.71c1.7-2.92,4-5.22,6.9-6.9,2.9-1.67,6.02-2.51,9.37-2.51,2,0,3.92.33,5.77.97,1.85.65,3.51,1.55,4.98,2.7,1.47,1.15,2.69,2.47,3.64,3.97l-.9,1.27v-8.17h5.62v36.73h-5.62v-8.17l.9,1.27c-1.45,2.3-3.45,4.15-6,5.55s-5.35,2.1-8.4,2.1Zm.45-5.25c2.45,0,4.7-.61,6.75-1.84,2.05-1.22,3.67-2.89,4.87-4.98,1.2-2.1,1.8-4.45,1.8-7.05s-.6-4.95-1.8-7.05-2.82-3.76-4.87-4.98c-2.05-1.22-4.3-1.84-6.75-1.84s-4.7.61-6.75,1.84c-2.05,1.22-3.67,2.89-4.87,4.98s-1.8,4.45-1.8,7.05.6,4.95,1.8,7.05c1.2,2.1,2.82,3.76,4.87,4.98,2.05,1.22,4.3,1.84,6.75,1.84Z"/>
    <path class="cls-4" d="m2399.01,2012.09v-37.4h7.5v7.57l-1.2-1.05c1.55-2.35,3.42-4.1,5.62-5.25,2.2-1.15,4.65-1.72,7.35-1.72h3v7.12h-4.12c-1.9,0-3.64.44-5.21,1.31-1.57.87-2.82,2.1-3.75,3.67-.92,1.57-1.39,3.36-1.39,5.36v20.39h-7.8Z"/>
    <path class="cls-4" d="m2441.66,2012.91c-3.35,0-6.48-.84-9.41-2.51-2.92-1.67-5.26-4.01-7.01-7.01-1.75-3-2.62-6.35-2.62-10.04s.87-7.03,2.62-10.01c1.75-2.97,4.09-5.3,7.01-6.97,2.92-1.67,6.06-2.51,9.41-2.51,1.95,0,3.8.29,5.55.86,1.75.58,3.33,1.39,4.76,2.44,1.42,1.05,2.61,2.27,3.56,3.67l-1.12,1.42v-24.13h7.8v53.97h-7.57v-7.79l1.05,1.42c-1.45,2.2-3.39,3.95-5.81,5.25-2.42,1.3-5.16,1.95-8.21,1.95Zm1.05-7.12c2.2,0,4.22-.55,6.07-1.65,1.85-1.1,3.31-2.59,4.38-4.46s1.61-3.98,1.61-6.33-.54-4.4-1.61-6.3c-1.07-1.9-2.54-3.38-4.38-4.46-1.85-1.07-3.87-1.61-6.07-1.61s-4.3.54-6.15,1.61c-1.85,1.08-3.31,2.56-4.38,4.46-1.07,1.9-1.61,4-1.61,6.3s.54,4.46,1.61,6.33,2.54,3.36,4.38,4.46c1.85,1.1,3.9,1.65,6.15,1.65Z"/>
    <path class="cls-7" d="m2470.74,1966.82v-2.25h8.32v2.25h-8.32Zm.3,45.27v-37.4h7.8v37.4h-7.8Z"/>
    <path class="cls-7" d="m2505.36,2012.99c-3.65,0-7.06-.84-10.23-2.51-3.17-1.67-5.71-4.03-7.61-7.08-1.9-3.05-2.85-6.5-2.85-10.34s.95-7.37,2.85-10.42c1.9-3.05,4.43-5.41,7.61-7.08,3.17-1.67,6.58-2.51,10.23-2.51s6.98.84,10.16,2.51c3.17,1.67,5.72,4.04,7.65,7.08,1.92,3.05,2.88,6.52,2.88,10.42s-.96,7.3-2.88,10.34c-1.92,3.05-4.47,5.41-7.65,7.08-3.17,1.67-6.56,2.51-10.16,2.51Zm-10.72-46.4c0-1.8.54-3.25,1.61-4.35,1.07-1.1,2.46-1.65,4.16-1.65,1.05,0,1.97.19,2.77.56s1.7.96,2.7,1.76c.9.65,1.66,1.14,2.29,1.46.62.33,1.31.49,2.06.49,1.15,0,2.03-.35,2.66-1.05.62-.7.94-1.62.94-2.77v-.45h2.17v.45c0,1.8-.54,3.25-1.61,4.35-1.08,1.1-2.46,1.65-4.16,1.65-1.05,0-1.96-.19-2.74-.56-.78-.37-1.66-.94-2.66-1.69-.9-.65-1.67-1.15-2.32-1.5-.65-.35-1.35-.52-2.1-.52-1.1,0-1.97.35-2.62,1.05-.65.7-.97,1.62-.97,2.77v.45h-2.17v-.45Zm10.72,37.33c2,0,3.81-.47,5.43-1.42,1.62-.95,2.9-2.25,3.82-3.9.92-1.65,1.39-3.5,1.39-5.55s-.46-3.97-1.39-5.62c-.92-1.65-2.2-2.95-3.82-3.9-1.62-.95-3.44-1.42-5.43-1.42s-3.81.48-5.43,1.42c-1.62.95-2.9,2.25-3.82,3.9-.92,1.65-1.39,3.52-1.39,5.62s.46,3.9,1.39,5.55c.92,1.65,2.2,2.95,3.82,3.9,1.62.95,3.43,1.42,5.43,1.42Z"/>
    <path class="cls-7" d="m2549.21,2012.99c-3.65,0-7-.85-10.04-2.55-3.05-1.7-5.47-4.06-7.27-7.08-1.8-3.02-2.7-6.46-2.7-10.31s.9-7.36,2.7-10.38c1.8-3.02,4.22-5.38,7.27-7.08,3.05-1.7,6.4-2.55,10.04-2.55s7.24.91,10.34,2.74c3.1,1.82,5.5,4.29,7.19,7.38,1.7,3.1,2.42,6.52,2.17,10.27h-32.6v-1.5h25.48l-2.62.82c0-2.25-.41-4.21-1.24-5.88-.82-1.67-1.99-2.97-3.49-3.9-1.5-.92-3.25-1.39-5.25-1.39s-3.75.48-5.25,1.42c-1.5.95-2.66,2.27-3.48,3.97-.83,1.7-1.24,3.72-1.24,6.07s.41,4.31,1.24,6.03c.82,1.72,1.99,3.05,3.48,3.97,1.5.92,3.27,1.39,5.32,1.39s4.01-.5,5.58-1.5c1.57-1,2.79-2.42,3.64-4.27h9.97c-1.45,4.6-3.81,8.13-7.08,10.61-3.27,2.47-7.33,3.71-12.18,3.71Z"/>
    <path class="cls-7" d="m2589.54,2012.99c-3.3,0-6.2-.58-8.69-1.72-2.5-1.15-4.46-2.75-5.88-4.8-1.42-2.05-2.21-4.45-2.36-7.2h9.52c.15,1.9.86,3.35,2.14,4.35,1.27,1,3.01,1.5,5.21,1.5,1.85,0,3.32-.32,4.42-.97,1.1-.65,1.65-1.62,1.65-2.92,0-.95-.35-1.74-1.05-2.36-.7-.62-1.57-1.1-2.62-1.42-1.05-.32-2.47-.69-4.27-1.09-2.9-.65-5.26-1.34-7.08-2.06-1.82-.72-3.4-1.89-4.72-3.49-1.33-1.6-1.99-3.77-1.99-6.52,0-2.15.65-4.07,1.95-5.77,1.3-1.7,3.11-3.04,5.43-4.01,2.32-.97,4.91-1.46,7.76-1.46s5.28.54,7.61,1.61c2.32,1.08,4.21,2.61,5.66,4.61,1.45,2,2.25,4.3,2.4,6.9h-9.52c-.15-1.7-.79-3-1.91-3.9-1.12-.9-2.61-1.35-4.46-1.35-1.55,0-2.81.4-3.78,1.21-.97.81-1.46,1.98-1.46,3.52,0,1.14.34,2.1,1.01,2.87.67.77,1.52,1.36,2.55,1.76,1.02.4,2.41.91,4.16,1.51,2.9.53,5.28,1.12,7.16,1.76,1.87.64,3.5,1.67,4.87,3.08,1.37,1.41,2.06,3.34,2.06,5.77,0,2.21-.67,4.11-2.02,5.7s-3.2,2.81-5.55,3.65c-2.35.84-5.07,1.26-8.17,1.26Z"/>
  </g>
  <g>
    <path class="cls-7" d="m2118.87,1525.05v-36.97h6.83v36.97h-6.83Z"/>
    <path class="cls-7" d="m2143.47,1525.67c-2.5,0-4.79-.58-6.88-1.75s-3.75-2.78-4.98-4.85c-1.23-2.07-1.85-4.42-1.85-7.06s.62-5.04,1.85-7.11c1.23-2.07,2.89-3.69,4.98-4.85,2.09-1.16,4.38-1.75,6.88-1.75s4.96.62,7.08,1.87c2.12,1.25,3.77,2.94,4.93,5.06,1.16,2.12,1.66,4.47,1.49,7.03h-22.33v-1.03h17.46l-1.8.56c0-1.54-.28-2.88-.85-4.03-.56-1.15-1.36-2.04-2.39-2.67-1.03-.63-2.22-.95-3.59-.95s-2.57.33-3.59.98c-1.03.65-1.82,1.56-2.39,2.72-.56,1.16-.85,2.55-.85,4.16s.28,2.95.85,4.13c.57,1.18,1.36,2.09,2.39,2.72,1.03.63,2.24.95,3.65.95s2.75-.34,3.83-1.03c1.08-.68,1.91-1.66,2.49-2.93h6.83c-.99,3.15-2.61,5.57-4.85,7.26s-5.02,2.54-8.34,2.54Z"/>
    <path class="cls-7" d="m2168.67,1525.05l-11.24-26.13h7.24l7.86,19.72h-1.75l7.8-19.72h7.08l-11.24,26.13h-5.75Z"/>
    <path class="cls-7" d="m2196.71,1525.05l-11.24-26.13h7.24l7.86,19.72h-1.75l7.8-19.72h7.08l-11.24,26.13h-5.75Z"/>
    <path class="cls-7" d="m2227.41,1525.67c-2.26,0-4.41-.57-6.44-1.72-2.04-1.15-3.67-2.76-4.9-4.85-1.23-2.09-1.85-4.45-1.85-7.08s.62-5.05,1.85-7.14c1.23-2.09,2.87-3.7,4.9-4.85,2.04-1.15,4.18-1.72,6.44-1.72,1.4,0,2.7.2,3.88.59,1.18.39,2.23.93,3.16,1.62.92.69,1.71,1.51,2.36,2.46l-.77,1.03v-5.08h6.42v26.13h-6.42v-5.08l.77,1.03c-1.03,1.44-2.33,2.58-3.9,3.41s-3.41,1.26-5.49,1.26Zm1.13-6.21c1.37,0,2.62-.32,3.75-.98,1.13-.65,2.02-1.54,2.67-2.67.65-1.13.98-2.4.98-3.8s-.33-2.72-.98-3.85c-.65-1.13-1.54-2.02-2.67-2.67-1.13-.65-2.38-.98-3.75-.98s-2.62.33-3.75.98c-1.13.65-2.02,1.54-2.67,2.67-.65,1.13-.98,2.41-.98,3.85s.33,2.67.98,3.8c.65,1.13,1.54,2.02,2.67,2.67,1.13.65,2.38.98,3.75.98Z"/>
    <path class="cls-7" d="m2130.01,1572.59c-2.33,0-4.48-.57-6.44-1.72-1.97-1.15-3.53-2.72-4.7-4.72-1.16-2-1.75-4.22-1.75-6.65s.58-4.65,1.75-6.65c1.16-2,2.73-3.58,4.7-4.72,1.97-1.15,4.12-1.72,6.44-1.72,1.88,0,3.65.37,5.29,1.1,1.64.74,3.06,1.81,4.26,3.23,1.2,1.42,2.07,3.14,2.62,5.16h-4c-.69-1.88-1.76-3.34-3.24-4.36s-3.11-1.54-4.93-1.54c-1.61,0-3.1.42-4.47,1.26-1.37.84-2.45,1.98-3.23,3.41s-1.18,3.05-1.18,4.83.39,3.39,1.18,4.83,1.87,2.58,3.23,3.41c1.37.84,2.86,1.26,4.47,1.26,1.81,0,3.46-.51,4.93-1.54s2.55-2.48,3.24-4.36h4c-.55,2.02-1.42,3.74-2.62,5.16-1.2,1.42-2.62,2.5-4.26,3.23-1.64.74-3.41,1.1-5.29,1.1Z"/>
    <path class="cls-7" d="m2157.64,1572.59c-2.4,0-4.59-.57-6.6-1.72-2-1.15-3.59-2.72-4.77-4.72-1.18-2-1.77-4.22-1.77-6.65s.59-4.65,1.77-6.65c1.18-2,2.77-3.58,4.77-4.72,2-1.15,4.2-1.72,6.6-1.72s4.6.57,6.6,1.72c2,1.15,3.59,2.72,4.77,4.72,1.18,2,1.77,4.22,1.77,6.65s-.59,4.65-1.77,6.65c-1.18,2-2.77,3.58-4.77,4.72-2,1.15-4.2,1.72-6.6,1.72Zm0-3.59c1.68,0,3.21-.42,4.6-1.26,1.39-.84,2.49-1.98,3.31-3.41.82-1.44,1.23-3.05,1.23-4.83s-.41-3.39-1.23-4.83c-.82-1.44-1.93-2.58-3.31-3.41-1.39-.84-2.92-1.26-4.6-1.26s-3.21.42-4.59,1.26c-1.39.84-2.49,1.98-3.31,3.41s-1.23,3.05-1.23,4.83.41,3.39,1.23,4.83,1.92,2.58,3.31,3.41c1.39.84,2.92,1.26,4.59,1.26Z"/>
    <path class="cls-7" d="m2175.14,1572.08v-25.16h3.85v5.08l-.72-.72c1.03-1.61,2.29-2.82,3.77-3.65,1.49-.82,3.12-1.23,4.9-1.23,2.02,0,3.81.49,5.37,1.46s2.76,2.3,3.62,3.98c.85,1.68,1.28,3.54,1.28,5.6v14.63h-3.85v-14.63c0-1.47-.27-2.76-.82-3.88-.55-1.11-1.34-1.98-2.39-2.62-1.04-.63-2.28-.95-3.72-.95s-2.62.32-3.75.95c-1.13.63-2.03,1.51-2.7,2.64-.67,1.13-1,2.41-1,3.85v14.63h-3.85Z"/>
    <path class="cls-7" d="m2203.38,1572.08v-36.97h3.85v16.89l-.72-.72c1.03-1.61,2.29-2.82,3.77-3.65,1.49-.82,3.12-1.23,4.9-1.23,2.02,0,3.81.49,5.37,1.46s2.76,2.3,3.62,3.98c.85,1.68,1.28,3.54,1.28,5.6v14.63h-3.85v-14.63c0-1.47-.27-2.76-.82-3.88-.55-1.11-1.34-1.98-2.39-2.62-1.04-.63-2.28-.95-3.72-.95s-2.62.32-3.75.95c-1.13.63-2.03,1.51-2.7,2.64-.67,1.13-1,2.41-1,3.85v14.63h-3.85Z"/>
    <path class="cls-7" d="m2242.19,1572.59c-2.36,0-4.51-.57-6.44-1.72-1.93-1.15-3.45-2.71-4.54-4.7-1.1-1.98-1.64-4.21-1.64-6.67s.55-4.69,1.64-6.67c1.09-1.98,2.61-3.55,4.54-4.7,1.93-1.15,4.08-1.72,6.44-1.72s4.68.6,6.65,1.8c1.97,1.2,3.46,2.82,4.49,4.85,1.03,2.04,1.42,4.27,1.18,6.7h-22.28v-1.03h20.07l-1.59.56c0-1.95-.37-3.63-1.1-5.03-.74-1.4-1.75-2.46-3.03-3.18-1.28-.72-2.75-1.08-4.39-1.08-1.75,0-3.27.39-4.57,1.18-1.3.79-2.3,1.9-3,3.34-.7,1.44-1.05,3.1-1.05,4.98s.35,3.54,1.05,4.98c.7,1.44,1.7,2.55,3,3.34,1.3.79,2.82,1.18,4.57,1.18,1.95,0,3.61-.47,4.98-1.41s2.4-2.35,3.08-4.24h4c-.89,3.01-2.38,5.31-4.47,6.88-2.09,1.57-4.62,2.36-7.6,2.36Z"/>
    <path class="cls-7" d="m2270.02,1572.59c-2.33,0-4.48-.57-6.44-1.72-1.97-1.15-3.53-2.72-4.7-4.72-1.16-2-1.75-4.22-1.75-6.65s.58-4.65,1.75-6.65c1.16-2,2.73-3.58,4.7-4.72,1.97-1.15,4.12-1.72,6.44-1.72,1.88,0,3.65.37,5.29,1.1,1.64.74,3.06,1.81,4.26,3.23,1.2,1.42,2.07,3.14,2.62,5.16h-4c-.69-1.88-1.76-3.34-3.24-4.36s-3.11-1.54-4.93-1.54c-1.61,0-3.1.42-4.47,1.26-1.37.84-2.45,1.98-3.23,3.41s-1.18,3.05-1.18,4.83.39,3.39,1.18,4.83,1.87,2.58,3.23,3.41c1.37.84,2.86,1.26,4.47,1.26,1.81,0,3.46-.51,4.93-1.54s2.55-2.48,3.24-4.36h4c-.55,2.02-1.42,3.74-2.62,5.16-1.2,1.42-2.62,2.5-4.26,3.23-1.64.74-3.41,1.1-5.29,1.1Z"/>
    <path class="cls-7" d="m2286.04,1541.53v-1.54h4.36v1.54h-4.36Zm.26,30.55v-25.16h3.85v25.16h-3.85Z"/>
    <path class="cls-7" d="m2296.31,1572.08v-25.16h3.85v5.08l-.67-.62c.86-1.64,1.97-2.88,3.34-3.72,1.37-.84,2.88-1.26,4.52-1.26,1.98,0,3.78.59,5.39,1.77,1.61,1.18,2.7,2.7,3.29,4.54h-1.03c.82-2.02,2.03-3.58,3.62-4.67,1.59-1.1,3.4-1.64,5.42-1.64,1.85,0,3.49.47,4.93,1.41,1.44.94,2.56,2.23,3.36,3.85.8,1.63,1.21,3.47,1.21,5.52v14.89h-3.85v-14.89c0-1.37-.25-2.6-.74-3.7-.5-1.1-1.21-1.95-2.13-2.57-.92-.62-2.02-.92-3.29-.92-1.2,0-2.3.32-3.31.95-1.01.63-1.82,1.5-2.44,2.59-.62,1.1-.92,2.31-.92,3.65v14.89h-3.85v-14.89c0-1.37-.25-2.6-.74-3.7-.5-1.1-1.21-1.95-2.13-2.57-.92-.62-2.02-.92-3.29-.92-1.2,0-2.3.32-3.31.95-1.01.63-1.82,1.5-2.44,2.59-.62,1.1-.92,2.31-.92,3.65v14.89h-3.85Z"/>
    <path class="cls-7" d="m2350.27,1572.59c-2.36,0-4.51-.57-6.44-1.72-1.93-1.15-3.45-2.71-4.54-4.7-1.1-1.98-1.64-4.21-1.64-6.67s.55-4.69,1.64-6.67c1.09-1.98,2.61-3.55,4.54-4.7,1.93-1.15,4.08-1.72,6.44-1.72s4.68.6,6.65,1.8c1.97,1.2,3.46,2.82,4.49,4.85,1.03,2.04,1.42,4.27,1.18,6.7h-22.28v-1.03h20.07l-1.59.56c0-1.95-.37-3.63-1.1-5.03-.74-1.4-1.75-2.46-3.03-3.18-1.28-.72-2.75-1.08-4.39-1.08-1.75,0-3.27.39-4.57,1.18-1.3.79-2.3,1.9-3,3.34-.7,1.44-1.05,3.1-1.05,4.98s.35,3.54,1.05,4.98c.7,1.44,1.7,2.55,3,3.34,1.3.79,2.82,1.18,4.57,1.18,1.95,0,3.61-.47,4.98-1.41s2.4-2.35,3.08-4.24h4c-.89,3.01-2.38,5.31-4.47,6.88-2.09,1.57-4.62,2.36-7.6,2.36Z"/>
    <path class="cls-7" d="m2367,1572.08v-25.16h3.85v5.08l-.72-.72c1.03-1.61,2.29-2.82,3.77-3.65,1.49-.82,3.12-1.23,4.9-1.23,2.02,0,3.81.49,5.37,1.46s2.76,2.3,3.62,3.98c.85,1.68,1.28,3.54,1.28,5.6v14.63h-3.85v-14.63c0-1.47-.27-2.76-.82-3.88-.55-1.11-1.34-1.98-2.39-2.62-1.04-.63-2.28-.95-3.72-.95s-2.62.32-3.75.95c-1.13.63-2.03,1.51-2.7,2.64-.67,1.13-1,2.41-1,3.85v14.63h-3.85Z"/>
    <path class="cls-7" d="m2391.65,1547.95v-1.03h14.38v1.03h-14.38Zm11.81,24.13c-1.51,0-2.84-.32-4-.95-1.16-.63-2.07-1.51-2.72-2.64-.65-1.13-.98-2.41-.98-3.85v-24.39h3.85v24.13c0,1.27.37,2.27,1.1,3,.74.74,1.74,1.1,3,1.1h2.31v3.59h-2.57Z"/>
    <path class="cls-7" d="m2420.71,1572.59c-2.4,0-4.59-.57-6.6-1.72-2-1.15-3.59-2.72-4.77-4.72-1.18-2-1.77-4.22-1.77-6.65s.59-4.65,1.77-6.65c1.18-2,2.77-3.58,4.77-4.72,2-1.15,4.2-1.72,6.6-1.72s4.6.57,6.6,1.72c2,1.15,3.59,2.72,4.77,4.72,1.18,2,1.77,4.22,1.77,6.65s-.59,4.65-1.77,6.65c-1.18,2-2.77,3.58-4.77,4.72-2,1.15-4.2,1.72-6.6,1.72Zm0-3.59c1.68,0,3.21-.42,4.6-1.26,1.39-.84,2.49-1.98,3.31-3.41.82-1.44,1.23-3.05,1.23-4.83s-.41-3.39-1.23-4.83c-.82-1.44-1.93-2.58-3.31-3.41-1.39-.84-2.92-1.26-4.6-1.26s-3.21.42-4.59,1.26c-1.39.84-2.49,1.98-3.31,3.41s-1.23,3.05-1.23,4.83.41,3.39,1.23,4.83,1.92,2.58,3.31,3.41c1.39.84,2.92,1.26,4.59,1.26Z"/>
    <polygon class="cls-4" points="2257.13 1498.11 2285.23 1509.6 2285.23 1511.3 2257.13 1522.79 2257.13 1528.15 2289.75 1515.04 2289.75 1505.86 2257.13 1492.76 2257.13 1498.11"/>
    <polygon class="cls-4" points="2306.71 1498.11 2334.81 1509.6 2334.81 1511.3 2306.71 1522.79 2306.71 1528.15 2339.32 1515.04 2339.32 1505.86 2306.71 1492.76 2306.71 1498.11"/>
    <polygon class="cls-4" points="2355.63 1498.11 2383.73 1509.6 2383.73 1511.3 2355.63 1522.79 2355.63 1528.15 2388.24 1515.04 2388.24 1505.86 2355.63 1492.76 2355.63 1498.11"/>
    <polygon class="cls-4" points="2404.55 1498.11 2432.65 1509.6 2432.65 1511.3 2404.55 1522.79 2404.55 1528.15 2437.16 1515.04 2437.16 1505.86 2404.55 1492.76 2404.55 1498.11"/>
  </g>
  <g>
    <path class="cls-7" d="m1036.76,1508.54c-5.69,0-11.02-1.42-15.98-4.27-4.97-2.84-8.94-6.81-11.91-11.91-2.97-5.09-4.46-10.78-4.46-17.07s1.48-11.95,4.46-17c2.97-5.05,6.94-9,11.91-11.84,4.97-2.84,10.29-4.27,15.98-4.27,3.31,0,6.45.49,9.42,1.46,2.97.98,5.67,2.36,8.09,4.14,2.42,1.78,4.44,3.86,6.05,6.24l-1.91,2.42v-41.01h13.24v91.69h-12.86v-13.24l1.78,2.42c-2.46,3.74-5.75,6.71-9.87,8.92-4.12,2.21-8.77,3.31-13.95,3.31Zm1.78-12.1c3.74,0,7.17-.93,10.32-2.8,3.14-1.87,5.62-4.39,7.45-7.58,1.83-3.18,2.74-6.77,2.74-10.76s-.91-7.47-2.74-10.7c-1.83-3.23-4.31-5.75-7.45-7.58-3.14-1.82-6.58-2.74-10.32-2.74s-7.3.91-10.44,2.74c-3.14,1.83-5.62,4.35-7.45,7.58-1.83,3.23-2.74,6.79-2.74,10.7s.91,7.58,2.74,10.76c1.83,3.18,4.31,5.71,7.45,7.58,3.14,1.87,6.62,2.8,10.44,2.8Z"/>
    <path class="cls-7" d="m1036.76,1623.23c-5.69,0-11.02-1.42-15.98-4.27-4.97-2.84-8.94-6.81-11.91-11.91-2.97-5.09-4.46-10.78-4.46-17.07s1.48-11.95,4.46-17c2.97-5.05,6.94-9,11.91-11.84,4.97-2.84,10.29-4.27,15.98-4.27,3.31,0,6.45.49,9.42,1.46,2.97.98,5.67,2.36,8.09,4.14,2.42,1.78,4.44,3.86,6.05,6.24l-1.91,2.42v-41.01h13.24v91.69h-12.86v-13.24l1.78,2.42c-2.46,3.74-5.75,6.71-9.87,8.92-4.12,2.21-8.77,3.31-13.95,3.31Zm1.78-12.1c3.74,0,7.17-.93,10.32-2.8,3.14-1.87,5.62-4.39,7.45-7.58,1.83-3.18,2.74-6.77,2.74-10.76s-.91-7.47-2.74-10.7c-1.83-3.23-4.31-5.75-7.45-7.58-3.14-1.82-6.58-2.74-10.32-2.74s-7.3.91-10.44,2.74c-3.14,1.83-5.62,4.35-7.45,7.58-1.83,3.23-2.74,6.79-2.74,10.7s.91,7.58,2.74,10.76c1.83,3.18,4.31,5.71,7.45,7.58,3.14,1.87,6.62,2.8,10.44,2.8Z"/>
    <path class="cls-7" d="m1115.08,1508.54c-6.03,0-11.55-1.42-16.56-4.27-5.01-2.84-8.96-6.79-11.84-11.84-2.89-5.05-4.33-10.76-4.33-17.13s1.44-12.05,4.33-17.07c2.88-5.01,6.83-8.93,11.84-11.78,5.01-2.84,10.53-4.27,16.56-4.27s11.84,1.51,16.94,4.52c5.09,3.01,9,7.09,11.72,12.23,2.72,5.14,3.82,10.81,3.31,17h-55.4v-2.55h46.61l-4.2,1.53c0-4.33-.81-8.09-2.42-11.27-1.61-3.18-3.84-5.6-6.69-7.26-2.85-1.66-6.13-2.48-9.87-2.48s-7.3.87-10.19,2.61c-2.89,1.74-5.12,4.25-6.69,7.51-1.57,3.27-2.36,7.03-2.36,11.27s.78,8.11,2.36,11.33c1.57,3.23,3.8,5.73,6.69,7.51,2.88,1.78,6.28,2.67,10.19,2.67,4.24,0,7.87-1,10.89-2.99,3.01-1.99,5.33-4.99,6.94-8.98h13.37c-2.29,7.64-6.13,13.5-11.53,17.58-5.39,4.08-11.95,6.11-19.68,6.11Z"/>
    <path class="cls-7" d="m1115.08,1623.23c-6.03,0-11.55-1.42-16.56-4.27-5.01-2.84-8.96-6.79-11.84-11.84-2.89-5.05-4.33-10.76-4.33-17.13s1.44-12.05,4.33-17.07c2.88-5.01,6.83-8.93,11.84-11.78,5.01-2.84,10.53-4.27,16.56-4.27s11.84,1.51,16.94,4.52c5.09,3.01,9,7.09,11.72,12.23,2.72,5.14,3.82,10.81,3.31,17h-55.4v-2.55h46.61l-4.2,1.53c0-4.33-.81-8.09-2.42-11.27-1.61-3.18-3.84-5.6-6.69-7.26-2.85-1.66-6.13-2.48-9.87-2.48s-7.3.87-10.19,2.61c-2.89,1.74-5.12,4.25-6.69,7.51-1.57,3.27-2.36,7.03-2.36,11.27s.78,8.11,2.36,11.33c1.57,3.23,3.8,5.73,6.69,7.51,2.88,1.78,6.28,2.67,10.19,2.67,4.24,0,7.87-1,10.89-2.99,3.01-1.99,5.33-4.99,6.94-8.98h13.37c-2.29,7.64-6.13,13.5-11.53,17.57-5.39,4.08-11.95,6.11-19.68,6.11Z"/>
    <g>
      <path class="cls-7" d="m1114.2,1542.63l-11.64-15.24c-.14,1.09-.3,2.21-.46,3.33-.16,1.13-.33,2.23-.51,3.31l-1.28,8.07h-2.49l3.24-20.36,11.66,15.21c.16-1.09.32-2.19.47-3.28.15-1.09.32-2.22.5-3.38l1.25-8.09h2.51l-3.26,20.43Z"/>
      <path class="cls-7" d="m1152.77,1542.1l-1.23-4.08h-9.97l-2.51,4.08h-2.92l12.87-20.41,6.45,20.41h-2.68Zm-9.8-6.35h7.9l-2.58-8.67-5.31,8.67Zm4.83-17.8c-.19,0-.37.06-.52.18-.15.12-.29.28-.4.47-.11.19-.21.41-.29.65-.08.24-.15.48-.22.72l-1.98-.41c.35-1.32.82-2.28,1.4-2.87s1.27-.89,2.08-.89c.47,0,.87.11,1.2.33.33.22.62.46.88.72s.5.51.72.72.47.33.72.33c.19,0,.37-.06.52-.18s.29-.28.41-.47c.12-.19.22-.41.3-.65.08-.24.15-.48.22-.72l1.96.41c-.35,1.3-.82,2.26-1.39,2.86-.57.6-1.26.91-2.06.91-.48,0-.89-.11-1.21-.33-.32-.22-.61-.46-.87-.72s-.5-.51-.72-.72-.47-.33-.75-.33Z"/>
      <path class="cls-7" d="m1185.3,1542.53c-1.26,0-2.41-.23-3.47-.69-1.05-.46-1.96-1.09-2.72-1.91-.76-.81-1.34-1.77-1.76-2.87-.42-1.1-.63-2.3-.63-3.59,0-1.45.28-2.87.83-4.27.56-1.4,1.33-2.65,2.32-3.74s2.17-1.98,3.55-2.66c1.38-.68,2.88-1.01,4.5-1.01,1.26,0,2.41.23,3.47.69,1.05.46,1.96,1.09,2.72,1.9.76.81,1.34,1.76,1.76,2.87s.63,2.31.63,3.6c0,1.45-.28,2.87-.83,4.27s-1.33,2.65-2.32,3.74c-.99,1.09-2.17,1.98-3.54,2.66-1.37.68-2.87,1.01-4.52,1.01Zm.12-2.32c1.26,0,2.41-.27,3.45-.81,1.05-.54,1.94-1.25,2.69-2.12.75-.88,1.33-1.88,1.75-3.01.42-1.13.63-2.27.63-3.43,0-.98-.14-1.88-.41-2.7-.27-.82-.68-1.53-1.21-2.13-.53-.6-1.18-1.06-1.93-1.4-.76-.34-1.62-.51-2.58-.51-1.26,0-2.41.27-3.45.81-1.05.54-1.94,1.25-2.69,2.12-.75.88-1.33,1.88-1.75,3.01s-.63,2.27-.63,3.43c0,.98.14,1.88.42,2.7.28.82.68,1.53,1.21,2.12.52.6,1.16,1.06,1.92,1.4.76.34,1.62.51,2.58.51Z"/>
    </g>
    <polygon class="cls-4" points="1211.1 1557.01 1188.15 1613.13 1184.76 1613.13 1161.81 1557.01 1151.12 1557.01 1177.29 1622.15 1195.62 1622.15 1221.8 1557.01 1211.1 1557.01"/>
    <polygon class="cls-4" points="1211.1 1442 1188.15 1498.12 1184.76 1498.12 1161.81 1442 1151.12 1442 1177.29 1507.14 1195.62 1507.14 1221.8 1442 1211.1 1442"/>
  </g>
  <g>
    <g>
      <path class="cls-5" d="m1416.27,2260.83c.53-1.24.79-2.58.79-4s-.25-2.78-.75-4.04c-.5-1.27-1.27-2.38-2.3-3.33-1.03-.95-2.33-1.7-3.89-2.26-1.56-.56-3.37-.83-5.43-.83h-7.69v20.86h7.69c2.06,0,3.86-.28,5.39-.83,1.53-.56,2.82-1.31,3.85-2.26,1.03-.95,1.81-2.05,2.34-3.29Z"/>
      <polygon class="cls-7" points="1188.52 2236.05 1176.78 2236.05 1176.78 2301.39 1213.97 2301.39 1213.97 2290.69 1188.52 2290.69 1188.52 2236.05"/>
      <rect class="cls-7" x="1227.61" y="2236.05" width="11.74" height="65.35"/>
      <path class="cls-4" d="m1304.1,2245.76c-3.09-2.99-6.83-5.35-11.22-7.1-4.39-1.74-9.36-2.62-14.91-2.62h-20.86v13.53l11.74,4.72v-7.7h9.12c3.75,0,7.1.58,10.03,1.74,2.93,1.16,5.41,2.74,7.42,4.72,2.01,1.98,3.54,4.32,4.6,7.02,1.06,2.7,1.59,5.58,1.59,8.64s-.53,6.03-1.59,8.72c-1.06,2.7-2.59,5.04-4.6,7.02-2.01,1.98-4.48,3.54-7.42,4.68-2.93,1.14-6.28,1.71-10.03,1.71h-9.12v-7.15l-11.74,4.72v12.98h20.86c5.55,0,10.52-.87,14.91-2.62,4.39-1.74,8.13-4.1,11.22-7.06,3.09-2.96,5.46-6.42,7.1-10.39,1.64-3.97,2.46-8.17,2.46-12.61s-.82-8.63-2.46-12.57c-1.64-3.94-4-7.4-7.1-10.39Z"/>
      <polygon class="cls-7" points="1341.25 2273.32 1365.2 2273.32 1365.2 2262.85 1341.25 2262.85 1341.25 2246.68 1370.2 2246.68 1370.2 2236.05 1329.44 2236.05 1329.44 2301.39 1371.39 2301.39 1371.39 2290.77 1341.25 2290.77 1341.25 2273.32"/>
      <path class="cls-7" d="m1413.65,2275.78c2.38-.74,4.52-1.72,6.42-2.93,1.9-1.22,3.52-2.66,4.84-4.32,1.32-1.67,2.34-3.5,3.05-5.51.71-2.01,1.07-4.12,1.07-6.34,0-2.91-.55-5.62-1.67-8.13-1.11-2.51-2.71-4.69-4.8-6.54-2.09-1.85-4.64-3.3-7.65-4.36-3.01-1.06-6.4-1.59-10.15-1.59h-19.43v65.35h11.66v-24.27h4.2l19.43,24.27h14.59l-21.57-25.61Zm-8.96-8.56h-7.69v-20.86h7.69c2.06,0,3.87.28,5.43.83,1.56.56,2.85,1.31,3.89,2.26,1.03.95,1.8,2.06,2.3,3.33.5,1.27.75,2.62.75,4.04s-.26,2.76-.79,4c-.53,1.24-1.31,2.34-2.34,3.29-1.03.95-2.31,1.7-3.85,2.26-1.53.56-3.33.83-5.39.83Z"/>
      <polygon class="cls-4" points="1287.95 2268.07 1287.95 2269.93 1268.85 2277.74 1268.85 2283.7 1292.9 2274.03 1292.9 2263.96 1268.85 2254.3 1268.85 2260.26 1287.95 2268.07"/>
      <polygon class="cls-4" points="1268.85 2254.3 1257.11 2249.58 1257.11 2255.46 1268.85 2260.26 1268.85 2254.3"/>
      <polygon class="cls-4" points="1268.85 2277.74 1257.11 2282.54 1257.11 2288.42 1268.85 2283.7 1268.85 2277.74"/>
    </g>
    <path class="cls-7" d="m1492.48,2301.99l-4.76-10.79h-29.02l-4.76,10.79h-13l31.32-66.53h1.98l31.32,66.53h-13.08Zm-29.26-21.09h19.98l-9.99-22.6-9.99,22.6Z"/>
  </g>
  <g>
    <g>
      <g>
        <path class="cls-7" d="m1653.31,450.58v-61.07h8.59v61.07h-8.59Z"/>
        <path class="cls-7" d="m1708.28,430.2c0,.66-.02,1.37-.07,2.13-.05.76-.12,1.42-.21,1.99h-29.33c.24,1.33.64,2.56,1.21,3.69s1.34,2.13,2.31,2.98c.97.85,2.17,1.52,3.59,1.99,1.42.47,3.08.71,4.97.71,2.37,0,4.65-.34,6.85-1.03,2.2-.69,4.7-1.76,7.49-3.23v8.24c-.47.38-1.17.79-2.09,1.24-.92.45-2.01.86-3.27,1.24-1.25.38-2.64.7-4.15.96-1.52.26-3.13.39-4.83.39-3.31,0-6.27-.52-8.88-1.56-2.6-1.04-4.81-2.47-6.6-4.3-1.8-1.82-3.16-3.95-4.08-6.39-.92-2.44-1.39-5.03-1.39-7.78s.46-5.4,1.39-7.81c.92-2.41,2.24-4.53,3.94-6.36,1.7-1.82,3.76-3.25,6.18-4.3,2.41-1.04,5.14-1.56,8.17-1.56,2.13,0,4.32.35,6.57,1.07,2.25.71,4.27,1.82,6.07,3.34,1.8,1.52,3.28,3.46,4.44,5.82,1.16,2.37,1.74,5.21,1.74,8.52Zm-9.09-2.7c-.1-.99-.37-1.98-.82-2.95-.45-.97-1.08-1.86-1.88-2.66-.81-.8-1.81-1.46-3.02-1.95s-2.62-.75-4.23-.75c-2.79,0-5.05.78-6.78,2.34-1.73,1.56-2.9,3.55-3.52,5.97h20.24Z"/>
        <path class="cls-7" d="m1709.28,412.38h9.87l9.87,21.52,10.01-21.52h9.59l-19.74,39.41-19.6-39.41Z"/>
        <path class="cls-7" d="m1749.83,412.38h9.87l9.87,21.52,10.01-21.52h9.59l-19.74,39.41-19.6-39.41Z"/>
        <path class="cls-7" d="m1809.48,451.51c-2.7,0-5.23-.51-7.6-1.53s-4.41-2.41-6.14-4.19c-1.73-1.77-3.09-3.89-4.08-6.36-1-2.46-1.49-5.11-1.49-7.95s.5-5.49,1.49-7.95c.99-2.46,2.35-4.58,4.08-6.36,1.73-1.78,3.78-3.17,6.14-4.19,2.37-1.02,4.9-1.53,7.6-1.53,2.32,0,4.6.56,6.85,1.67,2.25,1.11,4.04,2.52,5.36,4.23v-4.97h8.09v38.21h-8.09v-4.97c-1.33,1.7-3.1,3.11-5.33,4.23-2.23,1.11-4.52,1.67-6.89,1.67Zm.71-7.81c1.61,0,3.09-.33,4.44-.99,1.35-.66,2.52-1.55,3.52-2.66,1-1.11,1.76-2.41,2.31-3.91.54-1.49.82-3.04.82-4.65s-.27-3.22-.82-4.69c-.54-1.47-1.31-2.76-2.31-3.87-.99-1.11-2.16-2-3.52-2.66-1.35-.66-2.83-.99-4.44-.99s-3.1.33-4.47.99c-1.37.66-2.56,1.55-3.55,2.66-1,1.11-1.76,2.4-2.31,3.87-.54,1.47-.82,3.03-.82,4.69s.27,3.22.82,4.69c.54,1.47,1.31,2.76,2.31,3.87.99,1.11,2.18,2,3.55,2.66,1.37.66,2.86.99,4.47.99Z"/>
      </g>
      <g>
        <path class="cls-7" d="m1673.63,506.19c-2.84,0-5.49-.52-7.95-1.56-2.46-1.04-4.61-2.47-6.43-4.3-1.82-1.82-3.27-3.95-4.33-6.39-1.07-2.44-1.6-5.05-1.6-7.85s.53-5.41,1.6-7.85c1.07-2.44,2.51-4.56,4.33-6.36,1.82-1.8,3.97-3.23,6.43-4.3s5.11-1.6,7.95-1.6,5.48.42,7.78,1.24c2.3.83,4.13,1.74,5.5,2.73v6.11c-2.37-1.89-4.68-3.14-6.92-3.73-2.25-.59-4.39-.89-6.43-.89s-3.84.39-5.54,1.17c-1.7.78-3.19,1.84-4.47,3.16s-2.29,2.88-3.02,4.65c-.73,1.78-1.1,3.66-1.1,5.65s.37,3.88,1.1,5.68c.73,1.8,1.74,3.36,3.02,4.69,1.28,1.33,2.77,2.38,4.47,3.16,1.7.78,3.55,1.17,5.54,1.17s4.18-.32,6.43-.96c2.25-.64,4.56-1.88,6.92-3.73v6.18c-1.33.95-3.14,1.84-5.43,2.66-2.3.83-4.91,1.24-7.85,1.24Z"/>
        <path class="cls-7" d="m1711.55,506.19c-2.7,0-5.24-.52-7.63-1.56-2.39-1.04-4.46-2.46-6.21-4.26-1.75-1.8-3.14-3.92-4.16-6.36-1.02-2.44-1.53-5.05-1.53-7.85s.51-5.41,1.53-7.85c1.02-2.44,2.4-4.56,4.16-6.36,1.75-1.8,3.82-3.22,6.21-4.26,2.39-1.04,4.93-1.56,7.63-1.56,1.51,0,2.98.2,4.4.6,1.42.4,2.76.96,4.01,1.67s2.38,1.54,3.37,2.49c.99.95,1.85,1.94,2.56,2.98v-6.82h5.47v38.21h-5.47v-6.89c-.71,1.04-1.56,2.04-2.56,2.98-.99.95-2.12,1.78-3.37,2.49-1.25.71-2.59,1.28-4.01,1.7-1.42.43-2.89.64-4.4.64Zm.28-5.4c1.94,0,3.75-.39,5.43-1.17,1.68-.78,3.15-1.83,4.4-3.16,1.25-1.32,2.24-2.88,2.95-4.65.71-1.77,1.07-3.66,1.07-5.65s-.36-3.87-1.07-5.65c-.71-1.77-1.69-3.33-2.95-4.65s-2.72-2.38-4.4-3.16c-1.68-.78-3.49-1.17-5.43-1.17s-3.75.39-5.43,1.17c-1.68.78-3.14,1.84-4.37,3.16s-2.2,2.88-2.91,4.65c-.71,1.78-1.07,3.66-1.07,5.65s.35,3.87,1.07,5.65c.71,1.78,1.68,3.33,2.91,4.65,1.23,1.33,2.69,2.38,4.37,3.16,1.68.78,3.49,1.17,5.43,1.17Z"/>
        <path class="cls-7" d="m1755.22,506.33c-1.47,0-2.89-.11-4.26-.32-1.37-.21-2.64-.47-3.8-.78-1.16-.31-2.23-.65-3.2-1.03-.97-.38-1.81-.71-2.52-.99v-6.25c2.13,1.23,4.43,2.21,6.89,2.95,2.46.73,4.73,1.1,6.82,1.1,2.51,0,4.43-.5,5.75-1.49,1.33-.99,1.99-2.34,1.99-4.05s-.64-3.08-1.92-4.12c-1.28-1.04-3.48-1.99-6.6-2.84-4.59-1.28-7.9-2.86-9.91-4.76-2.01-1.89-3.02-4.31-3.02-7.24,0-3.27,1.21-5.81,3.62-7.63,2.41-1.82,5.68-2.73,9.8-2.73,2.46,0,4.73.25,6.82.75,2.08.5,3.81,1.01,5.18,1.53v6.25c-4.12-2.13-8.12-3.2-12-3.2-2.41,0-4.26.43-5.54,1.28-1.28.85-1.92,2.11-1.92,3.76,0,1.52.62,2.77,1.85,3.76,1.23.99,3.43,1.94,6.61,2.84,4.55,1.23,7.85,2.82,9.91,4.76,2.06,1.94,3.09,4.47,3.09,7.6s-1.22,5.84-3.66,7.85c-2.44,2.01-5.76,3.02-9.98,3.02Z"/>
        <path class="cls-7" d="m1794.07,505.84c-1.85,0-3.55-.26-5.11-.78-1.56-.52-2.9-1.32-4.01-2.41-1.11-1.09-1.99-2.45-2.63-4.08-.64-1.63-.96-3.54-.96-5.72v-20.6h-8.88v-5.18h8.88v-9.23h5.89v9.23h12.22v5.18h-12.22v20.52c0,2.56.57,4.45,1.7,5.68,1.14,1.23,2.96,1.85,5.47,1.85.95,0,1.86-.07,2.73-.21s1.64-.28,2.31-.43v5.4c-.81.24-1.63.43-2.49.57-.85.14-1.82.21-2.91.21Z"/>
      </g>
    </g>
    <g>
      <path class="cls-4" d="m1675.06,534.5c-10.84,6.7-23.31,10.25-36.04,10.25-27.82,0-51.82-16.57-62.71-40.35h-9.3v-10.28h5.56c-1.61-5.84-2.49-11.97-2.49-18.31v-3.8h-3.07v-10.28h3.07v-21.93h-3.07v-10.28h3.07v-3.62c0-6.34.88-12.48,2.49-18.31h-5.56v-10.28h9.3c10.89-23.78,34.89-40.35,62.71-40.35,12.73,0,25.2,3.54,36.04,10.24,3.88,2.4,7.5,5.2,10.83,8.3h14.09c-5.54-6.68-12.13-12.48-19.52-17.05-12.47-7.71-26.8-11.78-41.44-11.78-43.68,0-79.22,35.54-79.22,79.22v49.91c0,43.68,35.54,79.22,79.22,79.22,14.65,0,28.98-4.07,41.45-11.78,7.36-4.55,14-10.36,19.55-17.04h-14.13c-3.34,3.11-6.96,5.91-10.82,8.3Z"/>
      <path class="cls-4" d="m1626.87,397.31h-50.56c-1.51,3.3-2.77,6.73-3.74,10.28h54.3v-10.28Z"/>
      <path class="cls-4" d="m1567.01,397.31v10.28h5.56c.98-3.55,2.24-6.98,3.74-10.28h-9.3Z"/>
      <rect class="cls-4" x="1570.08" y="429.51" width="56.79" height="10.28"/>
      <rect class="cls-4" x="1567.01" y="429.51" width="3.07" height="10.28"/>
      <rect class="cls-4" x="1570.08" y="461.72" width="56.79" height="10.28"/>
      <rect class="cls-4" x="1567.01" y="461.72" width="3.07" height="10.28"/>
      <path class="cls-4" d="m1626.87,494.12h-54.3c.98,3.55,2.24,6.98,3.74,10.28h50.56v-10.28Z"/>
      <path class="cls-4" d="m1567.01,494.12v10.28h9.3c-1.51-3.3-2.77-6.73-3.74-10.28h-5.56Z"/>
    </g>
  </g>
  <text class="cls-23" transform="translate(1539.5 1276.35)"><tspan class="cls-22" x="0" y="0">A</tspan><tspan x="27.72" y="0">TRAIR/RETER</tspan></text>
  <text class="cls-23" transform="translate(1217.51 1857.19)"><tspan x="0" y="0">Q</tspan><tspan class="cls-18" x="37.84" y="0">U</tspan><tspan x="67.6" y="0">ALIFICAR</tspan></text>
  <text class="cls-23" transform="translate(1879.36 1857.19)"><tspan x="0" y="0">DESEN</tspan><tspan class="cls-21" x="142.76" y="0">V</tspan><tspan x="172.36" y="0">O</tspan><tspan class="cls-17" x="210.2" y="0">L</tspan><tspan class="cls-20" x="227.76" y="0">VER</tspan></text>
</svg>