<svg width="121" height="24" viewBox="0 0 121 24" fill="none" xmlns="http://www.w3.org/2000/svg">
<path d="M101.107 0.164679C102.314 0.162602 103.52 0.16087 104.726 0.159882C104.869 0.159765 105.011 0.159643 105.154 0.159519C105.183 0.159495 105.211 0.15947 105.24 0.159445C105.699 0.159038 106.158 0.158298 106.616 0.157432C107.088 0.156549 107.559 0.156031 108.031 0.155841C108.321 0.155713 108.612 0.155312 108.902 0.154543C109.102 0.15404 109.302 0.153897 109.502 0.154018C109.616 0.154077 109.731 0.153996 109.846 0.153482C110.627 0.150164 111.399 0.197111 112.166 0.362317C112.189 0.367041 112.211 0.371766 112.235 0.376634C112.574 0.447404 112.908 0.527954 113.237 0.641713C113.31 0.666904 113.383 0.690971 113.456 0.715032C114.431 1.04212 115.325 1.56135 116.161 2.18215C116.184 2.19845 116.206 2.21474 116.229 2.23153C116.249 2.24684 116.269 2.26214 116.29 2.27791C116.309 2.29153 116.327 2.30515 116.346 2.31918C116.359 2.33143 116.372 2.34368 116.385 2.35631C116.385 2.37697 116.385 2.39763 116.385 2.41892C116.415 2.42831 116.415 2.42831 116.446 2.43788C116.563 2.49729 116.643 2.5835 116.735 2.67918C116.77 2.71498 116.805 2.75073 116.84 2.78644C116.857 2.8037 116.874 2.82096 116.891 2.83874C116.94 2.88694 116.991 2.93159 117.043 2.976C117.08 3.01021 117.08 3.01021 117.118 3.0451C117.118 3.06577 117.118 3.08643 117.118 3.10772C117.135 3.11604 117.153 3.12435 117.171 3.13292C117.404 3.26767 117.608 3.57166 117.763 3.79652C117.763 3.81718 117.763 3.83785 117.763 3.85914C117.792 3.86947 117.821 3.8798 117.851 3.89045C117.892 3.93924 117.892 3.93924 117.93 3.99807C117.949 4.02707 117.949 4.02707 117.969 4.05665C117.998 4.10961 117.998 4.10961 117.998 4.17223C118.017 4.17223 118.036 4.17223 118.056 4.17223C118.09 4.21452 118.09 4.21452 118.127 4.27459C118.141 4.29693 118.154 4.31926 118.169 4.34227C118.184 4.36688 118.199 4.39148 118.214 4.41683C118.238 4.45519 118.238 4.45519 118.261 4.49432C118.294 4.5482 118.327 4.60215 118.36 4.65616C118.404 4.72947 118.45 4.80221 118.495 4.87484C118.848 5.44378 119.14 6.06309 119.347 6.70825C119.368 6.7645 119.389 6.82062 119.411 6.87654C119.458 6.99988 119.495 7.12429 119.528 7.25249C119.548 7.31929 119.57 7.38495 119.594 7.45013C119.645 7.59406 119.68 7.74062 119.713 7.89017C119.725 7.94219 119.737 7.9942 119.749 8.04622C119.758 8.0865 119.758 8.0865 119.767 8.12758C119.78 8.18363 119.794 8.23955 119.808 8.29532C119.871 8.55089 119.914 8.80813 119.953 9.06879C119.964 9.14117 119.976 9.21345 119.987 9.28574C120.109 10.0721 120.119 10.8554 120.118 11.6504C120.118 11.7692 120.118 11.888 120.119 12.0069C120.123 12.929 120.101 13.8364 119.924 14.7429C119.915 14.7907 119.906 14.8386 119.897 14.8864C119.828 15.2448 119.745 15.5961 119.64 15.9444C119.624 15.9975 119.609 16.0506 119.594 16.1036C119.403 16.7467 119.155 17.359 118.848 17.9482C118.836 17.972 118.824 17.9958 118.811 18.0204C118.573 18.4819 118.296 18.9066 117.998 19.3258C117.98 19.3507 117.963 19.3756 117.945 19.4012C117.833 19.5576 117.713 19.7038 117.589 19.849C117.541 19.9064 117.494 19.9644 117.448 20.0244C117.381 20.1098 117.31 20.1873 117.235 20.265C117.204 20.3009 117.204 20.3009 117.171 20.3374C117.118 20.3903 117.118 20.3903 117.059 20.3903C117.052 20.4091 117.044 20.428 117.036 20.4474C117.001 20.5161 116.969 20.5532 116.914 20.6036C116.888 20.6276 116.888 20.6276 116.862 20.6522C116.833 20.6775 116.833 20.6775 116.805 20.7034C116.785 20.7211 116.766 20.7388 116.746 20.7571C116.45 21.025 116.15 21.2869 115.828 21.5174C115.807 21.5326 115.786 21.5478 115.765 21.5635C115.575 21.7011 115.379 21.8293 115.183 21.9557C115.152 21.9754 115.122 21.995 115.091 22.0153C112.717 23.5103 109.665 23.9251 105.914 23.2084C105.414 23.0678 104.921 22.9056 104.45 22.6758C104.407 22.6549 104.407 22.6549 104.364 22.6336C104.27 22.5878 104.176 22.5418 104.082 22.4958C104.05 22.4799 104.017 22.4641 103.984 22.4477C103.905 22.409 103.826 22.3702 103.747 22.3314C103.747 22.3108 103.747 22.2901 103.747 22.2688C103.726 22.2659 103.706 22.2629 103.685 22.2599C103.249 22.1452 102.801 21.7241 102.453 21.4318C102.361 21.3549 102.267 21.2814 102.172 21.2092C102.159 21.1973 102.147 21.1853 102.134 21.173C102.134 21.1523 102.134 21.1317 102.134 21.1104C102.117 21.1026 102.101 21.0949 102.084 21.0869C101.886 20.9723 101.737 20.7876 101.595 20.6045C101.533 20.5298 101.467 20.4605 101.401 20.3903C100.668 19.5804 100.668 19.5804 100.668 19.3258C100.648 19.3258 100.629 19.3258 100.609 19.3258C99.9673 18.0825 99.9673 18.0825 99.7866 17.422C99.765 17.3449 99.7415 17.2695 99.7168 17.1935C99.6609 17.0153 99.6214 16.8339 99.5826 16.6508C99.5754 16.6186 99.5681 16.5864 99.5606 16.5532C99.4152 15.8667 99.3921 15.1716 99.3952 14.471C99.3957 14.3579 99.3954 14.2449 99.3949 14.1319C99.3925 13.5038 99.418 12.9014 99.5918 12.2969C99.6006 12.2653 99.6095 12.2336 99.6186 12.201C99.6844 11.9732 99.7645 11.7682 99.8759 11.5611C99.8901 11.5304 99.9044 11.4996 99.919 11.468C100.219 10.8347 100.744 10.2086 101.313 9.83915C101.361 9.80688 101.361 9.80688 101.409 9.77396C101.973 9.39835 102.573 9.14708 103.219 8.98452C103.272 8.97115 103.325 8.95739 103.378 8.9436C104.136 8.76207 104.908 8.76093 105.68 8.76374C105.822 8.76416 105.964 8.76401 106.107 8.76394C106.352 8.76389 106.597 8.76418 106.843 8.76472C107.198 8.76548 107.552 8.76572 107.907 8.76584C108.483 8.76605 109.059 8.76667 109.635 8.76756C110.194 8.76842 110.753 8.76909 111.311 8.76949C111.363 8.76952 111.363 8.76952 111.416 8.76956C111.589 8.76968 111.763 8.7698 111.936 8.76992C113.37 8.77089 114.804 8.77254 116.238 8.77465C116.207 8.6563 116.175 8.53807 116.144 8.41985C116.135 8.38682 116.126 8.35378 116.117 8.31975C115.932 7.63316 115.628 6.94823 115.229 6.37327C115.183 6.30124 115.183 6.30124 115.183 6.23862C115.163 6.23862 115.144 6.23862 115.124 6.23862C115.096 6.19471 115.068 6.1506 115.041 6.1056C114.982 6.01133 114.913 5.92696 114.844 5.84139C114.821 5.8128 114.821 5.8128 114.797 5.78364C114.492 5.40996 114.158 5.08421 113.769 4.81125C113.752 4.79668 113.735 4.78211 113.717 4.7671C113.717 4.74643 113.717 4.72577 113.717 4.70448C113.696 4.69681 113.676 4.68914 113.656 4.68124C113.554 4.63473 113.463 4.57483 113.37 4.51271C111.979 3.60734 110.432 3.38663 108.831 3.38322C108.727 3.38297 108.623 3.38254 108.519 3.38214C108.34 3.38146 108.16 3.38089 107.981 3.38039C107.721 3.37968 107.461 3.3788 107.202 3.37788C106.781 3.37639 106.359 3.37504 105.938 3.37376C105.529 3.37253 105.121 3.37123 104.712 3.36985C104.674 3.36972 104.674 3.36972 104.635 3.36959C104.508 3.36916 104.382 3.36873 104.255 3.3683C103.206 3.36475 102.157 3.36142 101.107 3.35819C101.107 2.30433 101.107 1.25047 101.107 0.164679ZM103.365 12.2813C103.341 12.3028 103.317 12.3243 103.293 12.3464C103.194 12.4361 103.194 12.4361 103.101 12.5317C103.101 12.5524 103.101 12.5731 103.101 12.5943C103.058 12.6098 103.058 12.6098 103.013 12.6256C102.962 12.7004 102.916 12.7738 102.871 12.8526C102.857 12.8754 102.844 12.8981 102.831 12.9215C102.521 13.4732 102.469 14.0531 102.475 14.6823C102.475 14.7097 102.475 14.7372 102.475 14.7655C102.485 16.1948 102.905 17.4054 103.835 18.4491C103.853 18.4705 103.871 18.492 103.89 18.5141C104.445 19.1465 105.227 19.5528 105.975 19.858C105.994 19.866 106.014 19.874 106.033 19.8822C106.721 20.1629 107.474 20.2945 108.204 20.359C108.227 20.3611 108.251 20.3633 108.275 20.3655C108.934 20.4238 109.599 20.4016 110.256 20.3277C110.282 20.325 110.307 20.3223 110.333 20.3195C110.68 20.2813 111.015 20.2011 111.352 20.1085C111.372 20.1031 111.392 20.0976 111.412 20.092C111.611 20.0374 111.801 19.9814 111.986 19.8893C112.04 19.8704 112.094 19.8521 112.148 19.8345C112.785 19.6104 113.388 19.2209 113.922 18.7935C113.944 18.7755 113.967 18.7574 113.99 18.7388C114.137 18.62 114.274 18.4924 114.409 18.3598C114.472 18.2997 114.535 18.2421 114.6 18.1849C114.628 18.1585 114.656 18.132 114.684 18.1047C114.684 18.0841 114.684 18.0634 114.684 18.0421C114.701 18.0349 114.717 18.0277 114.734 18.0202C114.819 17.9689 114.872 17.9061 114.937 17.8288C114.96 17.8021 114.983 17.7755 115.006 17.748C115.068 17.6702 115.068 17.6702 115.097 17.5799C115.106 17.5568 115.115 17.5337 115.124 17.5098C115.153 17.4995 115.182 17.4892 115.212 17.4785C115.257 17.4233 115.257 17.4233 115.298 17.3544C115.321 17.3168 115.321 17.3168 115.345 17.2785C115.361 17.2522 115.377 17.2258 115.393 17.1987C115.41 17.1725 115.426 17.1463 115.443 17.1193C115.53 16.9955 115.53 16.9955 115.564 16.8524C115.583 16.8524 115.603 16.8524 115.623 16.8524C116.149 15.8632 116.508 14.8291 116.62 13.6902C116.624 13.6494 116.624 13.6494 116.628 13.6077C116.657 13.2767 116.653 12.9447 116.653 12.6125C116.653 12.508 116.653 12.4036 116.653 12.2992C116.653 12.2321 116.653 12.1649 116.653 12.0978C116.653 12.0516 116.653 12.0516 116.653 12.0044C116.653 11.975 116.653 11.9456 116.653 11.9154C116.653 11.89 116.653 11.8646 116.653 11.8384C116.649 11.7589 116.642 11.6815 116.634 11.6025C116.63 11.5645 116.63 11.5645 116.626 11.5257C116.624 11.5064 116.622 11.4871 116.62 11.4672C115.257 11.4665 113.894 11.4659 112.531 11.4656C112.37 11.4656 112.209 11.4655 112.047 11.4655C112.015 11.4655 111.983 11.4655 111.95 11.4655C111.432 11.4653 110.913 11.4651 110.395 11.4648C109.862 11.4645 109.33 11.4643 108.797 11.4643C108.469 11.4642 108.141 11.4641 107.812 11.4638C107.587 11.4637 107.362 11.4636 107.136 11.4637C107.006 11.4637 106.876 11.4637 106.746 11.4635C106.627 11.4633 106.508 11.4633 106.389 11.4634C106.346 11.4634 106.303 11.4634 106.26 11.4633C105.271 11.4612 104.154 11.5746 103.365 12.2813Z" fill="#FFC600"/>
<path d="M33.5403 0.369063C33.5756 0.375673 33.5756 0.375673 33.6116 0.382417C34.1082 0.47687 34.5857 0.624057 35.0633 0.795647C35.0999 0.808562 35.1366 0.821477 35.1743 0.834783C35.5193 0.957948 35.8501 1.10907 36.1813 1.2692C36.2236 1.28935 36.2236 1.28935 36.2667 1.30992C36.2939 1.32304 36.321 1.33616 36.349 1.34967C36.3731 1.3613 36.3973 1.37293 36.4222 1.38491C36.49 1.4223 36.5464 1.46579 36.6065 1.51575C36.6561 1.54598 36.7062 1.57527 36.7567 1.60381C37.0215 1.75624 37.2714 1.9229 37.5155 2.11062C37.5422 2.13105 37.5689 2.15147 37.5964 2.17251C38.0598 2.52952 38.0598 2.52952 38.2486 2.7368C38.271 2.75424 38.2933 2.77167 38.3164 2.78964C38.3327 2.8032 38.3491 2.81676 38.3659 2.83073C38.3659 2.85139 38.3659 2.87206 38.3659 2.89335C38.3828 2.90045 38.3997 2.90755 38.4172 2.91487C38.5005 2.96674 38.5404 3.03191 38.6005 3.11251C38.6312 3.14049 38.6624 3.16783 38.6939 3.1947C38.8405 3.32457 38.9517 3.48632 39.0696 3.64476C39.1041 3.68805 39.1041 3.68805 39.1392 3.73221C39.2338 3.85295 39.3191 3.9807 39.405 4.10853C39.4211 4.1322 39.4371 4.15587 39.4536 4.18026C39.7599 4.63413 39.7599 4.63413 39.8577 4.85407C39.9035 4.95547 39.9499 5.05465 40.0023 5.15236C40.4276 5.94846 40.6517 6.87526 40.7704 7.77755C40.7748 7.8104 40.7793 7.84325 40.7838 7.8771C40.9193 8.92855 40.9387 10.0533 40.7411 11.0963C40.7365 11.1207 40.732 11.1452 40.7273 11.1704C40.6141 11.7512 40.3409 12.4244 39.9787 12.8809C39.9593 12.8809 39.94 12.8809 39.92 12.8809C39.9126 12.9041 39.9052 12.9272 39.8976 12.9511C39.8588 13.0435 39.8181 13.0958 39.7515 13.1672C39.7295 13.1909 39.7075 13.2146 39.6849 13.239C39.6615 13.2635 39.6381 13.2881 39.614 13.3134C39.5902 13.3385 39.5665 13.3636 39.542 13.3895C39.0992 13.8515 39.0992 13.8515 38.9523 13.8515C38.9523 13.8722 38.9523 13.8928 38.9523 13.9141C38.8768 13.9675 38.8017 14.0167 38.7233 14.0648C38.7003 14.079 38.6773 14.0931 38.6537 14.1077C38.4835 14.2116 38.313 14.3051 38.1313 14.3837C38.1127 14.392 38.0941 14.4003 38.0749 14.4088C37.7479 14.5534 37.4193 14.6692 37.0756 14.7594C37.0545 14.7651 37.0333 14.7708 37.0115 14.7767C36.2218 14.985 35.4209 14.9924 34.613 14.9895C34.47 14.9891 34.327 14.9892 34.184 14.9893C33.9373 14.9894 33.6906 14.9891 33.4438 14.9885C33.0871 14.9878 32.7304 14.9875 32.3737 14.9874C31.7947 14.9872 31.2157 14.9866 30.6367 14.9857C30.0748 14.9848 29.5129 14.9842 28.9511 14.9838C28.9163 14.9837 28.8816 14.9837 28.8458 14.9837C28.6715 14.9836 28.4973 14.9835 28.323 14.9833C26.8811 14.9824 25.4392 14.9807 23.9974 14.9786C24.0251 15.0782 24.053 15.1778 24.0809 15.2774C24.0887 15.3053 24.0965 15.3333 24.1045 15.3621C24.3095 16.0938 24.6123 16.7619 25.0145 17.3933C25.0298 17.4174 25.0451 17.4415 25.0609 17.4663C25.1545 17.6103 25.2549 17.742 25.3665 17.8705C25.4049 17.9217 25.4049 17.9217 25.4049 17.9843C25.4223 17.9922 25.4397 18.0002 25.4576 18.0084C25.5293 18.0512 25.566 18.0944 25.6175 18.1623C25.709 18.2787 25.8078 18.3753 25.9179 18.4713C25.9398 18.4937 25.9398 18.4937 25.962 18.5165C25.962 18.5372 25.962 18.5579 25.962 18.5791C25.9788 18.5872 25.9955 18.5953 26.0128 18.6036C26.0858 18.6454 26.1425 18.6943 26.2058 18.7513C26.3983 18.9184 26.6039 19.0623 26.8124 19.2053C26.8378 19.2228 26.8631 19.2402 26.8893 19.2582C27.8497 19.8945 28.9768 20.2335 30.0966 20.3324C30.1265 20.3351 30.1563 20.3378 30.187 20.3406C30.5724 20.3709 30.9579 20.3692 31.3442 20.37C31.4489 20.3703 31.5536 20.3707 31.6584 20.3711C31.8393 20.3718 32.0202 20.3724 32.2012 20.3729C32.4627 20.3736 32.7243 20.3745 32.9859 20.3754C33.4104 20.3769 33.835 20.3782 34.2595 20.3795C34.6716 20.3807 35.0837 20.382 35.4958 20.3834C35.5212 20.3835 35.5467 20.3836 35.5729 20.3837C35.7006 20.3841 35.8283 20.3845 35.956 20.385C37.0134 20.3885 38.0709 20.3918 39.1283 20.3951C39.1283 21.4489 39.1283 22.5028 39.1283 23.5886C37.918 23.5907 36.7077 23.5924 35.4973 23.5934C35.354 23.5935 35.2107 23.5936 35.0673 23.5937C35.0388 23.5938 35.0102 23.5938 34.9808 23.5938C34.5207 23.5942 34.0605 23.595 33.6003 23.5958C33.127 23.5967 32.6538 23.5972 32.1805 23.5974C31.8892 23.5975 31.5979 23.5979 31.3066 23.5987C31.106 23.5992 30.9054 23.5994 30.7049 23.5992C30.5897 23.5992 30.4745 23.5993 30.3593 23.5998C29.5882 23.603 28.8294 23.5532 28.0715 23.3909C28.0374 23.3838 28.0374 23.3838 28.0025 23.3766C27.6388 23.3006 27.2817 23.2128 26.9297 23.0876C26.8988 23.0767 26.868 23.0658 26.8362 23.0546C26.3755 22.8905 25.9269 22.7151 25.4929 22.481C25.4507 22.4584 25.4507 22.4584 25.4078 22.4353C25.2065 22.3264 25.0107 22.212 24.8184 22.0857C24.7873 22.0659 24.7561 22.046 24.724 22.0256C24.5126 21.8895 24.3116 21.7437 24.1147 21.5848C24.0848 21.561 24.055 21.5372 24.0243 21.5126C23.7991 21.3314 23.5841 21.139 23.3716 20.9411C23.338 20.91 23.3043 20.8791 23.2703 20.8485C22.9482 20.5576 22.6775 20.2131 22.4139 19.8628C22.3858 19.8263 22.3576 19.7897 22.3295 19.7532C22.1256 19.4873 21.9429 19.2124 21.7688 18.9235C21.7494 18.8925 21.7301 18.8615 21.7101 18.8296C21.7101 18.7986 21.7101 18.7676 21.7101 18.7357C21.6908 18.7357 21.6714 18.7357 21.6515 18.7357C21.5591 18.551 21.5591 18.551 21.519 18.4706C21.4625 18.3569 21.4055 18.2436 21.3477 18.1307C21.2287 17.8967 21.122 17.6664 21.0368 17.4155C21.0105 17.3389 20.9816 17.2657 20.9496 17.1918C20.0429 15.032 19.9616 12.3559 20.1853 10.0318C20.1905 9.97571 20.1905 9.97571 20.1958 9.9185C20.2835 9.01411 20.4771 8.1296 20.7718 7.2766C20.7807 7.25065 20.7895 7.22469 20.7987 7.19795C20.9719 6.69572 21.1908 6.21954 21.4169 5.74246C21.4362 5.74246 21.4556 5.74246 21.4755 5.74246C21.4792 5.72426 21.4829 5.70606 21.4867 5.68731C21.6125 5.20319 22.0581 4.63312 22.3685 4.26348C22.4282 4.19097 22.4839 4.11539 22.5404 4.04004C22.6651 3.87651 22.7997 3.72846 22.9417 3.58215C22.9683 3.55373 22.9949 3.52532 23.0224 3.49605C23.0932 3.42038 23.1641 3.34472 23.235 3.26906C23.2535 3.24888 23.2721 3.2287 23.2912 3.20791C23.5035 2.97828 23.5035 2.97828 23.6162 2.89335C23.6355 2.89335 23.6549 2.89335 23.6748 2.89335C23.6748 2.87268 23.6748 2.85202 23.6748 2.83073C23.7349 2.77667 23.7951 2.72606 23.8581 2.67614C23.8839 2.65535 23.8839 2.65535 23.9102 2.63413C23.9436 2.6072 23.9772 2.5804 24.0108 2.55373C24.0488 2.5234 24.0862 2.49218 24.1234 2.46077C24.1733 2.42371 24.1733 2.42371 24.232 2.42371C24.232 2.40305 24.232 2.38239 24.232 2.3611C24.2829 2.32025 24.2829 2.32025 24.3584 2.27108C24.4029 2.24184 24.4029 2.24184 24.4482 2.21201C24.4651 2.20098 24.4819 2.18994 24.4993 2.17858C24.5591 2.13888 24.6182 2.09813 24.6773 2.05718C25.2651 1.65122 25.8682 1.3215 26.5192 1.04612C26.5446 1.03535 26.5701 1.02458 26.5963 1.01348C26.9742 0.855365 27.3606 0.7267 27.7508 0.607793C27.7859 0.597025 27.7859 0.597025 27.8218 0.586039C29.6578 0.0338737 31.6718 0.0183222 33.5403 0.369063ZM27.9267 3.98916C27.9049 3.99872 27.883 4.00827 27.8605 4.01812C26.9719 4.41141 26.1997 4.98537 25.5222 5.71116C25.5043 5.7292 25.4864 5.74724 25.4679 5.76582C25.0059 6.2363 24.5878 6.87932 24.3199 7.49577C24.3071 7.52374 24.2943 7.5517 24.2811 7.58052C23.9899 8.22937 23.8023 8.90835 23.6866 9.61544C23.6766 9.67646 23.6661 9.7374 23.6556 9.79832C23.5814 10.2391 23.5822 10.6793 23.583 11.1257C23.5832 11.2275 23.583 11.3293 23.5828 11.4311C23.5828 11.4967 23.5829 11.5623 23.5829 11.6279C23.5829 11.6579 23.5828 11.6879 23.5828 11.7188C23.5829 11.7475 23.5829 11.7763 23.583 11.8059C23.5831 11.8307 23.5831 11.8555 23.5831 11.881C23.5866 11.9664 23.5936 12.0502 23.6017 12.1352C23.6044 12.1635 23.6071 12.1917 23.6099 12.2208C23.6119 12.2423 23.614 12.2639 23.6162 12.286C24.9871 12.2868 26.3581 12.2873 27.729 12.2876C27.891 12.2877 28.053 12.2877 28.215 12.2878C28.2472 12.2878 28.2794 12.2878 28.3127 12.2878C28.8343 12.2879 29.3559 12.2882 29.8776 12.2885C30.4131 12.2887 30.9486 12.2889 31.4841 12.289C31.8144 12.289 32.1446 12.2892 32.4749 12.2894C32.7016 12.2896 32.9282 12.2896 33.1549 12.2896C33.2856 12.2896 33.4162 12.2896 33.5469 12.2898C33.6667 12.2899 33.7866 12.2899 33.9065 12.2898C33.9496 12.2898 33.9927 12.2899 34.0358 12.2899C34.4578 12.2909 34.8665 12.2663 35.2814 12.1804C35.3147 12.1738 35.3481 12.1673 35.3824 12.1606C36.0659 12.0226 36.637 11.7441 37.1343 11.2215C37.1539 11.2013 37.1736 11.1811 37.1939 11.1603C37.6906 10.6069 37.7947 9.74332 37.7919 9.00979C37.7757 8.2878 37.6838 7.52815 37.3982 6.86959C37.3886 6.84684 37.379 6.82409 37.3692 6.80066C37.2435 6.50233 37.118 6.22099 36.929 5.96163C36.9058 5.92766 36.8827 5.89361 36.8597 5.85951C36.7655 5.7202 36.7655 5.7202 36.6651 5.58592C36.6458 5.58592 36.6264 5.58592 36.6065 5.58592C36.6 5.56885 36.5935 5.55178 36.5868 5.53419C36.5355 5.4374 36.4673 5.3641 36.3939 5.28653C36.3784 5.27015 36.3629 5.25378 36.347 5.2369C35.8412 4.71166 35.2123 4.28841 34.5538 4.02047C34.5068 3.9996 34.4597 3.97873 34.4127 3.95785C32.4103 3.11937 29.9185 3.11152 27.9267 3.98916Z" fill="#FFC600"/>
<path d="M44.8064 0.16454C46.0063 0.16454 47.2062 0.16454 48.4425 0.16454C48.5441 0.417704 48.645 0.669669 48.7394 0.925739C48.7947 1.07563 48.8505 1.22473 48.9125 1.37165C48.97 1.50824 49.0211 1.64684 49.0711 1.78674C49.1515 2.00945 49.2355 2.23013 49.3222 2.45009C49.4556 2.79245 49.5857 3.13618 49.714 3.48075C49.7964 3.70169 49.8812 3.92146 49.9673 4.14078C49.9904 4.19972 50.0135 4.25867 50.0365 4.31763C50.0479 4.34676 50.0593 4.37589 50.071 4.4059C50.2118 4.76606 50.3511 5.12681 50.4891 5.48821C50.5275 5.58883 50.5659 5.68942 50.6044 5.79C50.7285 6.11452 50.8522 6.43916 50.9735 6.76486C51.0644 7.00871 51.1599 7.24999 51.2576 7.49084C51.3492 7.71894 51.4338 7.94896 51.5146 8.18159C51.5959 8.4146 51.6848 8.64373 51.7803 8.87051C51.8555 9.05077 51.9249 9.23349 51.9943 9.41634C52.0083 9.45303 52.0223 9.48972 52.0367 9.52752C52.1451 9.81278 52.2525 10.0985 52.359 10.3846C52.4157 10.5366 52.4733 10.6881 52.5325 10.8389C52.6211 11.0652 52.7055 11.2932 52.7897 11.5213C52.8476 11.6768 52.907 11.8306 52.9729 11.9823C53.0555 12.1737 53.1252 12.3697 53.1947 12.5668C53.2686 12.7757 53.3427 12.9834 53.4292 13.1867C53.6302 13.6601 53.8049 14.1465 53.9847 14.6293C54.1263 15.009 54.2692 15.3878 54.4187 15.7641C54.5325 16.0512 54.6434 16.3392 54.7512 16.629C54.8065 16.7774 54.8635 16.9248 54.923 17.0714C55.0243 17.3211 55.118 17.574 55.2121 17.8269C55.2738 17.9926 55.3357 18.1582 55.3977 18.3237C55.4154 18.3713 55.4154 18.3713 55.4336 18.4199C55.5325 18.6846 55.6316 18.9494 55.7418 19.2091C55.8295 19.4179 55.9068 19.6315 55.986 19.8442C56.0416 19.9934 56.0973 20.1425 56.1546 20.2962C56.5223 20.3065 56.89 20.3169 57.2689 20.3275C57.2979 20.2345 57.3269 20.1415 57.3569 20.0457C57.3795 19.979 57.4027 19.9124 57.4265 19.8461C57.4432 19.7993 57.4432 19.7993 57.4602 19.7515C57.4958 19.6588 57.5334 19.5681 57.5727 19.4772C57.6518 19.2926 57.7231 19.1053 57.793 18.9167C57.8121 18.8656 57.8121 18.8656 57.8315 18.8135C57.9069 18.6108 57.9814 18.4078 58.0551 18.2044C58.1533 17.9335 58.2565 17.6655 58.3665 17.3998C58.4969 17.0848 58.6164 16.7655 58.7351 16.4452C58.7856 16.3088 58.8364 16.1725 58.8872 16.0362C58.9049 15.9882 58.9049 15.9882 58.9231 15.9393C58.9792 15.7886 59.0373 15.6397 59.1011 15.4926C59.1839 15.3009 59.2537 15.1046 59.3234 14.9072C59.3959 14.7018 59.4688 14.4978 59.5538 14.298C59.6245 14.1288 59.6896 13.9571 59.7559 13.7859C59.7636 13.7659 59.7714 13.7459 59.7794 13.7253C59.8814 13.4619 59.9813 13.1978 60.0771 12.9317C60.1555 12.7139 60.2391 12.4986 60.326 12.2844C60.5421 11.7513 60.7433 11.2114 60.9448 10.6719C61.0292 10.446 61.1167 10.2217 61.2052 9.99763C61.2809 9.80522 61.3528 9.61184 61.4209 9.41622C61.4555 9.32449 61.4924 9.23532 61.5311 9.14557C61.6104 8.96093 61.6817 8.77352 61.7517 8.5847C61.7644 8.55066 61.7771 8.51663 61.7902 8.48157C61.8742 8.25585 61.9568 8.02958 62.0389 7.80306C62.1151 7.59346 62.1958 7.38614 62.2782 7.17928C62.415 6.83582 62.5475 6.49082 62.6765 6.14392C62.7838 5.85528 62.8946 5.56831 63.0108 5.28356C63.0956 5.07317 63.1754 4.86081 63.2541 4.64772C63.3088 4.50012 63.3666 4.35472 63.4276 4.20995C63.4748 4.0955 63.5176 3.97923 63.5606 3.86291C63.6552 3.60861 63.7514 3.35502 63.8483 3.10171C63.9688 2.78668 64.088 2.47112 64.2058 2.1549C64.3089 1.8784 64.4165 1.604 64.5244 1.32958C64.6506 1.00824 64.7754 0.686704 64.891 0.360817C64.9487 0.198961 64.9487 0.198961 64.981 0.16454C65.0281 0.161534 65.0753 0.160724 65.1225 0.160775C65.1532 0.160732 65.1838 0.160689 65.2154 0.160645C65.2493 0.160757 65.2832 0.16087 65.3181 0.160986C65.3535 0.160981 65.389 0.160976 65.4256 0.160972C65.5231 0.16099 65.6206 0.161147 65.7182 0.161365C65.82 0.161561 65.9218 0.16158 66.0237 0.161617C66.2166 0.161714 66.4096 0.161971 66.6025 0.162285C66.8222 0.162635 67.0418 0.162807 67.2614 0.162964C67.7133 0.163292 68.1652 0.163843 68.6171 0.16454C68.6034 0.208816 68.5897 0.253079 68.5759 0.297337C68.5683 0.321987 68.5606 0.346638 68.5528 0.372035C68.5168 0.485008 68.4766 0.596069 68.4359 0.707188C68.4272 0.730916 68.4186 0.754644 68.4097 0.779091C68.3915 0.828906 68.3733 0.878709 68.3551 0.928499C68.3277 1.00347 68.3004 1.0785 68.2731 1.15352C68.1877 1.38786 68.1008 1.62128 68.0094 1.85306C67.9385 2.03491 67.8706 2.21806 67.8022 2.40103C67.7752 2.47343 67.7481 2.54581 67.721 2.6182C67.6409 2.83238 67.5608 3.0466 67.4808 3.26083C67.457 3.32455 67.4331 3.38827 67.4093 3.45198C67.3979 3.48259 67.3864 3.5132 67.3746 3.54474C67.2705 3.82259 67.1647 4.09971 67.0583 4.37657C66.9945 4.54306 66.932 4.70993 66.872 4.87801C66.8147 5.03797 66.7542 5.1961 66.6921 5.35396C66.6205 5.53773 66.5517 5.72275 66.4827 5.90763C66.4556 5.98003 66.4285 6.05242 66.4015 6.1248C66.3213 6.33898 66.2413 6.5532 66.1612 6.76743C66.1374 6.83115 66.1136 6.89487 66.0898 6.95859C66.0783 6.9892 66.0669 7.01981 66.0551 7.05134C65.9509 7.3292 65.8451 7.60631 65.7387 7.88318C65.6749 8.04967 65.6125 8.21653 65.5524 8.38461C65.4943 8.54693 65.4331 8.70752 65.37 8.8677C65.1238 9.49465 64.8819 10.125 64.6605 10.7625C64.6086 10.9115 64.5526 11.0582 64.4945 11.2046C64.4407 11.3424 64.3893 11.481 64.3377 11.6197C64.2726 11.7943 64.2067 11.9681 64.1361 12.1402C64.0325 12.3951 63.9393 12.6542 63.8447 12.913C63.7581 13.1494 63.6697 13.3849 63.5789 13.6196C63.4954 13.8358 63.4154 14.0529 63.3395 14.2723C63.2881 14.4203 63.2326 14.5659 63.1749 14.7112C63.1115 14.8737 63.051 15.0375 62.9904 15.2013C62.9339 15.3531 62.8748 15.5034 62.8139 15.6533C62.7219 15.8814 62.6393 16.1127 62.5581 16.3454C62.4042 16.7867 62.4042 16.7867 62.3124 17.0013C62.2521 17.1461 62.1986 17.294 62.1439 17.4412C62.1179 17.511 62.0918 17.5808 62.0658 17.6506C62.053 17.685 62.0401 17.7195 62.0269 17.7549C61.9745 17.8957 61.9217 18.0363 61.869 18.177C61.8105 18.333 61.7521 18.489 61.6939 18.645C61.6836 18.6725 61.6734 18.6999 61.6628 18.7282C61.6435 18.7797 61.6243 18.8312 61.6051 18.8827C61.5545 19.0181 61.5027 19.1528 61.4498 19.2871C61.3575 19.5228 61.2731 19.7616 61.1883 20.0004C61.1273 20.1713 61.0641 20.3399 60.9933 20.5064C60.9331 20.6518 60.8793 20.8001 60.8244 20.9478C60.7983 21.0176 60.7723 21.0874 60.7462 21.1572C60.7334 21.1916 60.7206 21.2261 60.7074 21.2615C60.6549 21.4023 60.6022 21.5429 60.5494 21.6836C60.491 21.8396 60.4326 21.9956 60.3743 22.1516C60.2821 22.3985 60.1892 22.6449 60.0925 22.8898C60.0318 23.0483 59.9745 23.2083 59.9174 23.3684C59.8525 23.549 59.8525 23.549 59.82 23.5836C59.7399 23.5867 59.6606 23.5877 59.5805 23.5874C59.5424 23.5875 59.5424 23.5875 59.5035 23.5875C59.4177 23.5875 59.3319 23.5874 59.246 23.5872C59.1848 23.5872 59.1235 23.5872 59.0623 23.5872C58.8954 23.5872 58.7286 23.587 58.5617 23.5868C58.3876 23.5866 58.2134 23.5866 58.0393 23.5866C57.7092 23.5865 57.3792 23.5862 57.0492 23.5859C56.6735 23.5856 56.2979 23.5854 55.9223 23.5852C55.1493 23.5849 54.3764 23.5843 53.6034 23.5836C53.5846 23.5442 53.5659 23.5046 53.5472 23.4651C53.5368 23.4431 53.5263 23.4211 53.5156 23.3984C53.475 23.3085 53.4447 23.2163 53.4147 23.1218C53.3599 22.9542 53.3003 22.7906 53.2353 22.6273C53.1713 22.4641 53.1106 22.2996 53.0498 22.135C52.9932 21.9831 52.9341 21.8326 52.8731 21.6826C52.7819 21.4565 52.6998 21.2274 52.6193 20.9967C52.4996 20.6549 52.374 20.3171 52.2362 19.9831C52.0996 19.6441 51.9769 19.299 51.8511 18.9553C51.7562 18.6963 51.6603 18.4381 51.5562 18.1832C51.4631 17.953 51.3798 17.7192 51.2979 17.4843C51.2207 17.2631 51.1439 17.0429 51.0521 16.8281C50.9923 16.6847 50.9396 16.5382 50.8855 16.3924C50.7891 16.1335 50.6916 15.8751 50.5923 15.6175C50.5033 15.3865 50.4165 15.1548 50.333 14.9215C50.2875 14.795 50.2398 14.6697 50.1906 14.5448C50.0979 14.3084 50.0132 14.0689 49.9281 13.8293C49.867 13.6583 49.8038 13.4896 49.733 13.323C49.6733 13.179 49.6202 13.0321 49.566 12.8858C49.4724 12.6348 49.3781 12.3842 49.2819 12.1343C49.1775 11.8628 49.0744 11.5908 48.9722 11.3184C48.9647 11.2986 48.9573 11.2788 48.9497 11.2584C48.8295 10.9379 48.7123 10.6162 48.5978 10.2933C48.5494 10.1574 48.5004 10.0226 48.4442 9.89013C48.3638 9.70071 48.2949 9.50642 48.2244 9.31263C48.1243 9.03784 48.0217 8.76454 47.9147 8.49273C47.6971 7.93624 47.4825 7.3792 47.2858 6.81385C47.2267 6.64461 47.1655 6.47829 47.0953 6.31396C47.0267 6.14696 46.9667 5.976 46.9049 5.80602C46.8167 5.56399 46.7273 5.32274 46.6332 5.08327C46.5594 4.89488 46.4875 4.70565 46.4155 4.51649C46.4073 4.49497 46.3991 4.47345 46.3907 4.45129C46.2576 4.10172 46.1276 3.75095 45.9991 3.39941C45.9238 3.19382 45.8452 2.99077 45.7622 2.78862C45.6788 2.58022 45.6057 2.36716 45.5304 2.15533C45.4616 1.96234 45.3902 1.77094 45.3153 1.58058C45.2447 1.40094 45.1755 1.22067 45.1065 1.04032C45.0896 0.996411 45.0728 0.952525 45.0558 0.908663C45.0308 0.843885 45.006 0.779031 44.9812 0.714159C44.9593 0.657245 44.9593 0.657245 44.937 0.599181C44.887 0.456697 44.8473 0.31028 44.8064 0.16454Z" fill="#FFC600"/>
<path d="M72.136 0.164551C73.3359 0.164551 74.5358 0.164551 75.7721 0.164551C75.8495 0.37119 75.9269 0.577829 76.0067 0.79073C76.0627 0.92297 76.0627 0.92297 76.1196 1.05475C76.187 1.21561 76.2436 1.38118 76.3018 1.54606C76.3835 1.77742 76.4672 2.00617 76.5638 2.23094C76.6721 2.48338 76.7692 2.7406 76.8666 2.99796C76.8951 3.0732 76.9237 3.1484 76.9523 3.2236C77.0461 3.47063 77.1385 3.71814 77.2285 3.96676C77.3068 4.18281 77.3884 4.39704 77.4729 4.61042C77.507 4.69747 77.5411 4.78457 77.5752 4.87166C77.5842 4.89469 77.5932 4.91773 77.6025 4.94146C77.9244 5.7642 77.9244 5.7642 78.0655 6.14534C78.1399 6.34574 78.2177 6.54456 78.2958 6.74335C78.393 6.99102 78.4872 7.23958 78.5775 7.4902C78.6536 7.7013 78.7349 7.90979 78.8177 8.11802C78.9278 8.39521 79.0366 8.67275 79.1406 8.95259C79.2259 9.18185 79.3135 9.40993 79.4027 9.63747C79.506 9.90109 79.608 10.1652 79.7088 10.43C79.8363 10.765 79.9647 11.0995 80.0936 11.4338C80.1023 11.4563 80.1109 11.4787 80.1199 11.5018C80.1449 11.5668 80.17 11.6319 80.1951 11.6969C80.2071 11.7279 80.2071 11.7279 80.2193 11.7595C80.2684 11.8866 80.318 12.0135 80.3679 12.1404C80.4225 12.2802 80.4737 12.4207 80.5225 12.5629C80.611 12.8181 80.7066 13.0693 80.8112 13.3175C80.8838 13.4915 80.9505 13.668 81.0173 13.8446C81.0458 13.9196 81.0744 13.9946 81.1029 14.0696C81.1104 14.0893 81.1179 14.109 81.1256 14.1292C81.21 14.3508 81.2955 14.5719 81.381 14.793C81.5072 15.1194 81.6329 15.446 81.7547 15.7743C81.8487 16.0268 81.9471 16.2775 82.0449 16.5284C82.1458 16.7873 82.2435 17.0467 82.3323 17.3106C82.369 17.4133 82.4098 17.5127 82.452 17.6129C82.5286 17.7971 82.601 17.9833 82.6741 18.1692C82.6869 18.2016 82.6869 18.2016 82.6999 18.2346C82.8084 18.5108 82.9135 18.7877 83.0097 19.0691C83.0653 19.2298 83.1281 19.3871 83.1909 19.5448C83.2213 19.6216 83.2516 19.6984 83.2819 19.7752C83.3027 19.828 83.3236 19.8808 83.3444 19.9335C83.3541 19.9579 83.3637 19.9823 83.3736 20.0075C83.3822 20.0292 83.3908 20.0509 83.3997 20.0733C83.4285 20.1473 83.4563 20.2218 83.4842 20.2962C83.8519 20.2962 84.2196 20.2962 84.5985 20.2962C84.6565 20.1309 84.7146 19.9656 84.7744 19.7953C84.8305 19.6487 84.8877 19.5028 84.946 19.3572C85.0783 19.0259 85.205 18.6928 85.3272 18.3571C85.404 18.1464 85.4832 17.937 85.5661 17.7289C85.7112 17.3651 85.8521 16.9999 85.9887 16.6324C86.0961 16.3438 86.2069 16.0568 86.3231 15.7721C86.4026 15.5746 86.4776 15.3754 86.5518 15.1756C86.6349 14.9524 86.721 14.7306 86.8075 14.5089C86.9239 14.2103 87.0389 13.9118 87.1414 13.6074C87.1795 13.5006 87.222 13.397 87.2659 13.2928C87.4578 12.835 87.6289 12.3672 87.8019 11.901C87.8404 11.7974 87.879 11.6939 87.9175 11.5904C87.9353 11.5424 87.9353 11.5424 87.9534 11.4934C88.0096 11.3427 88.0676 11.1939 88.1315 11.0467C88.2142 10.855 88.2841 10.6588 88.3537 10.4613C88.4284 10.2499 88.5037 10.0401 88.5912 9.83434C88.6204 9.7656 88.6469 9.696 88.6726 9.62573C88.7142 9.51316 88.7571 9.40134 88.801 9.28977C88.8781 9.09274 88.9525 8.89465 89.0263 8.69625C89.1487 8.36758 89.2738 8.04034 89.4057 7.71588C89.4711 7.55329 89.534 7.38989 89.5951 7.22543C89.7685 6.75972 89.9443 6.29487 90.131 5.83502C90.2453 5.54885 90.3505 5.25853 90.4523 4.96705C90.4863 4.87722 90.5228 4.79002 90.561 4.70215C90.645 4.50658 90.7166 4.30683 90.7876 4.10557C90.8603 3.89982 90.9333 3.69541 91.0185 3.49515C91.0866 3.33227 91.1491 3.1668 91.2128 3.00193C91.2284 2.96155 91.244 2.92118 91.2596 2.88081C91.3733 2.58685 91.4858 2.2924 91.598 1.99778C91.7114 1.70013 91.8257 1.4029 91.9403 1.10578C91.9533 1.07212 91.9533 1.07212 91.9666 1.03777C92.2696 0.251942 92.2696 0.251942 92.3106 0.164551C93.5105 0.164551 94.7104 0.164551 95.9467 0.164551C95.8477 0.516853 95.8477 0.516852 95.8039 0.631984C95.7944 0.657289 95.7849 0.682594 95.775 0.708666C95.7651 0.734456 95.7553 0.760246 95.7451 0.786817C95.7347 0.814301 95.7242 0.841786 95.7135 0.870103C95.6488 1.04043 95.5829 1.21016 95.5162 1.37961C95.4566 1.53331 95.3993 1.68794 95.3417 1.84249C95.2688 2.03741 95.1947 2.23176 95.1202 2.42596C95.0034 2.73057 94.8879 3.03505 94.783 3.34461C94.7543 3.42455 94.7241 3.50147 94.691 3.57931C94.6098 3.77204 94.5393 3.96927 94.4677 4.16623C94.3782 4.41163 94.2875 4.65615 94.192 4.89894C94.1408 5.02984 94.0916 5.16155 94.0425 5.29335C94.022 5.34822 94.0015 5.4031 93.981 5.45797C93.9711 5.48441 93.9612 5.51086 93.951 5.53811C93.9138 5.63789 93.8764 5.73762 93.839 5.83735C93.7848 5.98211 93.7306 6.12692 93.6765 6.27176C93.6507 6.3409 93.6248 6.41004 93.599 6.47918C93.5869 6.51153 93.5748 6.54389 93.5624 6.57723C93.5033 6.73508 93.4435 6.89249 93.3819 7.04922C93.3002 7.25774 93.2231 7.46811 93.1463 7.6787C93.0574 7.92206 92.9672 8.1645 92.8726 8.40534C92.8213 8.53631 92.7721 8.66808 92.7229 8.79996C92.7024 8.85483 92.6819 8.9097 92.6614 8.96457C92.6515 8.99102 92.6417 9.01746 92.6315 9.04471C92.5942 9.14449 92.5569 9.24422 92.5195 9.34395C92.4652 9.48872 92.411 9.63352 92.3569 9.77836C92.3311 9.8475 92.3052 9.91664 92.2794 9.98578C92.2673 10.0181 92.2553 10.0505 92.2428 10.0838C92.1838 10.2417 92.1239 10.3991 92.0623 10.5558C91.9806 10.7643 91.9036 10.9747 91.8267 11.1853C91.7378 11.4289 91.6475 11.6716 91.5527 11.9126C91.5029 12.0401 91.4549 12.1684 91.407 12.2968C91.3867 12.3512 91.3663 12.4057 91.346 12.4602C91.3357 12.4876 91.3255 12.515 91.315 12.5432C91.256 12.701 91.1969 12.8587 91.1378 13.0164C91.088 13.1492 91.0384 13.282 90.9889 13.4149C90.9053 13.6395 90.8217 13.8638 90.7307 14.0853C90.631 14.3304 90.5429 14.5802 90.4541 14.8301C90.3852 15.0233 90.3137 15.215 90.2386 15.4056C90.1695 15.582 90.1023 15.7593 90.035 15.9365C90.0106 16.0006 89.9863 16.0647 89.9619 16.1288C89.7394 16.7108 89.7394 16.7108 89.5304 17.2985C89.4942 17.4032 89.4554 17.5055 89.4122 17.6072C89.3311 17.7994 89.2609 17.9962 89.1894 18.1926C89.1014 18.4341 89.0123 18.6747 88.9184 18.9136C88.8496 19.0896 88.7826 19.2664 88.7154 19.4431C88.6911 19.5072 88.6667 19.5713 88.6423 19.6354C88.4198 20.2174 88.4198 20.2174 88.2109 20.8051C88.1748 20.9094 88.1362 21.0113 88.0934 21.1126C88.0092 21.312 87.9346 21.5156 87.8589 21.7188C87.8431 21.7609 87.8274 21.803 87.8117 21.8451C87.7191 22.093 87.6278 22.3413 87.5377 22.5902C87.4162 22.925 87.2821 23.2537 87.1496 23.5837C85.0981 23.5837 83.0467 23.5837 80.933 23.5837C80.7366 23.1291 80.7366 23.1291 80.682 22.9555C80.6065 22.7232 80.5194 22.4977 80.4269 22.2726C80.2397 21.8146 80.0735 21.3472 79.9051 20.8811C79.8315 20.6775 79.7574 20.4748 79.6758 20.2747C79.5597 19.9897 79.4563 19.6992 79.3509 19.4096C79.2428 19.1135 79.1304 18.8199 79.0123 18.5281C78.9436 18.3555 78.8789 18.1811 78.8143 18.0067C78.7929 17.9493 78.7712 17.8921 78.7495 17.8349C78.6567 17.5903 78.569 17.3444 78.4856 17.0959C78.4373 16.9538 78.3839 16.8158 78.3255 16.6781C78.2634 16.5278 78.2077 16.3748 78.151 16.2221C78.1381 16.1875 78.1251 16.1529 78.1118 16.1173C78.0573 15.9713 78.0029 15.8251 77.9487 15.679C77.8802 15.495 77.8103 15.312 77.7368 15.1302C77.5878 14.7614 77.4527 14.3867 77.3152 14.0129C77.1441 13.5474 76.9721 13.0826 76.7919 12.621C76.7771 12.5831 76.7623 12.5452 76.7471 12.5062C76.7397 12.4871 76.7322 12.468 76.7246 12.4484C76.5988 12.1256 76.4794 11.8005 76.3622 11.4741C76.2309 11.1088 76.0917 10.7474 75.9494 10.3868C75.8617 10.1633 75.7771 9.93853 75.6982 9.71134C75.6906 9.68955 75.6831 9.66775 75.6753 9.6453C75.6545 9.58519 75.634 9.52499 75.6135 9.46478C75.5786 9.3664 75.5387 9.27127 75.4974 9.17579C75.4149 8.98426 75.343 8.78908 75.2718 8.59253C75.2435 8.51503 75.2151 8.43753 75.1868 8.36004C75.1795 8.34019 75.1723 8.32034 75.1648 8.29989C75.0831 8.07668 74.9997 7.85418 74.9162 7.63174C74.9088 7.61191 74.9013 7.59208 74.8937 7.57165C74.8575 7.47533 74.8214 7.37903 74.7852 7.28272C74.7304 7.13689 74.6758 6.991 74.6212 6.8451C74.6026 6.79569 74.5841 6.74628 74.5656 6.69687C74.5283 6.59743 74.4912 6.49796 74.454 6.39846C74.3545 6.13198 74.254 5.86596 74.152 5.60057C74.0464 5.32578 73.942 5.05049 73.8386 4.7748C73.8312 4.75503 73.8237 4.73525 73.8161 4.71488C73.696 4.39433 73.5788 4.07266 73.4643 3.74976C73.407 3.58903 73.3469 3.43098 73.2804 3.27434C73.2201 3.1285 73.1661 2.97986 73.111 2.83168C73.0981 2.79715 73.0852 2.76261 73.0719 2.72703C73.0233 2.59677 72.9748 2.46647 72.9263 2.33614C72.8099 2.02287 72.6909 1.71086 72.5696 1.3997C72.4536 1.10214 72.3391 0.804149 72.2313 0.503079C72.2215 0.475758 72.2116 0.448438 72.2015 0.420289C72.136 0.235128 72.136 0.235128 72.136 0.164551Z" fill="#FFC600"/>
<path d="M0.0108621 0.169434C0.997891 0.169434 1.98492 0.169434 3.00186 0.169434C3.0025 0.937512 3.0025 0.937512 3.00315 1.72111C3.00345 2.06308 3.00375 2.40505 3.00407 2.74701C3.00409 2.76874 3.00411 2.79047 3.00413 2.81285C3.00482 3.54456 3.00563 4.27627 3.00652 5.00797C3.00655 5.03186 3.00658 5.05575 3.00661 5.08036C3.00724 5.59959 3.0079 6.11882 3.00857 6.63805C3.0089 6.8927 3.00923 7.14734 3.00955 7.40199C3.00959 7.42733 3.00962 7.45267 3.00965 7.47878C3.0107 8.29941 3.01146 9.12003 3.01207 9.94066C3.01271 10.7843 3.01363 11.6279 3.01491 12.4716C3.01509 12.5909 3.01527 12.7102 3.01544 12.8294C3.01548 12.8529 3.01551 12.8764 3.01555 12.9006C3.01609 13.2778 3.01634 13.655 3.01648 14.0321C3.01662 14.4118 3.01708 14.7914 3.01786 15.171C3.01827 15.3766 3.01854 15.5821 3.01843 15.7876C3.01833 15.976 3.01863 16.1645 3.01925 16.3529C3.01941 16.4208 3.01942 16.4887 3.01926 16.5566C3.01698 17.6523 3.30702 18.5861 4.01902 19.3951C4.50305 19.8965 5.12744 20.2122 5.78759 20.3324C5.8153 20.3378 5.84301 20.3432 5.87155 20.3488C6.04159 20.3742 6.21358 20.3685 6.38491 20.3687C6.425 20.3688 6.46509 20.369 6.50518 20.3691C6.61505 20.3696 6.72491 20.3698 6.83478 20.37C6.95337 20.3703 7.07196 20.3707 7.19055 20.3711C7.39592 20.3718 7.60129 20.3723 7.80665 20.3728C8.10358 20.3735 8.4005 20.3744 8.69743 20.3753C9.17918 20.3768 9.66094 20.3782 10.1427 20.3795C10.6106 20.3807 11.0786 20.382 11.5465 20.3834C11.5754 20.3835 11.6042 20.3835 11.634 20.3836C11.7787 20.3841 11.9234 20.3845 12.0682 20.3849C13.2686 20.3885 14.4691 20.3918 15.6696 20.395C15.6696 21.4489 15.6696 22.5027 15.6696 23.5885C14.4105 23.5906 13.1513 23.5924 11.8922 23.5933C11.7433 23.5935 11.5943 23.5936 11.4454 23.5937C11.4158 23.5937 11.3861 23.5938 11.3556 23.5938C10.8766 23.5942 10.3977 23.5949 9.91879 23.5958C9.42672 23.5967 8.93465 23.5972 8.44257 23.5974C8.13937 23.5975 7.83617 23.5979 7.53298 23.5987C7.32456 23.5992 7.11614 23.5993 6.90773 23.5992C6.7878 23.5991 6.66788 23.5992 6.54795 23.5997C5.88904 23.6024 5.24818 23.5819 4.61465 23.3694C4.58919 23.3611 4.56373 23.3528 4.53751 23.3443C3.95848 23.155 3.42151 22.9096 2.91389 22.5553C2.88263 22.5349 2.85137 22.5144 2.81916 22.4933C2.78934 22.4738 2.75951 22.4542 2.72878 22.434C2.70229 22.4167 2.67579 22.3993 2.64849 22.3814C2.62963 22.3665 2.61076 22.3516 2.59133 22.3362C2.59133 22.3155 2.59133 22.2949 2.59133 22.2736C2.57005 22.2659 2.54877 22.2583 2.52684 22.2505C2.43461 22.2061 2.37721 22.1536 2.30359 22.0798C2.21558 21.9927 2.1275 21.9065 2.03602 21.8235C1.36906 21.2004 0.813465 20.3664 0.480038 19.4871C0.472417 19.467 0.464795 19.4469 0.456943 19.4262C0.348069 19.1352 0.255988 18.8405 0.179472 18.538C0.172614 18.5118 0.165756 18.4855 0.158689 18.4585C0.0221433 17.895 -0.00205422 17.3221 0.000283205 16.7432C0.000244742 16.6712 0.00016753 16.5991 5.54352e-05 16.5271C-0.000139428 16.3313 0.000208055 16.1354 0.000651705 15.9396C0.000994778 15.7495 0.00091888 15.5593 0.000855634 15.3692C0.000740637 14.9808 0.00103174 14.5924 0.00156093 14.204C0.00208292 13.8199 0.00242034 13.4358 0.00251566 13.0517C0.0025217 13.0277 0.00252775 13.0038 0.00253398 12.9791C0.00256375 12.8574 0.00259026 12.7358 0.00261552 12.6141C0.00279989 11.7541 0.00339145 10.8941 0.00422561 10.0341C0.00503463 9.19899 0.00565726 8.36394 0.00602969 7.52888C0.00604126 7.5031 0.00605283 7.47732 0.00606475 7.45076C0.00618075 7.19188 0.00629298 6.93299 0.00640246 6.67411C0.00662552 6.14681 0.00687371 5.61951 0.00713711 5.09222C0.00714918 5.06798 0.00716126 5.04374 0.00717371 5.01876C0.00754493 4.27636 0.00802256 3.53395 0.00860561 2.79154C0.00862211 2.77048 0.00863861 2.74941 0.00865561 2.72771C0.00932526 1.87495 0.0101078 1.02219 0.0108621 0.169434Z" fill="#FFC600"/>
</svg>
