<?xml version="1.0" encoding="UTF-8"?>
<svg id="Camada_1" data-name="Camada 1" xmlns="http://www.w3.org/2000/svg" viewBox="0 0 136.42 107.36">
  <defs>
    <style>
      .cls-1 {
        fill: #fcc505;
        stroke-width: 0px;
      }
    </style>
  </defs>
  <path class="cls-1" d="m68.21,107.36c-13.01,0-22.82-5.53-22.82-12.86s9.81-12.86,22.82-12.86,22.82,5.53,22.82,12.86-9.81,12.86-22.82,12.86Zm0-18.72c-9.81,0-15.82,3.8-15.82,5.86s6.01,5.86,15.82,5.86,15.82-3.79,15.82-5.86-6.01-5.86-15.82-5.86Z"/>
  <g>
    <path class="cls-1" d="m22.82,72.13c-13.01,0-22.82-5.53-22.82-12.86,0-6.08,6.59-10.96,16.79-12.44l1,6.93c-7.04,1.02-10.79,3.85-10.79,5.51,0,2.07,6.01,5.86,15.82,5.86s15.82-3.8,15.82-5.86c0-1.59-3.6-4.37-10.36-5.44l1.09-6.91c9.88,1.56,16.27,6.42,16.27,12.36,0,7.33-9.81,12.86-22.82,12.86Z"/>
    <path class="cls-1" d="m22.82,62.71l-2.8-3.72c-1.23-1.63-2.4-3.18-3.53-4.66C6.42,41.06.34,33.06.34,22.48.34,10.08,10.42,0,22.82,0s22.48,10.08,22.48,22.48c0,10.58-6.08,18.58-16.15,31.85-1.12,1.48-2.3,3.03-3.53,4.66l-2.8,3.72Zm0-55.71c-8.54,0-15.48,6.94-15.48,15.48s5.23,15.11,14.73,27.62c.25.32.5.65.75.98.25-.33.5-.66.75-.99,9.5-12.51,14.73-19.4,14.73-27.62s-6.94-15.48-15.48-15.48Z"/>
    <circle class="cls-1" cx="22.82" cy="22.55" r="7.34"/>
    <rect class="cls-1" x="42.23" y="62.01" width="7" height="28.94" transform="translate(-40.95 55.81) rotate(-45.71)"/>
    <path class="cls-1" d="m113.6,72.13c-13.01,0-22.82-5.53-22.82-12.86,0-5.94,6.38-10.79,16.27-12.36l1.09,6.91c-6.76,1.07-10.36,3.85-10.36,5.44,0,2.07,6.01,5.86,15.82,5.86s15.82-3.8,15.82-5.86c0-1.66-3.75-4.49-10.79-5.51l1-6.93c10.2,1.47,16.79,6.36,16.79,12.44,0,7.33-9.81,12.86-22.82,12.86Z"/>
    <path class="cls-1" d="m113.6,62.71l-2.8-3.72c-1.23-1.63-2.4-3.18-3.53-4.66-10.07-13.27-16.15-21.28-16.15-31.85,0-12.39,10.08-22.48,22.48-22.48s22.48,10.08,22.48,22.48c0,10.58-6.08,18.59-16.16,31.85-1.12,1.48-2.3,3.03-3.53,4.66l-2.8,3.72Zm0-55.71c-8.54,0-15.48,6.94-15.48,15.48s5.23,15.11,14.73,27.62c.25.33.5.65.75.99.25-.33.5-.66.75-.98,9.5-12.51,14.73-19.4,14.73-27.62s-6.94-15.48-15.48-15.48Z"/>
    <circle class="cls-1" cx="113.6" cy="22.55" r="7.34"/>
    <rect class="cls-1" x="76.21" y="72.98" width="28.94" height="7" transform="translate(-27.64 85.08) rotate(-44.3)"/>
  </g>
</svg>