<?xml version="1.0" encoding="UTF-8"?>
<svg id="Camada_1" data-name="Camada 1" xmlns="http://www.w3.org/2000/svg" viewBox="0 0 110.05 110.05">
  <defs>
    <style>
      .cls-1 {
        fill: #fcc505;
        stroke-width: 0px;
      }
    </style>
  </defs>
  <path class="cls-1" d="m32.77,110.05l-9.6-22.68L.42,78.15l9.2-23.4L0,32.73l22.68-9.6L31.91.35l22.78,9.23L77.33,0l9.58,22.64,22.78,9.23-9.23,22.78,9.58,22.64-22.64,9.58-9.22,22.75-23.4-9.2-22.02,9.62Zm-23.3-35.78l19.02,7.71,7.97,18.83,18.2-7.95,19.65,7.73,7.71-19.02,18.86-7.98-7.98-18.86,7.69-18.98-18.98-7.69-7.98-18.86-18.86,7.98-18.98-7.69-7.69,18.98-18.83,7.97,7.95,18.2-7.73,19.65Z"/>
  <polygon class="cls-1" points="52.8 65.45 42.47 54.64 47.53 49.8 52.98 55.51 64.06 44.74 68.94 49.75 52.8 65.45"/>
  <path class="cls-1" d="m55.04,80.49c-14.05,0-25.49-11.43-25.49-25.49s11.43-25.49,25.49-25.49,25.49,11.43,25.49,25.49-11.43,25.49-25.49,25.49Zm0-43.98c-10.19,0-18.49,8.29-18.49,18.49s8.29,18.49,18.49,18.49,18.49-8.29,18.49-18.49-8.29-18.49-18.49-18.49Z"/>
</svg>