<svg width="87" height="100" viewBox="0 0 87 100" fill="none" xmlns="http://www.w3.org/2000/svg">
<path d="M41.2083 61.9766L26.9822 47.993L31.7386 43.2455L41.1651 52.5247L59.6288 34.0957L64.3853 38.8432L41.2083 61.9766Z" fill="#AEAEAE"/>
<path d="M43.5 100L42.419 99.6547C41.4677 99.3526 18.6799 91.4113 6.05368 64.0483C0.605368 52.1364 0.0432406 21.4933 0.0432406 20.1985L0 17.9111L42.7649 0H44.1054L44.7972 0.258956L86.9568 17.9111L86.9135 20.1985C86.9135 21.4933 86.3514 52.1364 80.9031 64.0483C68.2768 91.4113 45.4891 99.3526 44.5378 99.6547L43.5 100ZM6.83201 22.3565C7.13469 32.1968 8.47515 53.129 12.1938 61.243C22.0527 82.65 39.0895 91.0229 43.5 92.8787C47.9538 91.0229 64.9473 82.65 74.8062 61.243C78.5249 53.129 79.8653 32.24 80.168 22.3565L43.5 6.9918L6.83201 22.3565Z" fill="#AEAEAE"/>
</svg>
