<?xml version="1.0" encoding="utf-8"?>
<!-- Generator: Adobe Illustrator 28.0.0, SVG Export Plug-In . SVG Version: 6.00 Build 0)  -->
<svg version="1.1" id="Camada_1" xmlns="http://www.w3.org/2000/svg" xmlns:xlink="http://www.w3.org/1999/xlink" x="0px" y="0px"
	 viewBox="0 0 2880 1620" style="enable-background:new 0 0 2880 1620;" xml:space="preserve">
<style type="text/css">
	.st0{fill:#FCC505;}
</style>
<g>
	<g>
		<polygon class="st0" points="1114.9,1152.9 1114.9,1162.1 1175.4,1139.7 1175.4,1124 1114.9,1101.4 1114.9,1110.6 1167,1130.3 
			1167,1133.3 		"/>
		<polygon class="st0" points="1175.4,1000.1 1175.4,990.9 1114.9,1013.3 1114.9,1029 1175.4,1051.6 1175.4,1042.4 1123.2,1022.7 
			1123.2,1019.7 		"/>
		<polygon class="st0" points="1175.4,908.4 1114.9,886 1114.9,895.1 1167,914.8 1167,917.7 1114.9,937.4 1114.9,946.6 
			1175.4,924.1 		"/>
		<polygon class="st0" points="1175.4,802.4 1114.9,780 1114.9,789.2 1167,808.8 1167,811.7 1114.9,831.3 1114.9,840.5 
			1175.4,818.1 		"/>
		<polygon class="st0" points="1175.4,696.4 1114.9,674 1114.9,683.2 1167,702.8 1167,705.7 1114.9,725.4 1114.9,734.5 
			1175.4,712.1 		"/>
		<polygon class="st0" points="1175.4,589.4 1114.9,566.9 1114.9,576.1 1167,595.9 1167,598.7 1114.9,618.4 1114.9,627.6 
			1175.4,605.2 		"/>
		<polygon class="st0" points="1114.9,1457.6 1175.4,1480 1175.4,1470.8 1123.2,1451.2 1123.2,1448.3 1175.4,1428.6 1175.4,1419.5 
			1114.9,1441.9 		"/>
		<polygon class="st0" points="1114.9,1640.6 1167,1660.2 1167,1663.1 1114.9,1682.9 1114.9,1692.1 1175.4,1669.5 1175.4,1653.8 
			1114.9,1631.4 		"/>
		<polygon class="st0" points="1114.9,1534.6 1167,1554.3 1167,1557.1 1114.9,1576.9 1114.9,1586.1 1175.4,1563.6 1175.4,1547.8 
			1114.9,1525.4 		"/>
		<polygon class="st0" points="1114.9,1322.7 1167,1342.3 1167,1345.2 1114.9,1364.8 1114.9,1374 1175.4,1351.6 1175.4,1335.9 
			1114.9,1313.5 		"/>
		<polygon class="st0" points="1389.1,1374 1404.9,1374 1427.4,1313.5 1418.2,1313.5 1398.6,1365.6 1395.6,1365.6 1375.9,1313.5 
			1366.7,1313.5 		"/>
		<polygon class="st0" points="1305.2,1313.5 1282.8,1374 1292,1374 1311.6,1321.9 1314.5,1321.9 1334.3,1374 1343.4,1374 
			1320.9,1313.5 		"/>
		<polygon class="st0" points="1236.9,1374 1259.5,1313.5 1250.3,1313.5 1230.5,1365.6 1227.6,1365.6 1208,1313.5 1198.8,1313.5 
			1221.2,1374 		"/>
		<polygon class="st0" points="1419,1133.3 1366.7,1152.9 1366.7,1162.1 1427.4,1139.7 1427.4,1124 1366.7,1101.4 1366.7,1110.6 
			1419,1130.3 		"/>
		<polygon class="st0" points="1320.9,1162.1 1343.4,1101.4 1334.3,1101.4 1314.5,1153.7 1311.6,1153.7 1292,1101.4 1282.8,1101.4 
			1305.2,1162.1 		"/>
		<polygon class="st0" points="1236.9,1101.4 1221.2,1101.4 1198.8,1162.1 1208,1162.1 1227.6,1109.8 1230.5,1109.8 1250.3,1162.1 
			1259.5,1162.1 		"/>
		<polygon class="st0" points="1227.6,999.3 1230.5,999.3 1250.3,1051.6 1259.5,1051.6 1236.9,990.9 1221.2,990.9 1198.8,1051.6 
			1208,1051.6 		"/>
		<polygon class="st0" points="1320.9,1051.6 1343.4,990.9 1334.3,990.9 1314.5,1043.2 1311.6,1043.2 1292,990.9 1282.8,990.9 
			1305.2,1051.6 		"/>
		<polygon class="st0" points="1427.4,1042.4 1375.1,1022.7 1375.1,1019.7 1427.4,1000.1 1427.4,990.9 1366.7,1013.3 1366.7,1029 
			1427.4,1051.6 		"/>
		<polygon class="st0" points="1123.2,1236.4 1175.4,1216.6 1175.4,1207.4 1114.9,1229.9 1114.9,1245.7 1175.4,1268.1 
			1175.4,1258.9 1123.2,1239.2 		"/>
		<polygon class="st0" points="1236.9,1207.4 1221.2,1207.4 1198.8,1268.1 1208,1268.1 1227.6,1215.8 1230.5,1215.8 1250.3,1268.1 
			1259.5,1268.1 		"/>
		<polygon class="st0" points="1320.9,1268.1 1343.4,1207.4 1334.3,1207.4 1314.5,1259.7 1311.6,1259.7 1292,1207.4 1282.8,1207.4 
			1305.2,1268.1 		"/>
		<polygon class="st0" points="1427.4,1216.6 1427.4,1207.4 1366.7,1229.9 1366.7,1245.7 1427.4,1268.1 1427.4,1258.9 
			1375.1,1239.2 1375.1,1236.4 		"/>
		<polygon class="st0" points="1227.6,894.3 1230.5,894.3 1250.3,946.6 1259.5,946.6 1236.9,886 1221.2,886 1198.8,946.6 
			1208,946.6 		"/>
		<polygon class="st0" points="1343.4,937.4 1291.2,917.7 1291.2,914.8 1343.4,895.1 1343.4,886 1282.8,908.4 1282.8,924.1 
			1343.4,946.6 		"/>
		<polygon class="st0" points="1404.9,946.6 1427.4,886 1418.2,886 1398.6,938.2 1395.6,938.2 1375.9,886 1366.7,886 1389.1,946.6 
					"/>
		<polygon class="st0" points="1404.9,840.5 1427.4,780 1418.2,780 1398.6,832.1 1395.6,832.1 1375.9,780 1366.7,780 1389.1,840.5 
					"/>
		<polygon class="st0" points="1305.2,780 1282.8,840.5 1292,840.5 1311.6,788.4 1314.5,788.4 1334.3,840.5 1343.4,840.5 
			1320.9,780 		"/>
		<polygon class="st0" points="1236.9,840.5 1259.5,780 1250.3,780 1230.5,832.1 1227.6,832.1 1208,780 1198.8,780 1221.2,840.5 		
			"/>
		<polygon class="st0" points="1227.6,682.4 1230.5,682.4 1250.3,734.5 1259.5,734.5 1236.9,674 1221.2,674 1198.8,734.5 
			1208,734.5 		"/>
		<polygon class="st0" points="1343.4,725.4 1291.2,705.7 1291.2,702.8 1343.4,683.2 1343.4,674 1282.8,696.4 1282.8,712.1 
			1343.4,734.5 		"/>
		<polygon class="st0" points="1404.9,734.5 1427.4,674 1418.2,674 1398.6,726.2 1395.6,726.2 1375.9,674 1366.7,674 1389.1,734.5 
					"/>
		<polygon class="st0" points="1404.9,627.6 1427.4,566.9 1418.2,566.9 1398.6,619.2 1395.6,619.2 1375.9,566.9 1366.7,566.9 
			1389.1,627.6 		"/>
		<polygon class="st0" points="1311.6,575.3 1314.5,575.3 1334.3,627.6 1343.4,627.6 1320.9,566.9 1305.2,566.9 1282.8,627.6 
			1292,627.6 		"/>
		<polygon class="st0" points="1236.9,627.6 1259.5,566.9 1250.3,566.9 1230.5,619.2 1227.6,619.2 1208,566.9 1198.8,566.9 
			1221.2,627.6 		"/>
		<polygon class="st0" points="1236.9,1419.5 1221.2,1419.5 1198.8,1480 1208,1480 1227.6,1427.9 1230.5,1427.9 1250.3,1480 
			1259.5,1480 		"/>
		<polygon class="st0" points="1343.4,1419.5 1334.3,1419.5 1314.5,1471.6 1311.6,1471.6 1292,1419.5 1282.8,1419.5 1305.2,1480 
			1320.9,1480 		"/>
		<polygon class="st0" points="1427.4,1470.8 1375.1,1451.2 1375.1,1448.3 1427.4,1428.6 1427.4,1419.5 1366.7,1441.9 
			1366.7,1457.6 1427.4,1480 		"/>
		<polygon class="st0" points="1427.4,1653.8 1366.7,1631.4 1366.7,1640.6 1419,1660.2 1419,1663.1 1366.7,1682.9 1366.7,1692.1 
			1427.4,1669.5 		"/>
		<polygon class="st0" points="1305.2,1692.1 1320.9,1692.1 1343.4,1631.4 1334.3,1631.4 1314.5,1683.7 1311.6,1683.7 1292,1631.4 
			1282.8,1631.4 		"/>
		<polygon class="st0" points="1221.2,1631.4 1198.8,1692.1 1208,1692.1 1227.6,1639.8 1230.5,1639.8 1250.3,1692.1 1259.5,1692.1 
			1236.9,1631.4 		"/>
		<polygon class="st0" points="1236.9,1525.4 1221.2,1525.4 1198.8,1586.1 1208,1586.1 1227.6,1533.8 1230.5,1533.8 1250.3,1586.1 
			1259.5,1586.1 		"/>
		<polygon class="st0" points="1282.8,1563.6 1343.4,1586.1 1343.4,1576.9 1291.2,1557.1 1291.2,1554.3 1343.4,1534.6 
			1343.4,1525.4 1282.8,1547.8 		"/>
		<polygon class="st0" points="1418.2,1525.4 1398.6,1577.7 1395.6,1577.7 1375.9,1525.4 1366.7,1525.4 1389.1,1586.1 
			1404.9,1586.1 1427.4,1525.4 		"/>
		<polygon class="st0" points="-3.8,1124 -64.4,1101.4 -64.4,1110.6 -12.2,1130.3 -12.2,1133.3 -64.4,1152.9 -64.4,1162.1 
			-3.8,1139.7 		"/>
		<polygon class="st0" points="-3.8,1042.4 -56,1022.7 -56,1019.7 -3.8,1000.1 -3.8,990.9 -64.4,1013.3 -64.4,1029 -3.8,1051.6 		
			"/>
		<polygon class="st0" points="-3.8,908.4 -64.4,886 -64.4,895.1 -12.2,914.8 -12.2,917.7 -64.4,937.4 -64.4,946.6 -3.8,924.1 		"/>
		<polygon class="st0" points="-3.8,802.4 -64.4,780 -64.4,789.2 -12.2,808.8 -12.2,811.7 -64.4,831.3 -64.4,840.5 -3.8,818.1 		"/>
		<polygon class="st0" points="-3.8,696.4 -64.4,674 -64.4,683.2 -12.2,702.8 -12.2,705.7 -64.4,725.4 -64.4,734.5 -3.8,712.1 		"/>
		<polygon class="st0" points="-3.8,589.4 -64.4,566.9 -64.4,576.1 -12.2,595.9 -12.2,598.7 -64.4,618.4 -64.4,627.6 -3.8,605.2 		
			"/>
		<polygon class="st0" points="-3.8,1470.8 -56,1451.2 -56,1448.3 -3.8,1428.6 -3.8,1419.5 -64.4,1441.9 -64.4,1457.6 -3.8,1480 		
			"/>
		<polygon class="st0" points="-3.8,1653.8 -64.4,1631.4 -64.4,1640.6 -12.2,1660.2 -12.2,1663.1 -64.4,1682.9 -64.4,1692.1 
			-3.8,1669.5 		"/>
		<polygon class="st0" points="-3.8,1547.8 -64.4,1525.4 -64.4,1534.6 -12.2,1554.3 -12.2,1557.1 -64.4,1576.9 -64.4,1586.1 
			-3.8,1563.6 		"/>
		<polygon class="st0" points="-3.8,1335.9 -64.4,1313.5 -64.4,1322.7 -12.2,1342.3 -12.2,1345.2 -64.4,1364.9 -64.4,1374 
			-3.8,1351.6 		"/>
		<polygon class="st0" points="332.1,1229.9 271.5,1207.4 271.5,1216.6 323.8,1236.4 323.8,1239.2 271.5,1258.9 271.5,1268.1 
			332.1,1245.7 		"/>
		<polygon class="st0" points="384.4,1215.8 387.3,1215.8 406.9,1268.1 416.1,1268.1 393.7,1207.4 378,1207.4 355.5,1268.1 
			364.6,1268.1 		"/>
		<polygon class="st0" points="500.1,1216.6 500.1,1207.4 439.5,1229.9 439.5,1245.7 500.1,1268.1 500.1,1258.9 447.8,1239.2 
			447.8,1236.4 		"/>
		<polygon class="st0" points="561.6,1268.1 584,1207.4 574.9,1207.4 555.2,1259.7 552.3,1259.7 532.7,1207.4 523.5,1207.4 
			545.9,1268.1 		"/>
		<polygon class="st0" points="668,1229.9 607.5,1207.4 607.5,1216.6 659.6,1236.4 659.6,1239.2 607.5,1258.9 607.5,1268.1 
			668,1245.7 		"/>
		<polygon class="st0" points="720.2,1215.8 723.1,1215.8 742.9,1268.1 752.1,1268.1 729.5,1207.4 713.8,1207.4 691.4,1268.1 
			700.6,1268.1 		"/>
		<polygon class="st0" points="836,1229.9 775.4,1207.4 775.4,1216.6 827.7,1236.4 827.7,1239.2 775.4,1258.9 775.4,1268.1 
			836,1245.7 		"/>
		<polygon class="st0" points="897.5,1268.1 920,1207.4 910.8,1207.4 891.2,1259.7 888.2,1259.7 868.5,1207.4 859.4,1207.4 
			881.9,1268.1 		"/>
		<polygon class="st0" points="1004,1258.9 951.7,1239.2 951.7,1236.4 1004,1216.6 1004,1207.4 943.3,1229.9 943.3,1245.7 
			1004,1268.1 		"/>
		<polygon class="st0" points="1087.9,1229.9 1027.3,1207.4 1027.3,1216.6 1079.5,1236.4 1079.5,1239.2 1027.3,1258.9 
			1027.3,1268.1 1087.9,1245.7 		"/>
		<polygon class="st0" points="1065.5,1051.6 1087.9,990.9 1078.8,990.9 1059.1,1043.2 1056.2,1043.2 1036.4,990.9 1027.3,990.9 
			1049.8,1051.6 		"/>
		<polygon class="st0" points="1004,1013.3 943.3,990.9 943.3,1000.1 995.6,1019.7 995.6,1022.7 943.3,1042.4 943.3,1051.6 
			1004,1029 		"/>
		<polygon class="st0" points="888.2,999.3 891.2,999.3 910.8,1051.6 920,1051.6 897.5,990.9 881.9,990.9 859.4,1051.6 
			868.5,1051.6 		"/>
		<polygon class="st0" points="836,1042.4 783.8,1022.7 783.8,1019.7 836,1000.1 836,990.9 775.4,1013.3 775.4,1029 836,1051.6 		
			"/>
		<polygon class="st0" points="729.5,1051.6 752.1,990.9 742.9,990.9 723.1,1043.2 720.3,1043.2 700.6,990.9 691.4,990.9 
			713.8,1051.6 		"/>
		<polygon class="st0" points="668,1042.4 615.8,1022.7 615.8,1019.7 668,1000.1 668,990.9 607.5,1013.3 607.5,1029 668,1051.6 		
			"/>
		<polygon class="st0" points="552.3,999.3 555.2,999.3 574.9,1051.6 584,1051.6 561.6,990.9 545.9,990.9 523.5,1051.6 
			532.7,1051.6 		"/>
		<polygon class="st0" points="439.5,1042.4 439.5,1051.6 500.1,1029 500.1,1013.3 439.5,990.9 439.5,1000.1 491.7,1019.7 
			491.7,1022.7 		"/>
		<polygon class="st0" points="416.1,1042.4 363.8,1022.7 363.8,1019.7 416.1,1000.1 416.1,990.9 355.5,1013.3 355.5,1029 
			416.1,1051.6 		"/>
		<polygon class="st0" points="309.7,1051.6 332.1,990.9 323,990.9 303.3,1043.2 300.4,1043.2 280.7,990.9 271.5,990.9 294,1051.6 
					"/>
		<polygon class="st0" points="332.1,1364.8 279.9,1345.2 279.9,1342.3 332.1,1322.7 332.1,1313.5 271.5,1335.9 271.5,1351.6 
			332.1,1374 		"/>
		<polygon class="st0" points="225.6,1374 248.2,1313.5 239,1313.5 219.4,1365.6 216.3,1365.6 196.7,1313.5 187.5,1313.5 
			209.9,1374 		"/>
		<polygon class="st0" points="126,1313.5 103.6,1374 112.7,1374 132.4,1321.9 135.3,1321.9 155.1,1374 164.2,1374 141.7,1313.5 		
			"/>
		<polygon class="st0" points="57.7,1374 80.3,1313.5 71.1,1313.5 51.3,1365.6 48.4,1365.6 28.8,1313.5 19.6,1313.5 42,1374 		"/>
		<polygon class="st0" points="393.7,1374 416.1,1313.5 406.9,1313.5 387.3,1365.6 384.4,1365.6 364.6,1313.5 355.5,1313.5 
			378,1374 		"/>
		<polygon class="st0" points="468.4,1321.9 471.3,1321.9 490.9,1374 500.1,1374 477.7,1313.5 461.9,1313.5 439.5,1374 448.6,1374 
					"/>
		<polygon class="st0" points="584,1364.8 531.9,1345.2 531.9,1342.3 584,1322.7 584,1313.5 523.5,1335.9 523.5,1351.6 584,1374 		
			"/>
		<polygon class="st0" points="645.6,1374 668,1313.5 658.8,1313.5 639.2,1365.6 636.3,1365.6 616.6,1313.5 607.5,1313.5 
			629.9,1374 		"/>
		<polygon class="st0" points="752.1,1335.9 691.4,1313.5 691.4,1322.7 743.7,1342.3 743.7,1345.2 691.4,1364.9 691.4,1374 
			752.1,1351.6 		"/>
		<polygon class="st0" points="804.2,1321.9 807.1,1321.9 826.9,1374 836,1374 813.5,1313.5 797.8,1313.5 775.4,1374 784.6,1374 		
			"/>
		<polygon class="st0" points="920,1364.8 867.7,1345.2 867.7,1342.3 920,1322.7 920,1313.5 859.4,1335.9 859.4,1351.6 920,1374 		
			"/>
		<polygon class="st0" points="972.3,1321.9 975.1,1321.9 994.8,1374 1004,1374 981.6,1313.5 965.8,1313.5 943.3,1374 952.5,1374 		
			"/>
		<polygon class="st0" points="1065.5,1374 1087.9,1313.5 1078.8,1313.5 1059.1,1365.6 1056.2,1365.6 1036.4,1313.5 1027.3,1313.5 
			1049.8,1374 		"/>
		<polygon class="st0" points="836,1124 775.4,1101.4 775.4,1110.6 827.7,1130.3 827.7,1133.3 775.4,1152.9 775.4,1162.1 
			836,1139.7 		"/>
		<polygon class="st0" points="888.2,1109.8 891.2,1109.8 910.8,1162.1 920,1162.1 897.5,1101.4 881.9,1101.4 859.4,1162.1 
			868.5,1162.1 		"/>
		<polygon class="st0" points="981.6,1162.1 1004,1101.4 994.8,1101.4 975.1,1153.7 972.3,1153.7 952.5,1101.4 943.3,1101.4 
			965.8,1162.1 		"/>
		<polygon class="st0" points="1056.2,1109.8 1059.1,1109.8 1078.8,1162.1 1087.9,1162.1 1065.5,1101.4 1049.8,1101.4 
			1027.3,1162.1 1036.4,1162.1 		"/>
		<polygon class="st0" points="720.2,1109.8 723.1,1109.8 742.9,1162.1 752.1,1162.1 729.5,1101.4 713.8,1101.4 691.4,1162.1 
			700.6,1162.1 		"/>
		<polygon class="st0" points="645.6,1162.1 668,1101.4 658.8,1101.4 639.2,1153.7 636.3,1153.7 616.6,1101.4 607.5,1101.4 
			629.9,1162.1 		"/>
		<polygon class="st0" points="584,1124 523.5,1101.4 523.5,1110.6 575.6,1130.3 575.6,1133.3 523.5,1152.9 523.5,1162.1 
			584,1139.7 		"/>
		<polygon class="st0" points="468.4,1109.8 471.3,1109.8 490.9,1162.1 500.1,1162.1 477.7,1101.4 461.9,1101.4 439.5,1162.1 
			448.6,1162.1 		"/>
		<polygon class="st0" points="416.1,1152.9 363.8,1133.3 363.8,1130.3 416.1,1110.6 416.1,1101.4 355.5,1124 355.5,1139.7 
			416.1,1162.1 		"/>
		<polygon class="st0" points="309.7,1162.1 332.1,1101.4 323,1101.4 303.3,1153.7 300.4,1153.7 280.7,1101.4 271.5,1101.4 
			294,1162.1 		"/>
		<polygon class="st0" points="248.2,1124 187.5,1101.4 187.5,1110.6 239.8,1130.3 239.8,1133.3 187.5,1152.9 187.5,1162.1 
			248.2,1139.7 		"/>
		<polygon class="st0" points="141.7,1162.1 164.2,1101.4 155,1101.4 135.3,1153.7 132.4,1153.7 112.7,1101.4 103.6,1101.4 
			126,1162.1 		"/>
		<polygon class="st0" points="48.4,1109.8 51.3,1109.8 71.1,1162.1 80.3,1162.1 57.7,1101.4 42,1101.4 19.6,1162.1 28.8,1162.1 		
			"/>
		<polygon class="st0" points="48.4,999.3 51.3,999.3 71.1,1051.6 80.3,1051.6 57.7,990.9 42,990.9 19.6,1051.6 28.8,1051.6 		"/>
		<polygon class="st0" points="141.7,1051.6 164.2,990.9 155,990.9 135.3,1043.2 132.4,1043.2 112.7,990.9 103.6,990.9 126,1051.6 
					"/>
		<polygon class="st0" points="248.2,1042.4 195.9,1022.7 195.9,1019.7 248.2,1000.1 248.2,990.9 187.5,1013.3 187.5,1029 
			248.2,1051.6 		"/>
		<polygon class="st0" points="-3.8,1258.9 -56,1239.2 -56,1236.4 -3.8,1216.6 -3.8,1207.4 -64.4,1229.9 -64.4,1245.7 -3.8,1268.1 
					"/>
		<polygon class="st0" points="48.4,1215.8 51.3,1215.8 71.1,1268.1 80.3,1268.1 57.7,1207.4 42,1207.4 19.6,1268.1 28.8,1268.1 		
			"/>
		<polygon class="st0" points="141.7,1268.1 164.2,1207.4 155,1207.4 135.3,1259.7 132.4,1259.7 112.7,1207.4 103.6,1207.4 
			126,1268.1 		"/>
		<polygon class="st0" points="248.2,1258.9 195.9,1239.2 195.9,1236.4 248.2,1216.6 248.2,1207.4 187.5,1229.9 187.5,1245.7 
			248.2,1268.1 		"/>
		<polygon class="st0" points="48.4,894.3 51.3,894.3 71.1,946.6 80.3,946.6 57.7,886 42,886 19.6,946.6 28.8,946.6 		"/>
		<polygon class="st0" points="164.2,937.4 111.9,917.7 111.9,914.8 164.2,895.1 164.2,886 103.6,908.4 103.6,924.1 164.2,946.6 		
			"/>
		<polygon class="st0" points="225.6,946.6 248.2,886 239,886 219.4,938.2 216.3,938.2 196.7,886 187.5,886 209.9,946.6 		"/>
		<polygon class="st0" points="332.1,908.4 271.5,886 271.5,895.1 323.8,914.8 323.8,917.7 271.5,937.4 271.5,946.6 332.1,924.1 		
			"/>
		<polygon class="st0" points="384.4,894.3 387.3,894.3 406.9,946.6 416.1,946.6 393.7,886 378,886 355.5,946.6 364.6,946.6 		"/>
		<polygon class="st0" points="500.1,908.4 439.5,886 439.5,895.1 491.7,914.8 491.7,917.7 439.5,937.4 439.5,946.6 500.1,924.1 		
			"/>
		<polygon class="st0" points="561.6,946.6 584,886 574.9,886 555.2,938.2 552.3,938.2 532.7,886 523.5,886 545.9,946.6 		"/>
		<polygon class="st0" points="668,937.4 615.8,917.7 615.8,914.8 668,895.1 668,886 607.5,908.4 607.5,924.1 668,946.6 		"/>
		<polygon class="st0" points="752.1,908.4 691.4,886 691.4,895.1 743.7,914.8 743.7,917.7 691.4,937.4 691.4,946.6 752.1,924.1 		
			"/>
		<polygon class="st0" points="804.2,894.3 807.1,894.3 826.9,946.6 836,946.6 813.5,886 797.8,886 775.4,946.6 784.6,946.6 		"/>
		<polygon class="st0" points="332.1,831.3 279.9,811.7 279.9,808.8 332.1,789.2 332.1,780 271.5,802.4 271.5,818.1 332.1,840.5 		
			"/>
		<polygon class="st0" points="225.6,840.5 248.2,780 239,780 219.4,832.1 216.3,832.1 196.7,780 187.5,780 209.9,840.5 		"/>
		<polygon class="st0" points="126,780 103.6,840.5 112.7,840.5 132.4,788.4 135.3,788.4 155.1,840.5 164.2,840.5 141.7,780 		"/>
		<polygon class="st0" points="57.7,840.5 80.3,780 71.1,780 51.3,832.1 48.4,832.1 28.8,780 19.6,780 42,840.5 		"/>
		<polygon class="st0" points="393.7,840.5 416.1,780 406.9,780 387.3,832.1 384.4,832.1 364.6,780 355.5,780 378,840.5 		"/>
		<polygon class="st0" points="468.4,788.4 471.2,788.4 490.9,840.5 500.1,840.5 477.7,780 461.9,780 439.5,840.5 448.6,840.5 		"/>
		<polygon class="st0" points="584,831.3 531.9,811.7 531.9,808.8 584,789.2 584,780 523.5,802.4 523.5,818.1 584,840.5 		"/>
		<polygon class="st0" points="645.6,840.5 668,780 658.8,780 639.2,832.1 636.3,832.1 616.6,780 607.5,780 629.9,840.5 		"/>
		<polygon class="st0" points="752.1,802.4 691.4,780 691.4,789.2 743.7,808.8 743.7,811.7 691.4,831.3 691.4,840.5 752.1,818.1 		
			"/>
		<polygon class="st0" points="804.2,788.4 807.1,788.4 826.9,840.5 836,840.5 813.5,780 797.8,780 775.4,840.5 784.6,840.5 		"/>
		<polygon class="st0" points="920,831.3 867.7,811.7 867.7,808.8 920,789.2 920,780 859.4,802.4 859.4,818.1 920,840.5 		"/>
		<polygon class="st0" points="972.3,788.4 975.1,788.4 994.8,840.5 1004,840.5 981.6,780 965.8,780 943.3,840.5 952.5,840.5 		"/>
		<polygon class="st0" points="1065.5,840.5 1087.9,780 1078.8,780 1059.1,832.1 1056.2,832.1 1036.4,780 1027.3,780 1049.8,840.5 
					"/>
		<polygon class="st0" points="1065.5,946.6 1087.9,886 1078.8,886 1059.1,938.2 1056.2,938.2 1036.4,886 1027.3,886 1049.8,946.6 
					"/>
		<polygon class="st0" points="972.3,894.3 975.1,894.3 994.8,946.6 1004,946.6 981.6,886 965.8,886 943.3,946.6 952.5,946.6 		"/>
		<polygon class="st0" points="920,908.4 859.4,886 859.4,895.1 911.6,914.8 911.6,917.7 859.4,937.4 859.4,946.6 920,924.1 		"/>
		<polygon class="st0" points="48.4,682.4 51.3,682.4 71.1,734.5 80.3,734.5 57.7,674 42,674 19.6,734.5 28.8,734.5 		"/>
		<polygon class="st0" points="164.2,725.4 111.9,705.7 111.9,702.8 164.2,683.2 164.2,674 103.6,696.4 103.6,712.1 164.2,734.5 		
			"/>
		<polygon class="st0" points="225.6,734.5 248.2,674 239,674 219.4,726.2 216.3,726.2 196.7,674 187.5,674 209.9,734.5 		"/>
		<polygon class="st0" points="332.1,696.4 271.5,674 271.5,683.2 323.8,702.8 323.8,705.7 271.5,725.4 271.5,734.5 332.1,712.1 		
			"/>
		<polygon class="st0" points="384.4,682.4 387.3,682.4 406.9,734.5 416.1,734.5 393.7,674 378,674 355.5,734.5 364.6,734.5 		"/>
		<polygon class="st0" points="500.1,696.4 439.5,674 439.5,683.2 491.7,702.8 491.7,705.7 439.5,725.4 439.5,734.5 500.1,712.1 		
			"/>
		<polygon class="st0" points="561.6,734.5 584,674 574.9,674 555.2,726.2 552.3,726.2 532.7,674 523.5,674 545.9,734.5 		"/>
		<polygon class="st0" points="668,725.4 615.8,705.7 615.8,702.8 668,683.2 668,674 607.5,696.4 607.5,712.1 668,734.5 		"/>
		<polygon class="st0" points="752.1,696.4 691.4,674 691.4,683.2 743.7,702.8 743.7,705.7 691.4,725.4 691.4,734.5 752.1,712.1 		
			"/>
		<polygon class="st0" points="804.2,682.4 807.1,682.4 826.9,734.5 836,734.5 813.5,674 797.8,674 775.4,734.5 784.6,734.5 		"/>
		<polygon class="st0" points="332.1,618.4 279.9,598.7 279.9,595.9 332.1,576.1 332.1,566.9 271.5,589.4 271.5,605.2 332.1,627.6 
					"/>
		<polygon class="st0" points="225.6,627.6 248.2,566.9 239,566.9 219.4,619.2 216.3,619.2 196.7,566.9 187.5,566.9 209.9,627.6 		
			"/>
		<polygon class="st0" points="132.4,575.3 135.3,575.3 155.1,627.6 164.2,627.6 141.7,566.9 126,566.9 103.6,627.6 112.7,627.6 		
			"/>
		<polygon class="st0" points="57.7,627.6 80.3,566.9 71.1,566.9 51.3,619.2 48.4,619.2 28.8,566.9 19.6,566.9 42,627.6 		"/>
		<polygon class="st0" points="393.7,627.6 416.1,566.9 406.9,566.9 387.3,619.2 384.4,619.2 364.6,566.9 355.5,566.9 378,627.6 		
			"/>
		<polygon class="st0" points="468.4,575.3 471.2,575.3 490.9,627.6 500.1,627.6 477.7,566.9 461.9,566.9 439.5,627.6 448.6,627.6 
					"/>
		<polygon class="st0" points="584,618.4 531.9,598.7 531.9,595.9 584,576.1 584,566.9 523.5,589.4 523.5,605.2 584,627.6 		"/>
		<polygon class="st0" points="645.6,627.6 668,566.9 658.8,566.9 639.2,619.2 636.3,619.2 616.6,566.9 607.5,566.9 629.9,627.6 		
			"/>
		<polygon class="st0" points="752.1,589.4 691.4,566.9 691.4,576.1 743.7,595.9 743.7,598.7 691.4,618.4 691.4,627.6 752.1,605.2 
					"/>
		<polygon class="st0" points="804.2,575.3 807.1,575.3 826.9,627.6 836,627.6 813.5,566.9 797.8,566.9 775.4,627.6 784.6,627.6 		
			"/>
		<polygon class="st0" points="920,618.4 867.7,598.7 867.7,595.9 920,576.1 920,566.9 859.4,589.4 859.4,605.2 920,627.6 		"/>
		<polygon class="st0" points="972.3,575.3 975.1,575.3 994.8,627.6 1004,627.6 981.6,566.9 965.8,566.9 943.3,627.6 952.5,627.6 		
			"/>
		<polygon class="st0" points="1065.5,627.6 1087.9,566.9 1078.8,566.9 1059.1,619.2 1056.2,619.2 1036.4,566.9 1027.3,566.9 
			1049.8,627.6 		"/>
		<polygon class="st0" points="1065.5,734.5 1087.9,674 1078.8,674 1059.1,726.2 1056.2,726.2 1036.4,674 1027.3,674 1049.8,734.5 
					"/>
		<polygon class="st0" points="972.3,682.4 975.1,682.4 994.8,734.5 1004,734.5 981.6,674 965.8,674 943.3,734.5 952.5,734.5 		"/>
		<polygon class="st0" points="920,696.4 859.4,674 859.4,683.2 911.6,702.8 911.6,705.7 859.4,725.4 859.4,734.5 920,712.1 		"/>
		<polygon class="st0" points="1065.5,1480 1087.9,1419.5 1078.8,1419.5 1059.1,1471.6 1056.2,1471.6 1036.4,1419.5 1027.3,1419.5 
			1049.8,1480 		"/>
		<polygon class="st0" points="1004,1441.9 943.3,1419.5 943.3,1428.6 995.6,1448.3 995.6,1451.2 943.3,1470.8 943.3,1480 
			1004,1457.6 		"/>
		<polygon class="st0" points="888.2,1427.9 891.2,1427.9 910.8,1480 920,1480 897.5,1419.5 881.9,1419.5 859.4,1480 868.5,1480 		
			"/>
		<polygon class="st0" points="836,1470.8 783.8,1451.2 783.8,1448.3 836,1428.6 836,1419.5 775.4,1441.9 775.4,1457.6 836,1480 		
			"/>
		<polygon class="st0" points="729.5,1480 752.1,1419.5 742.9,1419.5 723.1,1471.6 720.3,1471.6 700.6,1419.5 691.4,1419.5 
			713.8,1480 		"/>
		<polygon class="st0" points="668,1470.8 615.8,1451.2 615.8,1448.3 668,1428.6 668,1419.5 607.5,1441.9 607.5,1457.6 668,1480 		
			"/>
		<polygon class="st0" points="552.3,1427.9 555.2,1427.9 574.9,1480 584,1480 561.6,1419.5 545.9,1419.5 523.5,1480 532.7,1480 		
			"/>
		<polygon class="st0" points="500.1,1441.9 439.5,1419.5 439.5,1428.6 491.7,1448.3 491.7,1451.2 439.5,1470.8 439.5,1480 
			500.1,1457.6 		"/>
		<polygon class="st0" points="416.1,1470.8 363.8,1451.2 363.8,1448.3 416.1,1428.6 416.1,1419.5 355.5,1441.9 355.5,1457.6 
			416.1,1480 		"/>
		<polygon class="st0" points="309.7,1480 332.1,1419.5 323,1419.5 303.3,1471.6 300.4,1471.6 280.7,1419.5 271.5,1419.5 294,1480 
					"/>
		<polygon class="st0" points="48.4,1427.9 51.3,1427.9 71.1,1480 80.3,1480 57.7,1419.5 42,1419.5 19.6,1480 28.8,1480 		"/>
		<polygon class="st0" points="141.7,1480 164.2,1419.5 155,1419.5 135.3,1471.6 132.4,1471.6 112.7,1419.5 103.6,1419.5 126,1480 
					"/>
		<polygon class="st0" points="248.2,1470.8 195.9,1451.2 195.9,1448.3 248.2,1428.6 248.2,1419.5 187.5,1441.9 187.5,1457.6 
			248.2,1480 		"/>
		<polygon class="st0" points="836,1653.8 775.4,1631.4 775.4,1640.6 827.7,1660.2 827.7,1663.1 775.4,1682.9 775.4,1692.1 
			836,1669.5 		"/>
		<polygon class="st0" points="888.2,1639.8 891.2,1639.8 910.8,1692.1 920,1692.1 897.5,1631.4 881.9,1631.4 859.4,1692.1 
			868.5,1692.1 		"/>
		<polygon class="st0" points="981.6,1692.1 1004,1631.4 994.8,1631.4 975.1,1683.7 972.3,1683.7 952.5,1631.4 943.3,1631.4 
			965.8,1692.1 		"/>
		<polygon class="st0" points="1056.2,1639.8 1059.1,1639.8 1078.8,1692.1 1087.9,1692.1 1065.5,1631.4 1049.8,1631.4 
			1027.3,1692.1 1036.4,1692.1 		"/>
		<polygon class="st0" points="720.2,1639.8 723.1,1639.8 742.9,1692.1 752.1,1692.1 729.5,1631.4 713.8,1631.4 691.4,1692.1 
			700.6,1692.1 		"/>
		<polygon class="st0" points="645.6,1692.1 668,1631.4 658.8,1631.4 639.2,1683.7 636.3,1683.7 616.6,1631.4 607.5,1631.4 
			629.9,1692.1 		"/>
		<polygon class="st0" points="584,1653.8 523.5,1631.4 523.5,1640.6 575.6,1660.2 575.6,1663.1 523.5,1682.9 523.5,1692.1 
			584,1669.5 		"/>
		<polygon class="st0" points="468.4,1639.8 471.3,1639.8 490.9,1692.1 500.1,1692.1 477.7,1631.4 461.9,1631.4 439.5,1692.1 
			448.6,1692.1 		"/>
		<polygon class="st0" points="416.1,1682.9 363.8,1663.1 363.8,1660.2 416.1,1640.6 416.1,1631.4 355.5,1653.8 355.5,1669.5 
			416.1,1692.1 		"/>
		<polygon class="st0" points="309.7,1692.1 332.1,1631.4 323,1631.4 303.3,1683.7 300.4,1683.7 280.7,1631.4 271.5,1631.4 
			294,1692.1 		"/>
		<polygon class="st0" points="248.2,1653.8 187.5,1631.4 187.5,1640.6 239.8,1660.2 239.8,1663.1 187.5,1682.9 187.5,1692.1 
			248.2,1669.5 		"/>
		<polygon class="st0" points="141.7,1692.1 164.2,1631.4 155,1631.4 135.3,1683.7 132.4,1683.7 112.7,1631.4 103.6,1631.4 
			126,1692.1 		"/>
		<polygon class="st0" points="48.4,1639.8 51.3,1639.8 71.1,1692.1 80.3,1692.1 57.7,1631.4 42,1631.4 19.6,1692.1 28.8,1692.1 		
			"/>
		<polygon class="st0" points="48.4,1533.8 51.3,1533.8 71.1,1586.1 80.3,1586.1 57.7,1525.4 42,1525.4 19.6,1586.1 28.8,1586.1 		
			"/>
		<polygon class="st0" points="164.2,1576.9 111.9,1557.1 111.9,1554.3 164.2,1534.6 164.2,1525.4 103.6,1547.8 103.6,1563.6 
			164.2,1586.1 		"/>
		<polygon class="st0" points="225.6,1586.1 248.2,1525.4 239,1525.4 219.4,1577.7 216.3,1577.7 196.7,1525.4 187.5,1525.4 
			209.9,1586.1 		"/>
		<polygon class="st0" points="332.1,1547.8 271.5,1525.4 271.5,1534.6 323.8,1554.3 323.8,1557.1 271.5,1576.9 271.5,1586.1 
			332.1,1563.6 		"/>
		<polygon class="st0" points="384.4,1533.8 387.3,1533.8 406.9,1586.1 416.1,1586.1 393.7,1525.4 378,1525.4 355.5,1586.1 
			364.6,1586.1 		"/>
		<polygon class="st0" points="439.5,1576.9 439.5,1586.1 500.1,1563.6 500.1,1547.8 439.5,1525.4 439.5,1534.6 491.7,1554.3 
			491.7,1557.1 		"/>
		<polygon class="st0" points="561.6,1586.1 584,1525.4 574.9,1525.4 555.2,1577.7 552.3,1577.7 532.7,1525.4 523.5,1525.4 
			545.9,1586.1 		"/>
		<polygon class="st0" points="668,1576.9 615.8,1557.1 615.8,1554.3 668,1534.6 668,1525.4 607.5,1547.8 607.5,1563.6 668,1586.1 
					"/>
		<polygon class="st0" points="752.1,1547.8 691.4,1525.4 691.4,1534.6 743.7,1554.3 743.7,1557.1 691.4,1576.9 691.4,1586.1 
			752.1,1563.6 		"/>
		<polygon class="st0" points="804.2,1533.8 807.1,1533.8 826.9,1586.1 836,1586.1 813.5,1525.4 797.8,1525.4 775.4,1586.1 
			784.6,1586.1 		"/>
		<polygon class="st0" points="1065.5,1586.1 1087.9,1525.4 1078.8,1525.4 1059.1,1577.7 1056.2,1577.7 1036.4,1525.4 
			1027.3,1525.4 1049.8,1586.1 		"/>
		<polygon class="st0" points="972.3,1533.8 975.1,1533.8 994.8,1586.1 1004,1586.1 981.6,1525.4 965.8,1525.4 943.3,1586.1 
			952.5,1586.1 		"/>
		<polygon class="st0" points="920,1547.8 859.4,1525.4 859.4,1534.6 911.6,1554.3 911.6,1557.1 859.4,1576.9 859.4,1586.1 
			920,1563.6 		"/>
	</g>
	<g>
		<polygon class="st0" points="2631.8,1152.9 2631.8,1162.1 2692.3,1139.7 2692.3,1124 2631.8,1101.4 2631.8,1110.6 2684,1130.3 
			2684,1133.3 		"/>
		<polygon class="st0" points="2692.3,1000.1 2692.3,990.9 2631.8,1013.3 2631.8,1029 2692.3,1051.6 2692.3,1042.4 2640.2,1022.7 
			2640.2,1019.7 		"/>
		<polygon class="st0" points="2692.3,908.4 2631.8,886 2631.8,895.1 2684,914.8 2684,917.7 2631.8,937.4 2631.8,946.6 
			2692.3,924.1 		"/>
		<polygon class="st0" points="2692.3,802.4 2631.8,780 2631.8,789.2 2684,808.8 2684,811.7 2631.8,831.3 2631.8,840.5 
			2692.3,818.1 		"/>
		<polygon class="st0" points="2692.3,696.4 2631.8,674 2631.8,683.2 2684,702.8 2684,705.7 2631.8,725.4 2631.8,734.5 
			2692.3,712.1 		"/>
		<polygon class="st0" points="2692.3,589.4 2631.8,566.9 2631.8,576.1 2684,595.9 2684,598.7 2631.8,618.4 2631.8,627.6 
			2692.3,605.2 		"/>
		<polygon class="st0" points="2631.8,1457.6 2692.3,1480 2692.3,1470.8 2640.2,1451.2 2640.2,1448.3 2692.3,1428.6 2692.3,1419.5 
			2631.8,1441.9 		"/>
		<polygon class="st0" points="2631.8,1640.6 2684,1660.2 2684,1663.1 2631.8,1682.9 2631.8,1692.1 2692.3,1669.5 2692.3,1653.8 
			2631.8,1631.4 		"/>
		<polygon class="st0" points="2631.8,1534.6 2684,1554.3 2684,1557.1 2631.8,1576.9 2631.8,1586.1 2692.3,1563.6 2692.3,1547.8 
			2631.8,1525.4 		"/>
		<polygon class="st0" points="2631.8,1322.7 2684,1342.3 2684,1345.2 2631.8,1364.8 2631.8,1374 2692.3,1351.6 2692.3,1335.9 
			2631.8,1313.5 		"/>
		<polygon class="st0" points="2906.1,1374 2921.8,1374 2944.4,1313.5 2935.2,1313.5 2915.5,1365.6 2912.5,1365.6 2892.9,1313.5 
			2883.7,1313.5 		"/>
		<polygon class="st0" points="2822.1,1313.5 2799.7,1374 2808.9,1374 2828.6,1321.9 2831.5,1321.9 2851.2,1374 2860.4,1374 
			2837.9,1313.5 		"/>
		<polygon class="st0" points="2753.9,1374 2776.4,1313.5 2767.3,1313.5 2747.5,1365.6 2744.6,1365.6 2725,1313.5 2715.8,1313.5 
			2738.2,1374 		"/>
		<polygon class="st0" points="2936,1133.3 2883.7,1152.9 2883.7,1162.1 2944.4,1139.7 2944.4,1124 2883.7,1101.4 2883.7,1110.6 
			2936,1130.3 		"/>
		<polygon class="st0" points="2837.9,1162.1 2860.4,1101.4 2851.2,1101.4 2831.5,1153.7 2828.6,1153.7 2808.9,1101.4 
			2799.7,1101.4 2822.1,1162.1 		"/>
		<polygon class="st0" points="2753.9,1101.4 2738.2,1101.4 2715.8,1162.1 2725,1162.1 2744.6,1109.8 2747.5,1109.8 2767.3,1162.1 
			2776.4,1162.1 		"/>
		<polygon class="st0" points="2744.6,999.3 2747.5,999.3 2767.3,1051.6 2776.4,1051.6 2753.9,990.9 2738.2,990.9 2715.8,1051.6 
			2725,1051.6 		"/>
		<polygon class="st0" points="2837.9,1051.6 2860.4,990.9 2851.2,990.9 2831.5,1043.2 2828.6,1043.2 2808.9,990.9 2799.7,990.9 
			2822.1,1051.6 		"/>
		<polygon class="st0" points="2944.4,1042.4 2892.1,1022.7 2892.1,1019.7 2944.4,1000.1 2944.4,990.9 2883.7,1013.3 2883.7,1029 
			2944.4,1051.6 		"/>
		<polygon class="st0" points="2640.2,1236.4 2692.3,1216.6 2692.3,1207.4 2631.8,1229.9 2631.8,1245.7 2692.3,1268.1 
			2692.3,1258.9 2640.2,1239.2 		"/>
		<polygon class="st0" points="2753.9,1207.4 2738.2,1207.4 2715.8,1268.1 2725,1268.1 2744.6,1215.8 2747.5,1215.8 2767.3,1268.1 
			2776.4,1268.1 		"/>
		<polygon class="st0" points="2837.9,1268.1 2860.4,1207.4 2851.2,1207.4 2831.5,1259.7 2828.6,1259.7 2808.9,1207.4 
			2799.7,1207.4 2822.1,1268.1 		"/>
		<polygon class="st0" points="2944.4,1216.6 2944.4,1207.4 2883.7,1229.9 2883.7,1245.7 2944.4,1268.1 2944.4,1258.9 
			2892.1,1239.2 2892.1,1236.4 		"/>
		<polygon class="st0" points="2744.6,894.3 2747.5,894.3 2767.3,946.6 2776.4,946.6 2753.9,886 2738.2,886 2715.8,946.6 
			2725,946.6 		"/>
		<polygon class="st0" points="2860.4,937.4 2808.1,917.7 2808.1,914.8 2860.4,895.1 2860.4,886 2799.7,908.4 2799.7,924.1 
			2860.4,946.6 		"/>
		<polygon class="st0" points="2921.8,946.6 2944.4,886 2935.2,886 2915.5,938.2 2912.5,938.2 2892.9,886 2883.7,886 2906.1,946.6 
					"/>
		<polygon class="st0" points="2921.8,840.5 2944.4,780 2935.2,780 2915.5,832.1 2912.5,832.1 2892.9,780 2883.7,780 2906.1,840.5 
					"/>
		<polygon class="st0" points="2822.1,780 2799.7,840.5 2808.9,840.5 2828.6,788.4 2831.5,788.4 2851.2,840.5 2860.4,840.5 
			2837.9,780 		"/>
		<polygon class="st0" points="2753.9,840.5 2776.4,780 2767.3,780 2747.5,832.1 2744.6,832.1 2725,780 2715.8,780 2738.2,840.5 		
			"/>
		<polygon class="st0" points="2744.6,682.4 2747.5,682.4 2767.3,734.5 2776.4,734.5 2753.9,674 2738.2,674 2715.8,734.5 
			2725,734.5 		"/>
		<polygon class="st0" points="2860.4,725.4 2808.1,705.7 2808.1,702.8 2860.4,683.2 2860.4,674 2799.7,696.4 2799.7,712.1 
			2860.4,734.5 		"/>
		<polygon class="st0" points="2921.8,734.5 2944.4,674 2935.2,674 2915.5,726.2 2912.5,726.2 2892.9,674 2883.7,674 2906.1,734.5 
					"/>
		<polygon class="st0" points="2921.8,627.6 2944.4,566.9 2935.2,566.9 2915.5,619.2 2912.5,619.2 2892.9,566.9 2883.7,566.9 
			2906.1,627.6 		"/>
		<polygon class="st0" points="2828.6,575.3 2831.5,575.3 2851.2,627.6 2860.4,627.6 2837.9,566.9 2822.1,566.9 2799.7,627.6 
			2808.9,627.6 		"/>
		<polygon class="st0" points="2753.9,627.6 2776.4,566.9 2767.3,566.9 2747.5,619.2 2744.6,619.2 2725,566.9 2715.8,566.9 
			2738.2,627.6 		"/>
		<polygon class="st0" points="2753.9,1419.5 2738.2,1419.5 2715.8,1480 2725,1480 2744.6,1427.9 2747.5,1427.9 2767.3,1480 
			2776.4,1480 		"/>
		<polygon class="st0" points="2860.4,1419.5 2851.2,1419.5 2831.5,1471.6 2828.6,1471.6 2808.9,1419.5 2799.7,1419.5 2822.1,1480 
			2837.9,1480 		"/>
		<polygon class="st0" points="2944.4,1470.8 2892.1,1451.2 2892.1,1448.3 2944.4,1428.6 2944.4,1419.5 2883.7,1441.9 
			2883.7,1457.6 2944.4,1480 		"/>
		<polygon class="st0" points="2944.4,1653.8 2883.7,1631.4 2883.7,1640.6 2936,1660.2 2936,1663.1 2883.7,1682.9 2883.7,1692.1 
			2944.4,1669.5 		"/>
		<polygon class="st0" points="2822.1,1692.1 2837.9,1692.1 2860.4,1631.4 2851.2,1631.4 2831.5,1683.7 2828.6,1683.7 
			2808.9,1631.4 2799.7,1631.4 		"/>
		<polygon class="st0" points="2738.2,1631.4 2715.8,1692.1 2725,1692.1 2744.6,1639.8 2747.5,1639.8 2767.3,1692.1 2776.4,1692.1 
			2753.9,1631.4 		"/>
		<polygon class="st0" points="2753.9,1525.4 2738.2,1525.4 2715.8,1586.1 2725,1586.1 2744.6,1533.8 2747.5,1533.8 2767.3,1586.1 
			2776.4,1586.1 		"/>
		<polygon class="st0" points="2799.7,1563.6 2860.4,1586.1 2860.4,1576.9 2808.1,1557.1 2808.1,1554.3 2860.4,1534.6 
			2860.4,1525.4 2799.7,1547.8 		"/>
		<polygon class="st0" points="2935.2,1525.4 2915.5,1577.7 2912.5,1577.7 2892.9,1525.4 2883.7,1525.4 2906.1,1586.1 
			2921.8,1586.1 2944.4,1525.4 		"/>
		<polygon class="st0" points="1513.1,1124 1452.6,1101.4 1452.6,1110.6 1504.7,1130.3 1504.7,1133.3 1452.6,1152.9 1452.6,1162.1 
			1513.1,1139.7 		"/>
		<polygon class="st0" points="1513.1,1042.4 1461,1022.7 1461,1019.7 1513.1,1000.1 1513.1,990.9 1452.6,1013.3 1452.6,1029 
			1513.1,1051.6 		"/>
		<polygon class="st0" points="1513.1,908.4 1452.6,886 1452.6,895.1 1504.7,914.8 1504.7,917.7 1452.6,937.4 1452.6,946.6 
			1513.1,924.1 		"/>
		<polygon class="st0" points="1513.1,802.4 1452.6,780 1452.6,789.2 1504.7,808.8 1504.7,811.7 1452.6,831.3 1452.6,840.5 
			1513.1,818.1 		"/>
		<polygon class="st0" points="1513.1,696.4 1452.6,674 1452.6,683.2 1504.7,702.8 1504.7,705.7 1452.6,725.4 1452.6,734.5 
			1513.1,712.1 		"/>
		<polygon class="st0" points="1513.1,589.4 1452.6,566.9 1452.6,576.1 1504.7,595.9 1504.7,598.7 1452.6,618.4 1452.6,627.6 
			1513.1,605.2 		"/>
		<polygon class="st0" points="1513.1,1470.8 1461,1451.2 1461,1448.3 1513.1,1428.6 1513.1,1419.5 1452.6,1441.9 1452.6,1457.6 
			1513.1,1480 		"/>
		<polygon class="st0" points="1513.1,1653.8 1452.6,1631.4 1452.6,1640.6 1504.7,1660.2 1504.7,1663.1 1452.6,1682.9 
			1452.6,1692.1 1513.1,1669.5 		"/>
		<polygon class="st0" points="1513.1,1547.8 1452.6,1525.4 1452.6,1534.6 1504.7,1554.3 1504.7,1557.1 1452.6,1576.9 
			1452.6,1586.1 1513.1,1563.6 		"/>
		<polygon class="st0" points="1513.1,1335.9 1452.6,1313.5 1452.6,1322.7 1504.7,1342.3 1504.7,1345.2 1452.6,1364.9 1452.6,1374 
			1513.1,1351.6 		"/>
		<polygon class="st0" points="1849.1,1229.9 1788.5,1207.4 1788.5,1216.6 1840.7,1236.4 1840.7,1239.2 1788.5,1258.9 
			1788.5,1268.1 1849.1,1245.7 		"/>
		<polygon class="st0" points="1901.4,1215.8 1904.2,1215.8 1923.9,1268.1 1933.1,1268.1 1910.7,1207.4 1894.9,1207.4 
			1872.4,1268.1 1881.6,1268.1 		"/>
		<polygon class="st0" points="2017,1216.6 2017,1207.4 1956.5,1229.9 1956.5,1245.7 2017,1268.1 2017,1258.9 1964.8,1239.2 
			1964.8,1236.4 		"/>
		<polygon class="st0" points="2078.6,1268.1 2101,1207.4 2091.8,1207.4 2072.2,1259.7 2069.3,1259.7 2049.6,1207.4 2040.5,1207.4 
			2062.9,1268.1 		"/>
		<polygon class="st0" points="2184.9,1229.9 2124.4,1207.4 2124.4,1216.6 2176.6,1236.4 2176.6,1239.2 2124.4,1258.9 
			2124.4,1268.1 2184.9,1245.7 		"/>
		<polygon class="st0" points="2237.2,1215.8 2240.1,1215.8 2259.9,1268.1 2269,1268.1 2246.5,1207.4 2230.8,1207.4 2208.4,1268.1 
			2217.6,1268.1 		"/>
		<polygon class="st0" points="2353,1229.9 2292.4,1207.4 2292.4,1216.6 2344.6,1236.4 2344.6,1239.2 2292.4,1258.9 2292.4,1268.1 
			2353,1245.7 		"/>
		<polygon class="st0" points="2414.4,1268.1 2437,1207.4 2427.8,1207.4 2408.1,1259.7 2405.1,1259.7 2385.5,1207.4 2376.3,1207.4 
			2398.8,1268.1 		"/>
		<polygon class="st0" points="2520.9,1258.9 2468.7,1239.2 2468.7,1236.4 2520.9,1216.6 2520.9,1207.4 2460.3,1229.9 
			2460.3,1245.7 2520.9,1268.1 		"/>
		<polygon class="st0" points="2604.9,1229.9 2544.2,1207.4 2544.2,1216.6 2596.5,1236.4 2596.5,1239.2 2544.2,1258.9 
			2544.2,1268.1 2604.9,1245.7 		"/>
		<polygon class="st0" points="2582.5,1051.6 2604.9,990.9 2595.7,990.9 2576.1,1043.2 2573.2,1043.2 2553.4,990.9 2544.2,990.9 
			2566.8,1051.6 		"/>
		<polygon class="st0" points="2520.9,1013.3 2460.3,990.9 2460.3,1000.1 2512.5,1019.7 2512.5,1022.7 2460.3,1042.4 2460.3,1051.6 
			2520.9,1029 		"/>
		<polygon class="st0" points="2405.1,999.3 2408.1,999.3 2427.8,1051.6 2437,1051.6 2414.4,990.9 2398.8,990.9 2376.3,1051.6 
			2385.5,1051.6 		"/>
		<polygon class="st0" points="2353,1042.4 2300.7,1022.7 2300.7,1019.7 2353,1000.1 2353,990.9 2292.4,1013.3 2292.4,1029 
			2353,1051.6 		"/>
		<polygon class="st0" points="2246.5,1051.6 2269,990.9 2259.9,990.9 2240.1,1043.2 2237.2,1043.2 2217.6,990.9 2208.4,990.9 
			2230.8,1051.6 		"/>
		<polygon class="st0" points="2184.9,1042.4 2132.8,1022.7 2132.8,1019.7 2184.9,1000.1 2184.9,990.9 2124.4,1013.3 2124.4,1029 
			2184.9,1051.6 		"/>
		<polygon class="st0" points="2069.3,999.3 2072.2,999.3 2091.8,1051.6 2101,1051.6 2078.6,990.9 2062.9,990.9 2040.5,1051.6 
			2049.6,1051.6 		"/>
		<polygon class="st0" points="1956.5,1042.4 1956.5,1051.6 2017,1029 2017,1013.3 1956.5,990.9 1956.5,1000.1 2008.6,1019.7 
			2008.6,1022.7 		"/>
		<polygon class="st0" points="1933.1,1042.4 1880.8,1022.7 1880.8,1019.7 1933.1,1000.1 1933.1,990.9 1872.4,1013.3 1872.4,1029 
			1933.1,1051.6 		"/>
		<polygon class="st0" points="1826.7,1051.6 1849.1,990.9 1839.9,990.9 1820.3,1043.2 1817.4,1043.2 1797.6,990.9 1788.5,990.9 
			1811,1051.6 		"/>
		<polygon class="st0" points="1849.1,1364.8 1796.8,1345.2 1796.8,1342.3 1849.1,1322.7 1849.1,1313.5 1788.5,1335.9 
			1788.5,1351.6 1849.1,1374 		"/>
		<polygon class="st0" points="1742.6,1374 1765.1,1313.5 1756,1313.5 1736.3,1365.6 1733.3,1365.6 1713.7,1313.5 1704.5,1313.5 
			1726.9,1374 		"/>
		<polygon class="st0" points="1642.9,1313.5 1620.5,1374 1629.7,1374 1649.3,1321.9 1652.2,1321.9 1672,1374 1681.2,1374 
			1658.7,1313.5 		"/>
		<polygon class="st0" points="1574.7,1374 1597.2,1313.5 1588.1,1313.5 1568.3,1365.6 1565.4,1365.6 1545.7,1313.5 1536.6,1313.5 
			1559,1374 		"/>
		<polygon class="st0" points="1910.7,1374 1933.1,1313.5 1923.9,1313.5 1904.2,1365.6 1901.4,1365.6 1881.6,1313.5 1872.4,1313.5 
			1894.9,1374 		"/>
		<polygon class="st0" points="1985.3,1321.9 1988.2,1321.9 2007.9,1374 2017,1374 1994.6,1313.5 1978.9,1313.5 1956.5,1374 
			1965.5,1374 		"/>
		<polygon class="st0" points="2101,1364.8 2048.9,1345.2 2048.9,1342.3 2101,1322.7 2101,1313.5 2040.5,1335.9 2040.5,1351.6 
			2101,1374 		"/>
		<polygon class="st0" points="2162.5,1374 2184.9,1313.5 2175.8,1313.5 2156.1,1365.6 2153.3,1365.6 2133.6,1313.5 2124.4,1313.5 
			2146.8,1374 		"/>
		<polygon class="st0" points="2269,1335.9 2208.4,1313.5 2208.4,1322.7 2260.7,1342.3 2260.7,1345.2 2208.4,1364.9 2208.4,1374 
			2269,1351.6 		"/>
		<polygon class="st0" points="2321.2,1321.9 2324.1,1321.9 2343.8,1374 2353,1374 2330.5,1313.5 2314.8,1313.5 2292.4,1374 
			2301.5,1374 		"/>
		<polygon class="st0" points="2437,1364.8 2384.7,1345.2 2384.7,1342.3 2437,1322.7 2437,1313.5 2376.3,1335.9 2376.3,1351.6 
			2437,1374 		"/>
		<polygon class="st0" points="2489.2,1321.9 2492.1,1321.9 2511.8,1374 2520.9,1374 2498.5,1313.5 2482.8,1313.5 2460.3,1374 
			2469.4,1374 		"/>
		<polygon class="st0" points="2582.5,1374 2604.9,1313.5 2595.7,1313.5 2576.1,1365.6 2573.2,1365.6 2553.4,1313.5 2544.2,1313.5 
			2566.8,1374 		"/>
		<polygon class="st0" points="2353,1124 2292.4,1101.4 2292.4,1110.6 2344.6,1130.3 2344.6,1133.3 2292.4,1152.9 2292.4,1162.1 
			2353,1139.7 		"/>
		<polygon class="st0" points="2405.1,1109.8 2408.1,1109.8 2427.8,1162.1 2437,1162.1 2414.4,1101.4 2398.8,1101.4 2376.3,1162.1 
			2385.5,1162.1 		"/>
		<polygon class="st0" points="2498.5,1162.1 2520.9,1101.4 2511.8,1101.4 2492.1,1153.7 2489.2,1153.7 2469.4,1101.4 
			2460.3,1101.4 2482.8,1162.1 		"/>
		<polygon class="st0" points="2573.2,1109.8 2576.1,1109.8 2595.7,1162.1 2604.9,1162.1 2582.5,1101.4 2566.8,1101.4 
			2544.2,1162.1 2553.4,1162.1 		"/>
		<polygon class="st0" points="2237.2,1109.8 2240.1,1109.8 2259.9,1162.1 2269,1162.1 2246.5,1101.4 2230.8,1101.4 2208.4,1162.1 
			2217.6,1162.1 		"/>
		<polygon class="st0" points="2162.5,1162.1 2184.9,1101.4 2175.8,1101.4 2156.1,1153.7 2153.3,1153.7 2133.6,1101.4 
			2124.4,1101.4 2146.8,1162.1 		"/>
		<polygon class="st0" points="2101,1124 2040.5,1101.4 2040.5,1110.6 2092.6,1130.3 2092.6,1133.3 2040.5,1152.9 2040.5,1162.1 
			2101,1139.7 		"/>
		<polygon class="st0" points="1985.3,1109.8 1988.2,1109.8 2007.9,1162.1 2017,1162.1 1994.6,1101.4 1978.9,1101.4 1956.5,1162.1 
			1965.5,1162.1 		"/>
		<polygon class="st0" points="1933.1,1152.9 1880.8,1133.3 1880.8,1130.3 1933.1,1110.6 1933.1,1101.4 1872.4,1124 1872.4,1139.7 
			1933.1,1162.1 		"/>
		<polygon class="st0" points="1826.7,1162.1 1849.1,1101.4 1839.9,1101.4 1820.3,1153.7 1817.4,1153.7 1797.6,1101.4 
			1788.5,1101.4 1811,1162.1 		"/>
		<polygon class="st0" points="1765.1,1124 1704.5,1101.4 1704.5,1110.6 1756.8,1130.3 1756.8,1133.3 1704.5,1152.9 1704.5,1162.1 
			1765.1,1139.7 		"/>
		<polygon class="st0" points="1658.7,1162.1 1681.2,1101.4 1672,1101.4 1652.2,1153.7 1649.4,1153.7 1629.7,1101.4 1620.5,1101.4 
			1642.9,1162.1 		"/>
		<polygon class="st0" points="1565.4,1109.8 1568.3,1109.8 1588.1,1162.1 1597.2,1162.1 1574.7,1101.4 1559,1101.4 1536.6,1162.1 
			1545.7,1162.1 		"/>
		<polygon class="st0" points="1565.4,999.3 1568.3,999.3 1588.1,1051.6 1597.2,1051.6 1574.7,990.9 1559,990.9 1536.6,1051.6 
			1545.7,1051.6 		"/>
		<polygon class="st0" points="1658.7,1051.6 1681.2,990.9 1672,990.9 1652.2,1043.2 1649.4,1043.2 1629.7,990.9 1620.5,990.9 
			1642.9,1051.6 		"/>
		<polygon class="st0" points="1765.1,1042.4 1712.9,1022.7 1712.9,1019.7 1765.1,1000.1 1765.1,990.9 1704.5,1013.3 1704.5,1029 
			1765.1,1051.6 		"/>
		<polygon class="st0" points="1513.1,1258.9 1461,1239.2 1461,1236.4 1513.1,1216.6 1513.1,1207.4 1452.6,1229.9 1452.6,1245.7 
			1513.1,1268.1 		"/>
		<polygon class="st0" points="1565.4,1215.8 1568.3,1215.8 1588.1,1268.1 1597.2,1268.1 1574.7,1207.4 1559,1207.4 1536.6,1268.1 
			1545.7,1268.1 		"/>
		<polygon class="st0" points="1658.7,1268.1 1681.2,1207.4 1672,1207.4 1652.2,1259.7 1649.4,1259.7 1629.7,1207.4 1620.5,1207.4 
			1642.9,1268.1 		"/>
		<polygon class="st0" points="1765.1,1258.9 1712.9,1239.2 1712.9,1236.4 1765.1,1216.6 1765.1,1207.4 1704.5,1229.9 
			1704.5,1245.7 1765.1,1268.1 		"/>
		<polygon class="st0" points="1565.4,894.3 1568.3,894.3 1588.1,946.6 1597.2,946.6 1574.7,886 1559,886 1536.6,946.6 
			1545.7,946.6 		"/>
		<polygon class="st0" points="1681.2,937.4 1628.9,917.7 1628.9,914.8 1681.2,895.1 1681.2,886 1620.5,908.4 1620.5,924.1 
			1681.2,946.6 		"/>
		<polygon class="st0" points="1742.6,946.6 1765.1,886 1756,886 1736.3,938.2 1733.3,938.2 1713.7,886 1704.5,886 1726.9,946.6 		
			"/>
		<polygon class="st0" points="1849.1,908.4 1788.5,886 1788.5,895.1 1840.7,914.8 1840.7,917.7 1788.5,937.4 1788.5,946.6 
			1849.1,924.1 		"/>
		<polygon class="st0" points="1901.4,894.3 1904.2,894.3 1923.9,946.6 1933.1,946.6 1910.7,886 1894.9,886 1872.4,946.6 
			1881.6,946.6 		"/>
		<polygon class="st0" points="2017,908.4 1956.5,886 1956.5,895.1 2008.6,914.8 2008.6,917.7 1956.5,937.4 1956.5,946.6 
			2017,924.1 		"/>
		<polygon class="st0" points="2078.6,946.6 2101,886 2091.8,886 2072.2,938.2 2069.3,938.2 2049.6,886 2040.5,886 2062.9,946.6 		
			"/>
		<polygon class="st0" points="2184.9,937.4 2132.8,917.7 2132.8,914.8 2184.9,895.1 2184.9,886 2124.4,908.4 2124.4,924.1 
			2184.9,946.6 		"/>
		<polygon class="st0" points="2269,908.4 2208.4,886 2208.4,895.1 2260.7,914.8 2260.7,917.7 2208.4,937.4 2208.4,946.6 
			2269,924.1 		"/>
		<polygon class="st0" points="2321.2,894.3 2324.1,894.3 2343.8,946.6 2353,946.6 2330.5,886 2314.8,886 2292.4,946.6 
			2301.5,946.6 		"/>
		<polygon class="st0" points="1849.1,831.3 1796.8,811.7 1796.8,808.8 1849.1,789.2 1849.1,780 1788.5,802.4 1788.5,818.1 
			1849.1,840.5 		"/>
		<polygon class="st0" points="1742.6,840.5 1765.1,780 1756,780 1736.3,832.1 1733.3,832.1 1713.7,780 1704.5,780 1726.9,840.5 		
			"/>
		<polygon class="st0" points="1642.9,780 1620.5,840.5 1629.7,840.5 1649.3,788.4 1652.2,788.4 1672,840.5 1681.2,840.5 
			1658.7,780 		"/>
		<polygon class="st0" points="1574.7,840.5 1597.2,780 1588.1,780 1568.3,832.1 1565.4,832.1 1545.7,780 1536.6,780 1559,840.5 		
			"/>
		<polygon class="st0" points="1910.7,840.5 1933.1,780 1923.9,780 1904.2,832.1 1901.4,832.1 1881.6,780 1872.4,780 1894.9,840.5 
					"/>
		<polygon class="st0" points="1985.3,788.4 1988.2,788.4 2007.9,840.5 2017,840.5 1994.6,780 1978.9,780 1956.5,840.5 
			1965.5,840.5 		"/>
		<polygon class="st0" points="2101,831.3 2048.9,811.7 2048.9,808.8 2101,789.2 2101,780 2040.5,802.4 2040.5,818.1 2101,840.5 		
			"/>
		<polygon class="st0" points="2162.5,840.5 2184.9,780 2175.8,780 2156.1,832.1 2153.3,832.1 2133.6,780 2124.4,780 2146.8,840.5 
					"/>
		<polygon class="st0" points="2269,802.4 2208.4,780 2208.4,789.2 2260.7,808.8 2260.7,811.7 2208.4,831.3 2208.4,840.5 
			2269,818.1 		"/>
		<polygon class="st0" points="2321.2,788.4 2324.1,788.4 2343.8,840.5 2353,840.5 2330.5,780 2314.8,780 2292.4,840.5 
			2301.5,840.5 		"/>
		<polygon class="st0" points="2437,831.3 2384.7,811.7 2384.7,808.8 2437,789.2 2437,780 2376.3,802.4 2376.3,818.1 2437,840.5 		
			"/>
		<polygon class="st0" points="2489.2,788.4 2492.1,788.4 2511.8,840.5 2520.9,840.5 2498.5,780 2482.8,780 2460.3,840.5 
			2469.4,840.5 		"/>
		<polygon class="st0" points="2582.5,840.5 2604.9,780 2595.7,780 2576.1,832.1 2573.2,832.1 2553.4,780 2544.2,780 2566.8,840.5 
					"/>
		<polygon class="st0" points="2582.5,946.6 2604.9,886 2595.7,886 2576.1,938.2 2573.2,938.2 2553.4,886 2544.2,886 2566.8,946.6 
					"/>
		<polygon class="st0" points="2489.2,894.3 2492.1,894.3 2511.8,946.6 2520.9,946.6 2498.5,886 2482.8,886 2460.3,946.6 
			2469.4,946.6 		"/>
		<polygon class="st0" points="2437,908.4 2376.3,886 2376.3,895.1 2428.6,914.8 2428.6,917.7 2376.3,937.4 2376.3,946.6 
			2437,924.1 		"/>
		<polygon class="st0" points="1565.4,682.4 1568.3,682.4 1588.1,734.5 1597.2,734.5 1574.7,674 1559,674 1536.6,734.5 
			1545.7,734.5 		"/>
		<polygon class="st0" points="1681.2,725.4 1628.9,705.7 1628.9,702.8 1681.2,683.2 1681.2,674 1620.5,696.4 1620.5,712.1 
			1681.2,734.5 		"/>
		<polygon class="st0" points="1742.6,734.5 1765.1,674 1756,674 1736.3,726.2 1733.3,726.2 1713.7,674 1704.5,674 1726.9,734.5 		
			"/>
		<polygon class="st0" points="1849.1,696.4 1788.5,674 1788.5,683.2 1840.7,702.8 1840.7,705.7 1788.5,725.4 1788.5,734.5 
			1849.1,712.1 		"/>
		<polygon class="st0" points="1901.4,682.4 1904.2,682.4 1923.9,734.5 1933.1,734.5 1910.7,674 1894.9,674 1872.4,734.5 
			1881.6,734.5 		"/>
		<polygon class="st0" points="2017,696.4 1956.5,674 1956.5,683.2 2008.6,702.8 2008.6,705.7 1956.5,725.4 1956.5,734.5 
			2017,712.1 		"/>
		<polygon class="st0" points="2078.6,734.5 2101,674 2091.8,674 2072.2,726.2 2069.3,726.2 2049.6,674 2040.5,674 2062.9,734.5 		
			"/>
		<polygon class="st0" points="2184.9,725.4 2132.8,705.7 2132.8,702.8 2184.9,683.2 2184.9,674 2124.4,696.4 2124.4,712.1 
			2184.9,734.5 		"/>
		<polygon class="st0" points="2269,696.4 2208.4,674 2208.4,683.2 2260.7,702.8 2260.7,705.7 2208.4,725.4 2208.4,734.5 
			2269,712.1 		"/>
		<polygon class="st0" points="2321.2,682.4 2324.1,682.4 2343.8,734.5 2353,734.5 2330.5,674 2314.8,674 2292.4,734.5 
			2301.5,734.5 		"/>
		<polygon class="st0" points="1849.1,618.4 1796.8,598.7 1796.8,595.9 1849.1,576.1 1849.1,566.9 1788.5,589.4 1788.5,605.2 
			1849.1,627.6 		"/>
		<polygon class="st0" points="1742.6,627.6 1765.1,566.9 1756,566.9 1736.3,619.2 1733.3,619.2 1713.7,566.9 1704.5,566.9 
			1726.9,627.6 		"/>
		<polygon class="st0" points="1649.3,575.3 1652.2,575.3 1672,627.6 1681.2,627.6 1658.7,566.9 1642.9,566.9 1620.5,627.6 
			1629.7,627.6 		"/>
		<polygon class="st0" points="1574.7,627.6 1597.2,566.9 1588.1,566.9 1568.3,619.2 1565.4,619.2 1545.7,566.9 1536.6,566.9 
			1559,627.6 		"/>
		<polygon class="st0" points="1910.7,627.6 1933.1,566.9 1923.9,566.9 1904.2,619.2 1901.4,619.2 1881.6,566.9 1872.4,566.9 
			1894.9,627.6 		"/>
		<polygon class="st0" points="1985.3,575.3 1988.2,575.3 2007.9,627.6 2017,627.6 1994.6,566.9 1978.9,566.9 1956.5,627.6 
			1965.5,627.6 		"/>
		<polygon class="st0" points="2101,618.4 2048.9,598.7 2048.9,595.9 2101,576.1 2101,566.9 2040.5,589.4 2040.5,605.2 2101,627.6 
					"/>
		<polygon class="st0" points="2162.5,627.6 2184.9,566.9 2175.8,566.9 2156.1,619.2 2153.3,619.2 2133.6,566.9 2124.4,566.9 
			2146.8,627.6 		"/>
		<polygon class="st0" points="2269,589.4 2208.4,566.9 2208.4,576.1 2260.7,595.9 2260.7,598.7 2208.4,618.4 2208.4,627.6 
			2269,605.2 		"/>
		<polygon class="st0" points="2321.2,575.3 2324.1,575.3 2343.8,627.6 2353,627.6 2330.5,566.9 2314.8,566.9 2292.4,627.6 
			2301.5,627.6 		"/>
		<polygon class="st0" points="2437,618.4 2384.7,598.7 2384.7,595.9 2437,576.1 2437,566.9 2376.3,589.4 2376.3,605.2 2437,627.6 
					"/>
		<polygon class="st0" points="2489.2,575.3 2492.1,575.3 2511.8,627.6 2520.9,627.6 2498.5,566.9 2482.8,566.9 2460.3,627.6 
			2469.4,627.6 		"/>
		<polygon class="st0" points="2582.5,627.6 2604.9,566.9 2595.7,566.9 2576.1,619.2 2573.2,619.2 2553.4,566.9 2544.2,566.9 
			2566.8,627.6 		"/>
		<polygon class="st0" points="2582.5,734.5 2604.9,674 2595.7,674 2576.1,726.2 2573.2,726.2 2553.4,674 2544.2,674 2566.8,734.5 
					"/>
		<polygon class="st0" points="2489.2,682.4 2492.1,682.4 2511.8,734.5 2520.9,734.5 2498.5,674 2482.8,674 2460.3,734.5 
			2469.4,734.5 		"/>
		<polygon class="st0" points="2437,696.4 2376.3,674 2376.3,683.2 2428.6,702.8 2428.6,705.7 2376.3,725.4 2376.3,734.5 
			2437,712.1 		"/>
		<polygon class="st0" points="1114.9,513.9 1114.9,523.1 1175.4,500.7 1175.4,485 1114.9,462.5 1114.9,471.6 1167,491.3 
			1167,494.3 		"/>
		<polygon class="st0" points="1175.4,361.1 1175.4,351.9 1114.9,374.3 1114.9,390.1 1175.4,412.6 1175.4,403.4 1123.2,383.8 
			1123.2,380.8 		"/>
		<polygon class="st0" points="1175.4,269.4 1114.9,247 1114.9,256.2 1167,275.8 1167,278.7 1114.9,298.5 1114.9,307.6 
			1175.4,285.1 		"/>
		<polygon class="st0" points="1175.4,163.4 1114.9,141 1114.9,150.2 1167,169.8 1167,172.7 1114.9,192.4 1114.9,201.5 
			1175.4,179.1 		"/>
		<polygon class="st0" points="1175.4,57.5 1114.9,35.1 1114.9,44.2 1167,63.9 1167,66.8 1114.9,86.4 1114.9,95.6 1175.4,73.2 		"/>
		<polygon class="st0" points="1175.4,-49.5 1114.9,-72.1 1114.9,-62.9 1167,-43.1 1167,-40.2 1114.9,-20.6 1114.9,-11.4 
			1175.4,-33.8 		"/>
		<polygon class="st0" points="1419,494.3 1366.7,513.9 1366.7,523.1 1427.4,500.7 1427.4,485 1366.7,462.5 1366.7,471.6 
			1419,491.3 		"/>
		<polygon class="st0" points="1320.9,523.1 1343.4,462.5 1334.3,462.5 1314.5,514.7 1311.6,514.7 1292,462.5 1282.8,462.5 
			1305.2,523.1 		"/>
		<polygon class="st0" points="1236.9,462.5 1221.2,462.5 1198.8,523.1 1208,523.1 1227.6,470.9 1230.5,470.9 1250.3,523.1 
			1259.5,523.1 		"/>
		<polygon class="st0" points="1227.6,360.3 1230.5,360.3 1250.3,412.6 1259.5,412.6 1236.9,351.9 1221.2,351.9 1198.8,412.6 
			1208,412.6 		"/>
		<polygon class="st0" points="1320.9,412.6 1343.4,351.9 1334.3,351.9 1314.5,404.2 1311.6,404.2 1292,351.9 1282.8,351.9 
			1305.2,412.6 		"/>
		<polygon class="st0" points="1427.4,403.4 1375.1,383.8 1375.1,380.8 1427.4,361.1 1427.4,351.9 1366.7,374.3 1366.7,390.1 
			1427.4,412.6 		"/>
		<polygon class="st0" points="1227.6,255.4 1230.5,255.4 1250.3,307.6 1259.5,307.6 1236.9,247 1221.2,247 1198.8,307.6 
			1208,307.6 		"/>
		<polygon class="st0" points="1343.4,298.5 1291.2,278.7 1291.2,275.8 1343.4,256.2 1343.4,247 1282.8,269.4 1282.8,285.1 
			1343.4,307.6 		"/>
		<polygon class="st0" points="1404.9,307.6 1427.4,247 1418.2,247 1398.6,299.3 1395.6,299.3 1375.9,247 1366.7,247 1389.1,307.6 
					"/>
		<polygon class="st0" points="1404.9,201.5 1427.4,141 1418.2,141 1398.6,193.2 1395.6,193.2 1375.9,141 1366.7,141 1389.1,201.5 
					"/>
		<polygon class="st0" points="1305.2,141 1282.8,201.5 1292,201.5 1311.6,149.4 1314.5,149.4 1334.3,201.5 1343.4,201.5 
			1320.9,141 		"/>
		<polygon class="st0" points="1236.9,201.5 1259.5,141 1250.3,141 1230.5,193.2 1227.6,193.2 1208,141 1198.8,141 1221.2,201.5 		
			"/>
		<polygon class="st0" points="1227.6,43.4 1230.5,43.4 1250.3,95.6 1259.5,95.6 1236.9,35.1 1221.2,35.1 1198.8,95.6 1208,95.6 		
			"/>
		<polygon class="st0" points="1343.4,86.4 1291.2,66.8 1291.2,63.9 1343.4,44.2 1343.4,35.1 1282.8,57.5 1282.8,73.2 1343.4,95.6 
					"/>
		<polygon class="st0" points="1404.9,95.6 1427.4,35.1 1418.2,35.1 1398.6,87.2 1395.6,87.2 1375.9,35.1 1366.7,35.1 1389.1,95.6 
					"/>
		<polygon class="st0" points="1404.9,-11.4 1427.4,-72.1 1418.2,-72.1 1398.6,-19.8 1395.6,-19.8 1375.9,-72.1 1366.7,-72.1 
			1389.1,-11.4 		"/>
		<polygon class="st0" points="1311.6,-63.7 1314.5,-63.7 1334.3,-11.4 1343.4,-11.4 1320.9,-72.1 1305.2,-72.1 1282.8,-11.4 
			1292,-11.4 		"/>
		<polygon class="st0" points="1236.9,-11.4 1259.5,-72.1 1250.3,-72.1 1230.5,-19.8 1227.6,-19.8 1208,-72.1 1198.8,-72.1 
			1221.2,-11.4 		"/>
		<polygon class="st0" points="-3.8,485 -64.4,462.5 -64.4,471.6 -12.2,491.3 -12.2,494.3 -64.4,514 -64.4,523.1 -3.8,500.7 		"/>
		<polygon class="st0" points="-3.8,403.4 -56,383.8 -56,380.8 -3.8,361.1 -3.8,351.9 -64.4,374.3 -64.4,390.1 -3.8,412.6 		"/>
		<polygon class="st0" points="-3.8,269.4 -64.4,247 -64.4,256.2 -12.2,275.8 -12.2,278.7 -64.4,298.5 -64.4,307.6 -3.8,285.1 		"/>
		<polygon class="st0" points="-3.8,163.4 -64.4,141 -64.4,150.2 -12.2,169.8 -12.2,172.7 -64.4,192.4 -64.4,201.5 -3.8,179.1 		"/>
		<polygon class="st0" points="-3.8,57.5 -64.4,35.1 -64.4,44.2 -12.2,63.9 -12.2,66.8 -64.4,86.4 -64.4,95.6 -3.8,73.2 		"/>
		<polygon class="st0" points="-3.8,-49.5 -64.4,-72.1 -64.4,-62.9 -12.2,-43.1 -12.2,-40.2 -64.4,-20.6 -64.4,-11.4 -3.8,-33.8 		
			"/>
		<polygon class="st0" points="1065.5,412.6 1087.9,351.9 1078.8,351.9 1059.1,404.2 1056.2,404.2 1036.4,351.9 1027.3,351.9 
			1049.8,412.6 		"/>
		<polygon class="st0" points="1004,374.3 943.3,351.9 943.3,361.1 995.6,380.8 995.6,383.8 943.3,403.4 943.3,412.6 1004,390.1 		
			"/>
		<polygon class="st0" points="888.2,360.3 891.2,360.3 910.8,412.6 920,412.6 897.5,351.9 881.9,351.9 859.4,412.6 868.5,412.6 		
			"/>
		<polygon class="st0" points="836,403.4 783.8,383.8 783.8,380.8 836,361.1 836,351.9 775.4,374.3 775.4,390.1 836,412.6 		"/>
		<polygon class="st0" points="729.5,412.6 752.1,351.9 742.9,351.9 723.1,404.2 720.3,404.2 700.6,351.9 691.4,351.9 713.8,412.6 
					"/>
		<polygon class="st0" points="668,403.4 615.8,383.8 615.8,380.8 668,361.1 668,351.9 607.5,374.3 607.5,390.1 668,412.6 		"/>
		<polygon class="st0" points="552.3,360.3 555.2,360.3 574.9,412.6 584,412.6 561.6,351.9 545.9,351.9 523.5,412.6 532.7,412.6 		
			"/>
		<polygon class="st0" points="439.5,403.4 439.5,412.6 500.1,390.1 500.1,374.3 439.5,351.9 439.5,361.1 491.7,380.8 491.7,383.8 
					"/>
		<polygon class="st0" points="416.1,403.4 363.8,383.8 363.8,380.8 416.1,361.1 416.1,351.9 355.5,374.3 355.5,390.1 416.1,412.6 
					"/>
		<polygon class="st0" points="309.7,412.6 332.1,351.9 323,351.9 303.3,404.2 300.4,404.2 280.7,351.9 271.5,351.9 294,412.6 		"/>
		<polygon class="st0" points="836,485 775.4,462.5 775.4,471.6 827.7,491.3 827.7,494.3 775.4,513.9 775.4,523.1 836,500.7 		"/>
		<polygon class="st0" points="888.2,470.9 891.2,470.9 910.8,523.1 920,523.1 897.5,462.5 881.9,462.5 859.4,523.1 868.5,523.1 		
			"/>
		<polygon class="st0" points="981.6,523.1 1004,462.5 994.8,462.5 975.1,514.7 972.3,514.7 952.5,462.5 943.3,462.5 965.8,523.1 		
			"/>
		<polygon class="st0" points="1056.2,470.9 1059.1,470.9 1078.8,523.1 1087.9,523.1 1065.5,462.5 1049.8,462.5 1027.3,523.1 
			1036.4,523.1 		"/>
		<polygon class="st0" points="720.2,470.9 723.1,470.9 742.9,523.1 752.1,523.1 729.5,462.5 713.8,462.5 691.4,523.1 700.6,523.1 
					"/>
		<polygon class="st0" points="645.6,523.1 668,462.5 658.8,462.5 639.2,514.7 636.3,514.7 616.6,462.5 607.5,462.5 629.9,523.1 		
			"/>
		<polygon class="st0" points="584,485 523.5,462.5 523.5,471.6 575.6,491.3 575.6,494.3 523.5,513.9 523.5,523.1 584,500.7 		"/>
		<polygon class="st0" points="468.4,470.9 471.3,470.9 490.9,523.1 500.1,523.1 477.7,462.5 461.9,462.5 439.5,523.1 448.6,523.1 
					"/>
		<polygon class="st0" points="416.1,514 363.8,494.3 363.8,491.3 416.1,471.6 416.1,462.5 355.5,485 355.5,500.7 416.1,523.1 		"/>
		<polygon class="st0" points="309.7,523.1 332.1,462.5 323,462.5 303.3,514.7 300.4,514.7 280.7,462.5 271.5,462.5 294,523.1 		"/>
		<polygon class="st0" points="248.2,485 187.5,462.5 187.5,471.6 239.8,491.3 239.8,494.3 187.5,513.9 187.5,523.1 248.2,500.7 		
			"/>
		<polygon class="st0" points="141.7,523.1 164.2,462.5 155,462.5 135.3,514.7 132.4,514.7 112.7,462.5 103.6,462.5 126,523.1 		"/>
		<polygon class="st0" points="48.4,470.9 51.3,470.9 71.1,523.1 80.3,523.1 57.7,462.5 42,462.5 19.6,523.1 28.8,523.1 		"/>
		<polygon class="st0" points="48.4,360.3 51.3,360.3 71.1,412.6 80.3,412.6 57.7,351.9 42,351.9 19.6,412.6 28.8,412.6 		"/>
		<polygon class="st0" points="141.7,412.6 164.2,351.9 155,351.9 135.3,404.2 132.4,404.2 112.7,351.9 103.6,351.9 126,412.6 		"/>
		<polygon class="st0" points="248.2,403.4 195.9,383.8 195.9,380.8 248.2,361.1 248.2,351.9 187.5,374.3 187.5,390.1 248.2,412.6 
					"/>
		<polygon class="st0" points="48.4,255.4 51.3,255.4 71.1,307.6 80.3,307.6 57.7,247 42,247 19.6,307.6 28.8,307.6 		"/>
		<polygon class="st0" points="164.2,298.5 111.9,278.7 111.9,275.8 164.2,256.2 164.2,247 103.6,269.4 103.6,285.1 164.2,307.6 		
			"/>
		<polygon class="st0" points="225.6,307.6 248.2,247 239,247 219.4,299.3 216.3,299.3 196.7,247 187.5,247 209.9,307.6 		"/>
		<polygon class="st0" points="332.1,269.4 271.5,247 271.5,256.2 323.8,275.8 323.8,278.7 271.5,298.5 271.5,307.6 332.1,285.1 		
			"/>
		<polygon class="st0" points="384.4,255.4 387.3,255.4 406.9,307.6 416.1,307.6 393.7,247 378,247 355.5,307.6 364.6,307.6 		"/>
		<polygon class="st0" points="500.1,269.4 439.5,247 439.5,256.2 491.7,275.8 491.7,278.7 439.5,298.5 439.5,307.6 500.1,285.1 		
			"/>
		<polygon class="st0" points="561.6,307.6 584,247 574.9,247 555.2,299.3 552.3,299.3 532.7,247 523.5,247 545.9,307.6 		"/>
		<polygon class="st0" points="668,298.5 615.8,278.7 615.8,275.8 668,256.2 668,247 607.5,269.4 607.5,285.1 668,307.6 		"/>
		<polygon class="st0" points="752.1,269.4 691.4,247 691.4,256.2 743.7,275.8 743.7,278.7 691.4,298.5 691.4,307.6 752.1,285.1 		
			"/>
		<polygon class="st0" points="804.2,255.4 807.1,255.4 826.9,307.6 836,307.6 813.5,247 797.8,247 775.4,307.6 784.6,307.6 		"/>
		<polygon class="st0" points="332.1,192.4 279.9,172.7 279.9,169.8 332.1,150.2 332.1,141 271.5,163.4 271.5,179.1 332.1,201.5 		
			"/>
		<polygon class="st0" points="225.6,201.5 248.2,141 239,141 219.4,193.2 216.3,193.2 196.7,141 187.5,141 209.9,201.5 		"/>
		<polygon class="st0" points="126,141 103.6,201.5 112.7,201.5 132.4,149.4 135.3,149.4 155.1,201.5 164.2,201.5 141.7,141 		"/>
		<polygon class="st0" points="57.7,201.5 80.3,141 71.1,141 51.3,193.2 48.4,193.2 28.8,141 19.6,141 42,201.5 		"/>
		<polygon class="st0" points="393.7,201.5 416.1,141 406.9,141 387.3,193.2 384.4,193.2 364.6,141 355.5,141 378,201.5 		"/>
		<polygon class="st0" points="468.4,149.4 471.2,149.4 490.9,201.5 500.1,201.5 477.7,141 461.9,141 439.5,201.5 448.6,201.5 		"/>
		<polygon class="st0" points="584,192.4 531.9,172.7 531.9,169.8 584,150.2 584,141 523.5,163.4 523.5,179.1 584,201.5 		"/>
		<polygon class="st0" points="645.6,201.5 668,141 658.8,141 639.2,193.2 636.3,193.2 616.6,141 607.5,141 629.9,201.5 		"/>
		<polygon class="st0" points="752.1,163.4 691.4,141 691.4,150.2 743.7,169.8 743.7,172.7 691.4,192.4 691.4,201.5 752.1,179.1 		
			"/>
		<polygon class="st0" points="804.2,149.4 807.1,149.4 826.9,201.5 836,201.5 813.5,141 797.8,141 775.4,201.5 784.6,201.5 		"/>
		<polygon class="st0" points="920,192.4 867.7,172.7 867.7,169.8 920,150.2 920,141 859.4,163.4 859.4,179.1 920,201.5 		"/>
		<polygon class="st0" points="972.3,149.4 975.1,149.4 994.8,201.5 1004,201.5 981.6,141 965.8,141 943.3,201.5 952.5,201.5 		"/>
		<polygon class="st0" points="1065.5,201.5 1087.9,141 1078.8,141 1059.1,193.2 1056.2,193.2 1036.4,141 1027.3,141 1049.8,201.5 
					"/>
		<polygon class="st0" points="1065.5,307.6 1087.9,247 1078.8,247 1059.1,299.3 1056.2,299.3 1036.4,247 1027.3,247 1049.8,307.6 
					"/>
		<polygon class="st0" points="972.3,255.4 975.1,255.4 994.8,307.6 1004,307.6 981.6,247 965.8,247 943.3,307.6 952.5,307.6 		"/>
		<polygon class="st0" points="920,269.4 859.4,247 859.4,256.2 911.6,275.8 911.6,278.7 859.4,298.5 859.4,307.6 920,285.1 		"/>
		<polygon class="st0" points="48.4,43.4 51.3,43.4 71.1,95.6 80.3,95.6 57.7,35.1 42,35.1 19.6,95.6 28.8,95.6 		"/>
		<polygon class="st0" points="164.2,86.4 111.9,66.8 111.9,63.9 164.2,44.2 164.2,35.1 103.6,57.5 103.6,73.2 164.2,95.6 		"/>
		<polygon class="st0" points="225.6,95.6 248.2,35.1 239,35.1 219.4,87.2 216.3,87.2 196.7,35.1 187.5,35.1 209.9,95.6 		"/>
		<polygon class="st0" points="332.1,57.5 271.5,35.1 271.5,44.2 323.8,63.9 323.8,66.8 271.5,86.4 271.5,95.6 332.1,73.2 		"/>
		<polygon class="st0" points="384.4,43.4 387.3,43.4 406.9,95.6 416.1,95.6 393.7,35.1 378,35.1 355.5,95.6 364.6,95.6 		"/>
		<polygon class="st0" points="500.1,57.5 439.5,35.1 439.5,44.2 491.7,63.9 491.7,66.8 439.5,86.4 439.5,95.6 500.1,73.2 		"/>
		<polygon class="st0" points="561.6,95.6 584,35.1 574.9,35.1 555.2,87.2 552.3,87.2 532.7,35.1 523.5,35.1 545.9,95.6 		"/>
		<polygon class="st0" points="668,86.4 615.8,66.8 615.8,63.9 668,44.2 668,35.1 607.5,57.5 607.5,73.2 668,95.6 		"/>
		<polygon class="st0" points="752.1,57.5 691.4,35.1 691.4,44.2 743.7,63.9 743.7,66.8 691.4,86.4 691.4,95.6 752.1,73.2 		"/>
		<polygon class="st0" points="804.2,43.4 807.1,43.4 826.9,95.6 836,95.6 813.5,35.1 797.8,35.1 775.4,95.6 784.6,95.6 		"/>
		<polygon class="st0" points="332.1,-20.6 279.9,-40.2 279.9,-43.1 332.1,-62.9 332.1,-72.1 271.5,-49.5 271.5,-33.8 332.1,-11.4 
					"/>
		<polygon class="st0" points="225.6,-11.4 248.2,-72.1 239,-72.1 219.4,-19.8 216.3,-19.8 196.7,-72.1 187.5,-72.1 209.9,-11.4 		
			"/>
		<polygon class="st0" points="132.4,-63.7 135.3,-63.7 155.1,-11.4 164.2,-11.4 141.7,-72.1 126,-72.1 103.6,-11.4 112.7,-11.4 		
			"/>
		<polygon class="st0" points="57.7,-11.4 80.3,-72.1 71.1,-72.1 51.3,-19.8 48.4,-19.8 28.8,-72.1 19.6,-72.1 42,-11.4 		"/>
		<polygon class="st0" points="393.7,-11.4 416.1,-72.1 406.9,-72.1 387.3,-19.8 384.4,-19.8 364.6,-72.1 355.5,-72.1 378,-11.4 		
			"/>
		<polygon class="st0" points="468.4,-63.7 471.2,-63.7 490.9,-11.4 500.1,-11.4 477.7,-72.1 461.9,-72.1 439.5,-11.4 448.6,-11.4 
					"/>
		<polygon class="st0" points="584,-20.6 531.9,-40.2 531.9,-43.1 584,-62.9 584,-72.1 523.5,-49.5 523.5,-33.8 584,-11.4 		"/>
		<polygon class="st0" points="645.6,-11.4 668,-72.1 658.8,-72.1 639.2,-19.8 636.3,-19.8 616.6,-72.1 607.5,-72.1 629.9,-11.4 		
			"/>
		<polygon class="st0" points="752.1,-49.5 691.4,-72.1 691.4,-62.9 743.7,-43.1 743.7,-40.2 691.4,-20.6 691.4,-11.4 752.1,-33.8 
					"/>
		<polygon class="st0" points="804.2,-63.7 807.1,-63.7 826.9,-11.4 836,-11.4 813.5,-72.1 797.8,-72.1 775.4,-11.4 784.6,-11.4 		
			"/>
		<polygon class="st0" points="920,-20.6 867.7,-40.2 867.7,-43.1 920,-62.9 920,-72.1 859.4,-49.5 859.4,-33.8 920,-11.4 		"/>
		<polygon class="st0" points="972.3,-63.7 975.1,-63.7 994.8,-11.4 1004,-11.4 981.6,-72.1 965.8,-72.1 943.3,-11.4 952.5,-11.4 		
			"/>
		<polygon class="st0" points="1065.5,-11.4 1087.9,-72.1 1078.8,-72.1 1059.1,-19.8 1056.2,-19.8 1036.4,-72.1 1027.3,-72.1 
			1049.8,-11.4 		"/>
		<polygon class="st0" points="1065.5,95.6 1087.9,35.1 1078.8,35.1 1059.1,87.2 1056.2,87.2 1036.4,35.1 1027.3,35.1 1049.8,95.6 
					"/>
		<polygon class="st0" points="972.3,43.4 975.1,43.4 994.8,95.6 1004,95.6 981.6,35.1 965.8,35.1 943.3,95.6 952.5,95.6 		"/>
		<polygon class="st0" points="920,57.5 859.4,35.1 859.4,44.2 911.6,63.9 911.6,66.8 859.4,86.4 859.4,95.6 920,73.2 		"/>
		<polygon class="st0" points="2631.8,513.9 2631.8,523.1 2692.3,500.7 2692.3,485 2631.8,462.5 2631.8,471.6 2684,491.3 
			2684,494.3 		"/>
		<polygon class="st0" points="2692.3,361.1 2692.3,351.9 2631.8,374.3 2631.8,390.1 2692.3,412.6 2692.3,403.4 2640.2,383.8 
			2640.2,380.8 		"/>
		<polygon class="st0" points="2692.3,269.4 2631.8,247 2631.8,256.2 2684,275.8 2684,278.7 2631.8,298.5 2631.8,307.6 
			2692.3,285.1 		"/>
		<polygon class="st0" points="2692.3,163.4 2631.8,141 2631.8,150.2 2684,169.8 2684,172.7 2631.8,192.4 2631.8,201.5 
			2692.3,179.1 		"/>
		<polygon class="st0" points="2692.3,57.5 2631.8,35.1 2631.8,44.2 2684,63.9 2684,66.8 2631.8,86.4 2631.8,95.6 2692.3,73.2 		"/>
		<polygon class="st0" points="2692.3,-49.5 2631.8,-72.1 2631.8,-62.9 2684,-43.1 2684,-40.2 2631.8,-20.6 2631.8,-11.4 
			2692.3,-33.8 		"/>
		<polygon class="st0" points="2936,494.3 2883.7,513.9 2883.7,523.1 2944.4,500.7 2944.4,485 2883.7,462.5 2883.7,471.6 
			2936,491.3 		"/>
		<polygon class="st0" points="2837.9,523.1 2860.4,462.5 2851.2,462.5 2831.5,514.7 2828.6,514.7 2808.9,462.5 2799.7,462.5 
			2822.1,523.1 		"/>
		<polygon class="st0" points="2753.9,462.5 2738.2,462.5 2715.8,523.1 2725,523.1 2744.6,470.9 2747.5,470.9 2767.3,523.1 
			2776.4,523.1 		"/>
		<polygon class="st0" points="2744.6,360.3 2747.5,360.3 2767.3,412.6 2776.4,412.6 2753.9,351.9 2738.2,351.9 2715.8,412.6 
			2725,412.6 		"/>
		<polygon class="st0" points="2837.9,412.6 2860.4,351.9 2851.2,351.9 2831.5,404.2 2828.6,404.2 2808.9,351.9 2799.7,351.9 
			2822.1,412.6 		"/>
		<polygon class="st0" points="2944.4,403.4 2892.1,383.8 2892.1,380.8 2944.4,361.1 2944.4,351.9 2883.7,374.3 2883.7,390.1 
			2944.4,412.6 		"/>
		<polygon class="st0" points="2744.6,255.4 2747.5,255.4 2767.3,307.6 2776.4,307.6 2753.9,247 2738.2,247 2715.8,307.6 
			2725,307.6 		"/>
		<polygon class="st0" points="2860.4,298.5 2808.1,278.7 2808.1,275.8 2860.4,256.2 2860.4,247 2799.7,269.4 2799.7,285.1 
			2860.4,307.6 		"/>
		<polygon class="st0" points="2921.8,307.6 2944.4,247 2935.2,247 2915.5,299.3 2912.5,299.3 2892.9,247 2883.7,247 2906.1,307.6 
					"/>
		<polygon class="st0" points="2921.8,201.5 2944.4,141 2935.2,141 2915.5,193.2 2912.5,193.2 2892.9,141 2883.7,141 2906.1,201.5 
					"/>
		<polygon class="st0" points="2822.1,141 2799.7,201.5 2808.9,201.5 2828.6,149.4 2831.5,149.4 2851.2,201.5 2860.4,201.5 
			2837.9,141 		"/>
		<polygon class="st0" points="2753.9,201.5 2776.4,141 2767.3,141 2747.5,193.2 2744.6,193.2 2725,141 2715.8,141 2738.2,201.5 		
			"/>
		<polygon class="st0" points="2744.6,43.4 2747.5,43.4 2767.3,95.6 2776.4,95.6 2753.9,35.1 2738.2,35.1 2715.8,95.6 2725,95.6 		
			"/>
		<polygon class="st0" points="2860.4,86.4 2808.1,66.8 2808.1,63.9 2860.4,44.2 2860.4,35.1 2799.7,57.5 2799.7,73.2 2860.4,95.6 
					"/>
		<polygon class="st0" points="2921.8,95.6 2944.4,35.1 2935.2,35.1 2915.5,87.2 2912.5,87.2 2892.9,35.1 2883.7,35.1 2906.1,95.6 
					"/>
		<polygon class="st0" points="2921.8,-11.4 2944.4,-72.1 2935.2,-72.1 2915.5,-19.8 2912.5,-19.8 2892.9,-72.1 2883.7,-72.1 
			2906.1,-11.4 		"/>
		<polygon class="st0" points="2828.6,-63.7 2831.5,-63.7 2851.2,-11.4 2860.4,-11.4 2837.9,-72.1 2822.1,-72.1 2799.7,-11.4 
			2808.9,-11.4 		"/>
		<polygon class="st0" points="2753.9,-11.4 2776.4,-72.1 2767.3,-72.1 2747.5,-19.8 2744.6,-19.8 2725,-72.1 2715.8,-72.1 
			2738.2,-11.4 		"/>
		<polygon class="st0" points="1513.1,485 1452.6,462.5 1452.6,471.6 1504.7,491.3 1504.7,494.3 1452.6,514 1452.6,523.1 
			1513.1,500.7 		"/>
		<polygon class="st0" points="1513.1,403.4 1461,383.8 1461,380.8 1513.1,361.1 1513.1,351.9 1452.6,374.3 1452.6,390.1 
			1513.1,412.6 		"/>
		<polygon class="st0" points="1513.1,269.4 1452.6,247 1452.6,256.2 1504.7,275.8 1504.7,278.7 1452.6,298.5 1452.6,307.6 
			1513.1,285.1 		"/>
		<polygon class="st0" points="1513.1,163.4 1452.6,141 1452.6,150.2 1504.7,169.8 1504.7,172.7 1452.6,192.4 1452.6,201.5 
			1513.1,179.1 		"/>
		<polygon class="st0" points="1513.1,57.5 1452.6,35.1 1452.6,44.2 1504.7,63.9 1504.7,66.8 1452.6,86.4 1452.6,95.6 1513.1,73.2 
					"/>
		<polygon class="st0" points="1513.1,-49.5 1452.6,-72.1 1452.6,-62.9 1504.7,-43.1 1504.7,-40.2 1452.6,-20.6 1452.6,-11.4 
			1513.1,-33.8 		"/>
		<polygon class="st0" points="2582.5,412.6 2604.9,351.9 2595.7,351.9 2576.1,404.2 2573.2,404.2 2553.4,351.9 2544.2,351.9 
			2566.8,412.6 		"/>
		<polygon class="st0" points="2520.9,374.3 2460.3,351.9 2460.3,361.1 2512.5,380.8 2512.5,383.8 2460.3,403.4 2460.3,412.6 
			2520.9,390.1 		"/>
		<polygon class="st0" points="2405.1,360.3 2408.1,360.3 2427.8,412.6 2437,412.6 2414.4,351.9 2398.8,351.9 2376.3,412.6 
			2385.5,412.6 		"/>
		<polygon class="st0" points="2353,403.4 2300.7,383.8 2300.7,380.8 2353,361.1 2353,351.9 2292.4,374.3 2292.4,390.1 2353,412.6 
					"/>
		<polygon class="st0" points="2246.5,412.6 2269,351.9 2259.9,351.9 2240.1,404.2 2237.2,404.2 2217.6,351.9 2208.4,351.9 
			2230.8,412.6 		"/>
		<polygon class="st0" points="2184.9,403.4 2132.8,383.8 2132.8,380.8 2184.9,361.1 2184.9,351.9 2124.4,374.3 2124.4,390.1 
			2184.9,412.6 		"/>
		<polygon class="st0" points="2069.3,360.3 2072.2,360.3 2091.8,412.6 2101,412.6 2078.6,351.9 2062.9,351.9 2040.5,412.6 
			2049.6,412.6 		"/>
		<polygon class="st0" points="1956.5,403.4 1956.5,412.6 2017,390.1 2017,374.3 1956.5,351.9 1956.5,361.1 2008.6,380.8 
			2008.6,383.8 		"/>
		<polygon class="st0" points="1933.1,403.4 1880.8,383.8 1880.8,380.8 1933.1,361.1 1933.1,351.9 1872.4,374.3 1872.4,390.1 
			1933.1,412.6 		"/>
		<polygon class="st0" points="1826.7,412.6 1849.1,351.9 1839.9,351.9 1820.3,404.2 1817.4,404.2 1797.6,351.9 1788.5,351.9 
			1811,412.6 		"/>
		<polygon class="st0" points="2353,485 2292.4,462.5 2292.4,471.6 2344.6,491.3 2344.6,494.3 2292.4,513.9 2292.4,523.1 
			2353,500.7 		"/>
		<polygon class="st0" points="2405.1,470.9 2408.1,470.9 2427.8,523.1 2437,523.1 2414.4,462.5 2398.8,462.5 2376.3,523.1 
			2385.5,523.1 		"/>
		<polygon class="st0" points="2498.5,523.1 2520.9,462.5 2511.8,462.5 2492.1,514.7 2489.2,514.7 2469.4,462.5 2460.3,462.5 
			2482.8,523.1 		"/>
		<polygon class="st0" points="2573.2,470.9 2576.1,470.9 2595.7,523.1 2604.9,523.1 2582.5,462.5 2566.8,462.5 2544.2,523.1 
			2553.4,523.1 		"/>
		<polygon class="st0" points="2237.2,470.9 2240.1,470.9 2259.9,523.1 2269,523.1 2246.5,462.5 2230.8,462.5 2208.4,523.1 
			2217.6,523.1 		"/>
		<polygon class="st0" points="2162.5,523.1 2184.9,462.5 2175.8,462.5 2156.1,514.7 2153.3,514.7 2133.6,462.5 2124.4,462.5 
			2146.8,523.1 		"/>
		<polygon class="st0" points="2101,485 2040.5,462.5 2040.5,471.6 2092.6,491.3 2092.6,494.3 2040.5,513.9 2040.5,523.1 
			2101,500.7 		"/>
		<polygon class="st0" points="1985.3,470.9 1988.2,470.9 2007.9,523.1 2017,523.1 1994.6,462.5 1978.9,462.5 1956.5,523.1 
			1965.5,523.1 		"/>
		<polygon class="st0" points="1933.1,514 1880.8,494.3 1880.8,491.3 1933.1,471.6 1933.1,462.5 1872.4,485 1872.4,500.7 
			1933.1,523.1 		"/>
		<polygon class="st0" points="1826.7,523.1 1849.1,462.5 1839.9,462.5 1820.3,514.7 1817.4,514.7 1797.6,462.5 1788.5,462.5 
			1811,523.1 		"/>
		<polygon class="st0" points="1765.1,485 1704.5,462.5 1704.5,471.6 1756.8,491.3 1756.8,494.3 1704.5,513.9 1704.5,523.1 
			1765.1,500.7 		"/>
		<polygon class="st0" points="1658.7,523.1 1681.2,462.5 1672,462.5 1652.2,514.7 1649.4,514.7 1629.7,462.5 1620.5,462.5 
			1642.9,523.1 		"/>
		<polygon class="st0" points="1565.4,470.9 1568.3,470.9 1588.1,523.1 1597.2,523.1 1574.7,462.5 1559,462.5 1536.6,523.1 
			1545.7,523.1 		"/>
		<polygon class="st0" points="1565.4,360.3 1568.3,360.3 1588.1,412.6 1597.2,412.6 1574.7,351.9 1559,351.9 1536.6,412.6 
			1545.7,412.6 		"/>
		<polygon class="st0" points="1658.7,412.6 1681.2,351.9 1672,351.9 1652.2,404.2 1649.4,404.2 1629.7,351.9 1620.5,351.9 
			1642.9,412.6 		"/>
		<polygon class="st0" points="1765.1,403.4 1712.9,383.8 1712.9,380.8 1765.1,361.1 1765.1,351.9 1704.5,374.3 1704.5,390.1 
			1765.1,412.6 		"/>
		<polygon class="st0" points="1565.4,255.4 1568.3,255.4 1588.1,307.6 1597.2,307.6 1574.7,247 1559,247 1536.6,307.6 
			1545.7,307.6 		"/>
		<polygon class="st0" points="1681.2,298.5 1628.9,278.7 1628.9,275.8 1681.2,256.2 1681.2,247 1620.5,269.4 1620.5,285.1 
			1681.2,307.6 		"/>
		<polygon class="st0" points="1742.6,307.6 1765.1,247 1756,247 1736.3,299.3 1733.3,299.3 1713.7,247 1704.5,247 1726.9,307.6 		
			"/>
		<polygon class="st0" points="1849.1,269.4 1788.5,247 1788.5,256.2 1840.7,275.8 1840.7,278.7 1788.5,298.5 1788.5,307.6 
			1849.1,285.1 		"/>
		<polygon class="st0" points="1901.4,255.4 1904.2,255.4 1923.9,307.6 1933.1,307.6 1910.7,247 1894.9,247 1872.4,307.6 
			1881.6,307.6 		"/>
		<polygon class="st0" points="2017,269.4 1956.5,247 1956.5,256.2 2008.6,275.8 2008.6,278.7 1956.5,298.5 1956.5,307.6 
			2017,285.1 		"/>
		<polygon class="st0" points="2078.6,307.6 2101,247 2091.8,247 2072.2,299.3 2069.3,299.3 2049.6,247 2040.5,247 2062.9,307.6 		
			"/>
		<polygon class="st0" points="2184.9,298.5 2132.8,278.7 2132.8,275.8 2184.9,256.2 2184.9,247 2124.4,269.4 2124.4,285.1 
			2184.9,307.6 		"/>
		<polygon class="st0" points="2269,269.4 2208.4,247 2208.4,256.2 2260.7,275.8 2260.7,278.7 2208.4,298.5 2208.4,307.6 
			2269,285.1 		"/>
		<polygon class="st0" points="2321.2,255.4 2324.1,255.4 2343.8,307.6 2353,307.6 2330.5,247 2314.8,247 2292.4,307.6 
			2301.5,307.6 		"/>
		<polygon class="st0" points="1849.1,192.4 1796.8,172.7 1796.8,169.8 1849.1,150.2 1849.1,141 1788.5,163.4 1788.5,179.1 
			1849.1,201.5 		"/>
		<polygon class="st0" points="1742.6,201.5 1765.1,141 1756,141 1736.3,193.2 1733.3,193.2 1713.7,141 1704.5,141 1726.9,201.5 		
			"/>
		<polygon class="st0" points="1642.9,141 1620.5,201.5 1629.7,201.5 1649.3,149.4 1652.2,149.4 1672,201.5 1681.2,201.5 
			1658.7,141 		"/>
		<polygon class="st0" points="1574.7,201.5 1597.2,141 1588.1,141 1568.3,193.2 1565.4,193.2 1545.7,141 1536.6,141 1559,201.5 		
			"/>
		<polygon class="st0" points="1910.7,201.5 1933.1,141 1923.9,141 1904.2,193.2 1901.4,193.2 1881.6,141 1872.4,141 1894.9,201.5 
					"/>
		<polygon class="st0" points="1985.3,149.4 1988.2,149.4 2007.9,201.5 2017,201.5 1994.6,141 1978.9,141 1956.5,201.5 
			1965.5,201.5 		"/>
		<polygon class="st0" points="2101,192.4 2048.9,172.7 2048.9,169.8 2101,150.2 2101,141 2040.5,163.4 2040.5,179.1 2101,201.5 		
			"/>
		<polygon class="st0" points="2162.5,201.5 2184.9,141 2175.8,141 2156.1,193.2 2153.3,193.2 2133.6,141 2124.4,141 2146.8,201.5 
					"/>
		<polygon class="st0" points="2269,163.4 2208.4,141 2208.4,150.2 2260.7,169.8 2260.7,172.7 2208.4,192.4 2208.4,201.5 
			2269,179.1 		"/>
		<polygon class="st0" points="2321.2,149.4 2324.1,149.4 2343.8,201.5 2353,201.5 2330.5,141 2314.8,141 2292.4,201.5 
			2301.5,201.5 		"/>
		<polygon class="st0" points="2437,192.4 2384.7,172.7 2384.7,169.8 2437,150.2 2437,141 2376.3,163.4 2376.3,179.1 2437,201.5 		
			"/>
		<polygon class="st0" points="2489.2,149.4 2492.1,149.4 2511.8,201.5 2520.9,201.5 2498.5,141 2482.8,141 2460.3,201.5 
			2469.4,201.5 		"/>
		<polygon class="st0" points="2582.5,201.5 2604.9,141 2595.7,141 2576.1,193.2 2573.2,193.2 2553.4,141 2544.2,141 2566.8,201.5 
					"/>
		<polygon class="st0" points="2582.5,307.6 2604.9,247 2595.7,247 2576.1,299.3 2573.2,299.3 2553.4,247 2544.2,247 2566.8,307.6 
					"/>
		<polygon class="st0" points="2489.2,255.4 2492.1,255.4 2511.8,307.6 2520.9,307.6 2498.5,247 2482.8,247 2460.3,307.6 
			2469.4,307.6 		"/>
		<polygon class="st0" points="2437,269.4 2376.3,247 2376.3,256.2 2428.6,275.8 2428.6,278.7 2376.3,298.5 2376.3,307.6 
			2437,285.1 		"/>
		<polygon class="st0" points="1565.4,43.4 1568.3,43.4 1588.1,95.6 1597.2,95.6 1574.7,35.1 1559,35.1 1536.6,95.6 1545.7,95.6 		
			"/>
		<polygon class="st0" points="1681.2,86.4 1628.9,66.8 1628.9,63.9 1681.2,44.2 1681.2,35.1 1620.5,57.5 1620.5,73.2 1681.2,95.6 
					"/>
		<polygon class="st0" points="1742.6,95.6 1765.1,35.1 1756,35.1 1736.3,87.2 1733.3,87.2 1713.7,35.1 1704.5,35.1 1726.9,95.6 		
			"/>
		<polygon class="st0" points="1849.1,57.5 1788.5,35.1 1788.5,44.2 1840.7,63.9 1840.7,66.8 1788.5,86.4 1788.5,95.6 1849.1,73.2 
					"/>
		<polygon class="st0" points="1901.4,43.4 1904.2,43.4 1923.9,95.6 1933.1,95.6 1910.7,35.1 1894.9,35.1 1872.4,95.6 1881.6,95.6 
					"/>
		<polygon class="st0" points="2017,57.5 1956.5,35.1 1956.5,44.2 2008.6,63.9 2008.6,66.8 1956.5,86.4 1956.5,95.6 2017,73.2 		"/>
		<polygon class="st0" points="2078.6,95.6 2101,35.1 2091.8,35.1 2072.2,87.2 2069.3,87.2 2049.6,35.1 2040.5,35.1 2062.9,95.6 		
			"/>
		<polygon class="st0" points="2184.9,86.4 2132.8,66.8 2132.8,63.9 2184.9,44.2 2184.9,35.1 2124.4,57.5 2124.4,73.2 2184.9,95.6 
					"/>
		<polygon class="st0" points="2269,57.5 2208.4,35.1 2208.4,44.2 2260.7,63.9 2260.7,66.8 2208.4,86.4 2208.4,95.6 2269,73.2 		"/>
		<polygon class="st0" points="2321.2,43.4 2324.1,43.4 2343.8,95.6 2353,95.6 2330.5,35.1 2314.8,35.1 2292.4,95.6 2301.5,95.6 		
			"/>
		<polygon class="st0" points="1849.1,-20.6 1796.8,-40.2 1796.8,-43.1 1849.1,-62.9 1849.1,-72.1 1788.5,-49.5 1788.5,-33.8 
			1849.1,-11.4 		"/>
		<polygon class="st0" points="1742.6,-11.4 1765.1,-72.1 1756,-72.1 1736.3,-19.8 1733.3,-19.8 1713.7,-72.1 1704.5,-72.1 
			1726.9,-11.4 		"/>
		<polygon class="st0" points="1649.3,-63.7 1652.2,-63.7 1672,-11.4 1681.2,-11.4 1658.7,-72.1 1642.9,-72.1 1620.5,-11.4 
			1629.7,-11.4 		"/>
		<polygon class="st0" points="1574.7,-11.4 1597.2,-72.1 1588.1,-72.1 1568.3,-19.8 1565.4,-19.8 1545.7,-72.1 1536.6,-72.1 
			1559,-11.4 		"/>
		<polygon class="st0" points="1910.7,-11.4 1933.1,-72.1 1923.9,-72.1 1904.2,-19.8 1901.4,-19.8 1881.6,-72.1 1872.4,-72.1 
			1894.9,-11.4 		"/>
		<polygon class="st0" points="1985.3,-63.7 1988.2,-63.7 2007.9,-11.4 2017,-11.4 1994.6,-72.1 1978.9,-72.1 1956.5,-11.4 
			1965.5,-11.4 		"/>
		<polygon class="st0" points="2101,-20.6 2048.9,-40.2 2048.9,-43.1 2101,-62.9 2101,-72.1 2040.5,-49.5 2040.5,-33.8 2101,-11.4 
					"/>
		<polygon class="st0" points="2162.5,-11.4 2184.9,-72.1 2175.8,-72.1 2156.1,-19.8 2153.3,-19.8 2133.6,-72.1 2124.4,-72.1 
			2146.8,-11.4 		"/>
		<polygon class="st0" points="2269,-49.5 2208.4,-72.1 2208.4,-62.9 2260.7,-43.1 2260.7,-40.2 2208.4,-20.6 2208.4,-11.4 
			2269,-33.8 		"/>
		<polygon class="st0" points="2321.2,-63.7 2324.1,-63.7 2343.8,-11.4 2353,-11.4 2330.5,-72.1 2314.8,-72.1 2292.4,-11.4 
			2301.5,-11.4 		"/>
		<polygon class="st0" points="2437,-20.6 2384.7,-40.2 2384.7,-43.1 2437,-62.9 2437,-72.1 2376.3,-49.5 2376.3,-33.8 2437,-11.4 
					"/>
		<polygon class="st0" points="2489.2,-63.7 2492.1,-63.7 2511.8,-11.4 2520.9,-11.4 2498.5,-72.1 2482.8,-72.1 2460.3,-11.4 
			2469.4,-11.4 		"/>
		<polygon class="st0" points="2582.5,-11.4 2604.9,-72.1 2595.7,-72.1 2576.1,-19.8 2573.2,-19.8 2553.4,-72.1 2544.2,-72.1 
			2566.8,-11.4 		"/>
		<polygon class="st0" points="2582.5,95.6 2604.9,35.1 2595.7,35.1 2576.1,87.2 2573.2,87.2 2553.4,35.1 2544.2,35.1 2566.8,95.6 
					"/>
		<polygon class="st0" points="2489.2,43.4 2492.1,43.4 2511.8,95.6 2520.9,95.6 2498.5,35.1 2482.8,35.1 2460.3,95.6 2469.4,95.6 
					"/>
		<polygon class="st0" points="2437,57.5 2376.3,35.1 2376.3,44.2 2428.6,63.9 2428.6,66.8 2376.3,86.4 2376.3,95.6 2437,73.2 		"/>
		<polygon class="st0" points="2582.5,1480 2604.9,1419.5 2595.7,1419.5 2576.1,1471.6 2573.2,1471.6 2553.4,1419.5 2544.2,1419.5 
			2566.8,1480 		"/>
		<polygon class="st0" points="2520.9,1441.9 2460.3,1419.5 2460.3,1428.6 2512.5,1448.3 2512.5,1451.2 2460.3,1470.8 2460.3,1480 
			2520.9,1457.6 		"/>
		<polygon class="st0" points="2405.1,1427.9 2408.1,1427.9 2427.8,1480 2437,1480 2414.4,1419.5 2398.8,1419.5 2376.3,1480 
			2385.5,1480 		"/>
		<polygon class="st0" points="2353,1470.8 2300.7,1451.2 2300.7,1448.3 2353,1428.6 2353,1419.5 2292.4,1441.9 2292.4,1457.6 
			2353,1480 		"/>
		<polygon class="st0" points="2246.5,1480 2269,1419.5 2259.9,1419.5 2240.1,1471.6 2237.2,1471.6 2217.6,1419.5 2208.4,1419.5 
			2230.8,1480 		"/>
		<polygon class="st0" points="2184.9,1470.8 2132.8,1451.2 2132.8,1448.3 2184.9,1428.6 2184.9,1419.5 2124.4,1441.9 
			2124.4,1457.6 2184.9,1480 		"/>
		<polygon class="st0" points="2069.3,1427.9 2072.2,1427.9 2091.8,1480 2101,1480 2078.6,1419.5 2062.9,1419.5 2040.5,1480 
			2049.6,1480 		"/>
		<polygon class="st0" points="2017,1441.9 1956.5,1419.5 1956.5,1428.6 2008.6,1448.3 2008.6,1451.2 1956.5,1470.8 1956.5,1480 
			2017,1457.6 		"/>
		<polygon class="st0" points="1933.1,1470.8 1880.8,1451.2 1880.8,1448.3 1933.1,1428.6 1933.1,1419.5 1872.4,1441.9 
			1872.4,1457.6 1933.1,1480 		"/>
		<polygon class="st0" points="1826.7,1480 1849.1,1419.5 1839.9,1419.5 1820.3,1471.6 1817.4,1471.6 1797.6,1419.5 1788.5,1419.5 
			1811,1480 		"/>
		<polygon class="st0" points="1565.4,1427.9 1568.3,1427.9 1588.1,1480 1597.2,1480 1574.7,1419.5 1559,1419.5 1536.6,1480 
			1545.7,1480 		"/>
		<polygon class="st0" points="1658.7,1480 1681.2,1419.5 1672,1419.5 1652.2,1471.6 1649.4,1471.6 1629.7,1419.5 1620.5,1419.5 
			1642.9,1480 		"/>
		<polygon class="st0" points="1765.1,1470.8 1712.9,1451.2 1712.9,1448.3 1765.1,1428.6 1765.1,1419.5 1704.5,1441.9 
			1704.5,1457.6 1765.1,1480 		"/>
		<polygon class="st0" points="2353,1653.8 2292.4,1631.4 2292.4,1640.6 2344.6,1660.2 2344.6,1663.1 2292.4,1682.9 2292.4,1692.1 
			2353,1669.5 		"/>
		<polygon class="st0" points="2405.1,1639.8 2408.1,1639.8 2427.8,1692.1 2437,1692.1 2414.4,1631.4 2398.8,1631.4 2376.3,1692.1 
			2385.5,1692.1 		"/>
		<polygon class="st0" points="2498.5,1692.1 2520.9,1631.4 2511.8,1631.4 2492.1,1683.7 2489.2,1683.7 2469.4,1631.4 
			2460.3,1631.4 2482.8,1692.1 		"/>
		<polygon class="st0" points="2573.2,1639.8 2576.1,1639.8 2595.7,1692.1 2604.9,1692.1 2582.5,1631.4 2566.8,1631.4 
			2544.2,1692.1 2553.4,1692.1 		"/>
		<polygon class="st0" points="2237.2,1639.8 2240.1,1639.8 2259.9,1692.1 2269,1692.1 2246.5,1631.4 2230.8,1631.4 2208.4,1692.1 
			2217.6,1692.1 		"/>
		<polygon class="st0" points="2162.5,1692.1 2184.9,1631.4 2175.8,1631.4 2156.1,1683.7 2153.3,1683.7 2133.6,1631.4 
			2124.4,1631.4 2146.8,1692.1 		"/>
		<polygon class="st0" points="2101,1653.8 2040.5,1631.4 2040.5,1640.6 2092.6,1660.2 2092.6,1663.1 2040.5,1682.9 2040.5,1692.1 
			2101,1669.5 		"/>
		<polygon class="st0" points="1985.3,1639.8 1988.2,1639.8 2007.9,1692.1 2017,1692.1 1994.6,1631.4 1978.9,1631.4 1956.5,1692.1 
			1965.5,1692.1 		"/>
		<polygon class="st0" points="1933.1,1682.9 1880.8,1663.1 1880.8,1660.2 1933.1,1640.6 1933.1,1631.4 1872.4,1653.8 
			1872.4,1669.5 1933.1,1692.1 		"/>
		<polygon class="st0" points="1826.7,1692.1 1849.1,1631.4 1839.9,1631.4 1820.3,1683.7 1817.4,1683.7 1797.6,1631.4 
			1788.5,1631.4 1811,1692.1 		"/>
		<polygon class="st0" points="1765.1,1653.8 1704.5,1631.4 1704.5,1640.6 1756.8,1660.2 1756.8,1663.1 1704.5,1682.9 
			1704.5,1692.1 1765.1,1669.5 		"/>
		<polygon class="st0" points="1658.7,1692.1 1681.2,1631.4 1672,1631.4 1652.2,1683.7 1649.4,1683.7 1629.7,1631.4 1620.5,1631.4 
			1642.9,1692.1 		"/>
		<polygon class="st0" points="1565.4,1639.8 1568.3,1639.8 1588.1,1692.1 1597.2,1692.1 1574.7,1631.4 1559,1631.4 1536.6,1692.1 
			1545.7,1692.1 		"/>
		<polygon class="st0" points="1565.4,1533.8 1568.3,1533.8 1588.1,1586.1 1597.2,1586.1 1574.7,1525.4 1559,1525.4 1536.6,1586.1 
			1545.7,1586.1 		"/>
		<polygon class="st0" points="1681.2,1576.9 1628.9,1557.1 1628.9,1554.3 1681.2,1534.6 1681.2,1525.4 1620.5,1547.8 
			1620.5,1563.6 1681.2,1586.1 		"/>
		<polygon class="st0" points="1742.6,1586.1 1765.1,1525.4 1756,1525.4 1736.3,1577.7 1733.3,1577.7 1713.7,1525.4 1704.5,1525.4 
			1726.9,1586.1 		"/>
		<polygon class="st0" points="1849.1,1547.8 1788.5,1525.4 1788.5,1534.6 1840.7,1554.3 1840.7,1557.1 1788.5,1576.9 
			1788.5,1586.1 1849.1,1563.6 		"/>
		<polygon class="st0" points="1901.4,1533.8 1904.2,1533.8 1923.9,1586.1 1933.1,1586.1 1910.7,1525.4 1894.9,1525.4 
			1872.4,1586.1 1881.6,1586.1 		"/>
		<polygon class="st0" points="1956.5,1576.9 1956.5,1586.1 2017,1563.6 2017,1547.8 1956.5,1525.4 1956.5,1534.6 2008.6,1554.3 
			2008.6,1557.1 		"/>
		<polygon class="st0" points="2078.6,1586.1 2101,1525.4 2091.8,1525.4 2072.2,1577.7 2069.3,1577.7 2049.6,1525.4 2040.5,1525.4 
			2062.9,1586.1 		"/>
		<polygon class="st0" points="2184.9,1576.9 2132.8,1557.1 2132.8,1554.3 2184.9,1534.6 2184.9,1525.4 2124.4,1547.8 
			2124.4,1563.6 2184.9,1586.1 		"/>
		<polygon class="st0" points="2269,1547.8 2208.4,1525.4 2208.4,1534.6 2260.7,1554.3 2260.7,1557.1 2208.4,1576.9 2208.4,1586.1 
			2269,1563.6 		"/>
		<polygon class="st0" points="2321.2,1533.8 2324.1,1533.8 2343.8,1586.1 2353,1586.1 2330.5,1525.4 2314.8,1525.4 2292.4,1586.1 
			2301.5,1586.1 		"/>
		<polygon class="st0" points="2582.5,1586.1 2604.9,1525.4 2595.7,1525.4 2576.1,1577.7 2573.2,1577.7 2553.4,1525.4 
			2544.2,1525.4 2566.8,1586.1 		"/>
		<polygon class="st0" points="2489.2,1533.8 2492.1,1533.8 2511.8,1586.1 2520.9,1586.1 2498.5,1525.4 2482.8,1525.4 
			2460.3,1586.1 2469.4,1586.1 		"/>
		<polygon class="st0" points="2437,1547.8 2376.3,1525.4 2376.3,1534.6 2428.6,1554.3 2428.6,1557.1 2376.3,1576.9 2376.3,1586.1 
			2437,1563.6 		"/>
	</g>
</g>
</svg>
