<svg width="119" height="111" viewBox="0 0 119 111" fill="none" xmlns="http://www.w3.org/2000/svg">
<g clip-path="url(#clip0_178_271)">
<path d="M51.8436 100.89C26.9975 100.89 6.7915 80.542 6.7915 55.5214C6.7915 40.1012 14.4689 25.8704 27.2927 17.4594L30.8783 22.9818C19.9106 30.1609 13.3721 42.3101 13.3721 55.4789C13.3721 76.8463 30.6252 94.263 51.8858 94.263C73.1463 94.263 90.3994 76.8888 90.3994 55.4789C90.3994 34.069 73.1463 16.6947 51.8858 16.6947V10.1104C76.7319 10.1104 96.9379 30.4582 96.9379 55.4789C96.9379 80.4996 76.6898 100.89 51.8436 100.89Z" fill="#AEAEAE"/>
<path d="M113.474 94.2627H82.5955V100.89H113.474V94.2627Z" fill="#AEAEAE"/>
<path d="M53.4888 94.2627H0V100.89H53.4888V94.2627Z" fill="#AEAEAE"/>
<path d="M105.67 111L100.988 106.327L109.72 97.5765L100.988 88.8256L105.67 84.1528L119 97.5765L105.67 111Z" fill="#AEAEAE"/>
<path d="M52.3498 26.8473L39.0198 13.4237L52.3498 0L57.0322 4.67279L48.3002 13.4237L57.0322 22.1745L52.3498 26.8473Z" fill="#AEAEAE"/>
<path d="M51.8015 10.1104H46.9082V16.7372H51.8015V10.1104Z" fill="#AEAEAE"/>
<path d="M51.886 66.8209H51.6751C44.8835 66.8209 39.3997 61.256 39.3997 54.4592V48.0872C39.3997 41.248 44.9257 35.7256 51.6751 35.7256H51.886C58.6776 35.7256 64.1614 41.2905 64.1614 48.0872V54.4592C64.1614 61.2985 58.6776 66.8209 51.886 66.8209ZM51.7173 42.3525C48.5535 42.3525 45.9803 44.9437 45.9803 48.1297V54.5017C45.9803 57.6877 48.5535 60.279 51.7173 60.279H51.9282C55.092 60.279 57.6652 57.6877 57.6652 54.5017V48.1297C57.6652 44.9437 55.092 42.3525 51.9282 42.3525H51.7173Z" fill="#AEAEAE"/>
<path d="M73.4418 92.0114H66.8611V81.0091C66.8611 78.163 63.5286 75.7841 59.6055 75.7841H43.9554C40.0323 75.7841 36.6998 78.163 36.6998 81.0091V92.0114H30.1614V81.0091C30.1614 74.4672 36.3624 69.1572 43.9554 69.1572H59.6055C67.2408 69.1572 73.3996 74.4672 73.3996 81.0091V92.0114H73.4418Z" fill="#AEAEAE"/>
</g>
<defs>
<clipPath id="clip0_178_271">
<rect width="119" height="111" fill="white"/>
</clipPath>
</defs>
</svg>
